<?xml version="1.0" standalone="no"?>
<!DOCTYPE svg PUBLIC "-//W3C//DTD SVG 20010904//EN"
 "http://www.w3.org/TR/2001/REC-SVG-20010904/DTD/svg10.dtd">
<svg version="1.0" xmlns="http://www.w3.org/2000/svg"
 width="1024.000000pt" height="1024.000000pt" viewBox="0 0 1024.000000 1024.000000"
 preserveAspectRatio="xMidYMid meet">
<metadata>
Created by potrace 1.16, written by Peter Selinger 2001-2019
</metadata>
<g transform="translate(0.000000,1024.000000) scale(0.100000,-0.100000)"
fill="#000000" stroke="none">
<path d="M9175 10178 c-15 -35 -34 -82 -42 -105 -8 -24 -19 -45 -24 -49 -5 -3
-9 -15 -9 -27 0 -13 -6 -31 -13 -42 -7 -11 -19 -40 -26 -65 -7 -25 -19 -58
-26 -75 -7 -16 -23 -59 -36 -95 -12 -36 -32 -93 -45 -127 -13 -34 -24 -74 -24
-90 0 -16 -4 -33 -8 -39 -5 -5 -5 -67 -1 -139 8 -121 14 -147 50 -217 6 -12 5
-18 -1 -18 -5 0 -10 -5 -10 -11 0 -6 9 -8 20 -4 31 10 24 1 -27 -36 -112 -79
-199 -181 -261 -304 -47 -95 -63 -161 -71 -298 -6 -97 -12 -130 -24 -140 -8
-6 -17 -21 -20 -32 -4 -15 -5 -14 -6 7 0 15 -6 30 -12 34 -8 4 -9 -1 -4 -17 7
-22 7 -22 -9 -6 -23 22 -43 22 -57 -2 -8 -11 -19 -16 -31 -13 -13 3 -19 0 -18
-9 4 -27 0 -39 -14 -39 -8 0 -24 -9 -37 -20 l-24 -21 34 16 c45 22 169 28 199
9 30 -19 28 -36 -3 -28 -16 4 -32 1 -43 -8 -9 -9 -31 -14 -49 -12 -18 1 -33
-1 -33 -5 0 -4 -17 -13 -37 -20 -51 -18 -88 -47 -71 -55 7 -3 0 -4 -15 -2 -40
5 -82 -37 -90 -91 -5 -32 -11 -41 -22 -37 -8 4 -15 16 -15 29 0 39 12 85 21
79 5 -3 9 2 9 10 0 9 6 15 13 14 6 -2 11 2 10 8 -1 6 9 22 22 34 14 13 25 28
25 33 0 5 10 17 23 27 20 17 20 19 5 25 -14 6 -16 11 -7 27 13 23 4 37 -13 20
-7 -7 -20 -12 -29 -12 -10 0 -21 -13 -28 -30 -11 -33 -36 -43 -26 -10 3 11 2
20 -3 20 -6 0 -13 -11 -16 -25 -4 -14 -13 -25 -21 -25 -8 0 -15 -5 -15 -11 0
-6 -7 -8 -16 -5 -8 3 -13 2 -10 -3 8 -12 -19 -33 -29 -23 -5 4 -5 2 -1 -5 3
-7 -6 -23 -21 -37 -15 -14 -24 -26 -20 -26 15 0 67 30 67 39 0 5 10 11 23 14
15 4 6 -8 -30 -39 -29 -25 -53 -51 -53 -58 0 -7 -12 -19 -26 -26 -36 -20 -88
-87 -72 -93 10 -4 10 -8 -1 -15 -7 -5 -11 -14 -7 -20 5 -9 -31 -25 -59 -26 -5
-1 -22 -13 -37 -27 -20 -20 -27 -38 -32 -85 -3 -32 -3 -53 0 -46 3 6 14 12 23
12 10 0 24 12 32 28 22 43 45 55 51 25 3 -16 4 -16 20 0 25 26 39 21 32 -10
-7 -24 -6 -26 7 -13 8 8 19 28 24 44 14 41 40 49 31 10 -3 -16 -9 -47 -12 -69
-5 -36 -4 -38 9 -22 21 25 27 21 20 -14 -4 -19 -1 -34 6 -38 7 -4 13 -18 14
-29 1 -12 4 -22 8 -22 11 0 30 27 40 57 7 22 8 15 5 -29 -5 -59 7 -77 23 -35
5 12 8 24 6 27 -4 10 32 35 55 38 133 13 160 14 160 4 0 -8 8 -8 28 0 37 16
60 36 76 69 13 25 12 28 -8 33 -44 12 -166 6 -206 -10 -23 -9 -43 -14 -46 -11
-12 12 37 206 58 231 4 6 18 26 31 45 43 67 121 89 227 66 70 -16 73 -17 110
-32 14 -6 28 -9 31 -7 10 5 3 -80 -10 -118 -7 -21 -10 -51 -7 -69 2 -17 2 -38
-1 -46 -7 -17 -51 -37 -76 -34 -37 5 -44 -14 -43 -125 1 -101 0 -107 -23 -125
-15 -12 -40 -19 -70 -19 -43 0 -71 -12 -71 -32 0 -4 5 -8 11 -8 14 0 38 -30
39 -47 0 -9 -19 -13 -65 -13 -72 0 -80 9 -45 50 11 13 20 30 20 38 0 12 -5 11
-22 -5 -13 -11 -38 -28 -55 -39 -30 -17 -45 -44 -24 -44 5 0 11 -9 14 -20 3
-11 1 -20 -4 -20 -15 0 -10 -17 6 -24 9 -3 25 0 35 6 16 11 22 9 34 -7 9 -11
16 -15 16 -10 0 6 8 -5 16 -22 9 -18 20 -31 23 -28 9 5 41 -31 41 -46 0 -5 4
-8 9 -5 4 3 23 1 42 -4 23 -7 35 -6 40 1 5 8 8 8 10 0 2 -6 27 6 55 28 49 37
50 37 46 14 -3 -14 -8 -20 -11 -14 -4 5 -11 -10 -17 -34 -8 -36 -8 -42 3 -33
7 5 10 14 7 19 -3 5 1 9 8 9 15 0 91 71 89 83 -1 4 14 21 33 37 27 24 43 30
79 30 36 0 50 5 64 23 23 29 47 39 62 24 10 -9 11 -5 5 17 -5 20 -3 27 4 22
11 -7 52 39 52 60 0 18 51 56 67 50 8 -3 30 3 50 14 l35 19 -33 9 -34 9 27 11
c41 17 74 52 57 62 -13 8 3 18 52 33 10 3 16 16 15 34 -1 15 6 33 14 39 11 10
12 17 2 38 -6 14 -8 27 -4 30 4 2 42 13 84 25 228 64 380 171 481 338 63 103
79 162 84 303 4 110 2 133 -17 190 -28 85 -76 161 -144 232 -30 31 -48 54 -40
51 8 -3 17 5 24 21 9 26 63 66 88 66 17 0 42 -60 42 -102 0 -18 4 -39 9 -46
15 -25 29 10 41 108 6 52 16 112 22 132 12 40 89 145 205 279 l73 84 0 358 0
357 -518 0 -519 0 -28 -62z m246 -1194 c62 -18 133 -53 126 -61 -3 -2 -21 3
-40 12 -19 9 -44 17 -56 18 -11 1 -21 4 -21 7 0 3 -20 11 -45 18 -65 17 -191
14 -250 -7 -61 -22 -68 -47 -12 -43 43 3 48 -4 11 -18 -18 -7 -30 -7 -39 0
-14 11 -45 3 -45 -12 0 -5 17 -9 38 -8 84 4 94 2 82 -20 -6 -11 -7 -21 -3 -21
4 -1 -5 -5 -22 -9 -23 -6 -16 -8 29 -6 39 1 60 -3 63 -11 3 -8 -3 -13 -14 -13
-15 0 -16 -2 -3 -10 12 -8 12 -10 -5 -10 -18 -1 -18 -2 3 -11 25 -10 21 -29
-6 -29 -13 0 -13 -2 4 -14 18 -14 18 -15 2 -21 -22 -9 -24 -25 -3 -25 19 0 19
-19 0 -26 -8 -4 -12 -10 -9 -15 3 -6 -2 -21 -10 -34 -9 -14 -12 -25 -6 -25 18
0 11 -18 -10 -23 -26 -7 -26 -27 0 -27 14 0 20 -6 18 -17 -2 -10 3 -18 12 -18
8 -1 14 -6 13 -13 -4 -17 3 -15 29 11 22 21 55 80 77 140 6 15 16 27 22 27 6
0 9 6 6 14 -4 10 4 17 24 21 16 4 27 10 24 15 -3 5 3 11 12 13 10 3 1 5 -19 6
-20 0 -39 5 -42 10 -3 5 10 7 30 4 28 -4 40 0 55 16 11 12 17 26 14 31 -3 6 2
10 12 10 23 1 48 21 48 39 0 8 20 19 49 26 l48 12 57 -56 c91 -91 130 -191
131 -335 1 -314 -256 -556 -589 -556 -145 0 -250 35 -346 113 -122 99 -185
232 -185 392 0 124 36 226 114 320 49 59 82 95 72 78 -5 -9 -2 -11 8 -7 9 3
13 10 10 15 -3 5 2 9 11 9 9 0 14 4 11 9 -3 5 1 12 10 15 10 4 13 2 8 -7 -3
-6 6 2 21 18 14 17 24 24 20 18 -4 -9 -1 -11 9 -7 9 3 14 10 11 15 -7 11 27
28 110 55 88 29 243 32 326 8z"/>
<path d="M7959 9785 c-85 -63 -158 -115 -163 -115 -5 0 16 27 47 59 104 109
72 93 -113 -56 -74 -60 -164 -129 -200 -153 -36 -24 -77 -52 -92 -62 -45 -30
-42 -21 11 38 49 53 70 93 34 62 -84 -69 -139 -125 -265 -268 -80 -91 -187
-203 -238 -250 -52 -47 -110 -100 -129 -118 -47 -42 -93 -55 -135 -38 -49 20
-103 18 -124 -4 -18 -19 -20 -18 -132 71 -63 49 -138 107 -165 128 -28 21 -75
60 -105 87 -87 78 -165 140 -155 124 5 -8 20 -30 33 -47 13 -18 20 -33 14 -33
-6 0 -14 5 -17 10 -4 6 -21 17 -38 24 -18 8 -58 36 -91 63 -32 26 -68 55 -80
63 l-21 14 20 -23 c11 -12 55 -50 97 -84 46 -36 78 -69 78 -79 0 -19 15 -51
38 -79 7 -9 12 -20 11 -25 -4 -21 3 -32 26 -42 35 -16 44 -14 21 3 -23 17 -14
20 15 4 11 -5 17 -14 14 -19 -3 -5 -1 -11 5 -15 5 -3 10 -1 10 5 0 6 5 8 10 5
6 -4 7 -12 3 -18 -4 -8 -1 -7 9 1 10 8 19 9 22 3 3 -5 0 -12 -6 -15 -7 -4 -3
-4 10 -2 14 3 22 -1 22 -10 0 -8 6 -14 13 -14 7 0 8 -3 2 -8 -5 -4 -11 -13
-13 -21 -3 -12 0 -12 12 -2 11 9 16 9 22 0 4 -8 3 -9 -4 -5 -7 4 -12 2 -12 -4
0 -6 10 -15 23 -20 12 -5 16 -9 10 -9 -22 -1 -14 -16 17 -35 28 -16 33 -36 8
-36 -6 0 -8 3 -5 7 10 9 -13 33 -31 33 -13 0 -12 -3 4 -16 18 -15 18 -15 -3
-9 -14 4 -23 2 -23 -5 0 -7 9 -14 20 -17 11 -3 20 -10 20 -15 0 -5 5 -6 10 -3
6 3 10 1 10 -4 0 -6 -2 -11 -5 -11 -11 0 -50 26 -74 49 -23 22 -23 23 -3 17
35 -12 25 2 -14 19 -22 9 -33 19 -28 26 5 9 11 6 21 -7 11 -15 15 -16 22 -5 5
7 14 10 20 7 6 -4 11 -3 11 3 0 15 -18 23 -25 11 -9 -15 -25 -12 -25 5 0 8 -6
15 -12 16 -8 0 -6 3 3 7 14 6 13 10 -5 29 -19 20 -23 21 -41 6 -16 -12 -16
-14 -3 -10 28 10 47 -35 25 -61 -9 -11 -7 -17 8 -28 10 -8 14 -14 8 -14 -7 0
-14 4 -18 10 -3 5 -11 7 -18 5 -17 -7 -38 9 -41 31 -2 10 -10 20 -19 22 -15 3
-18 -13 -5 -34 4 -6 1 -11 -7 -11 -8 0 -14 3 -13 6 2 30 -53 93 -69 77 -3 -3
6 -11 21 -17 14 -7 26 -19 26 -26 0 -8 -4 -12 -9 -9 -5 4 -12 0 -14 -6 -4 -9
-6 -8 -6 3 -1 18 -45 59 -64 59 -6 0 -21 7 -31 15 -15 11 -17 18 -9 26 9 9 16
8 27 -3 8 -9 13 -17 11 -19 -2 -2 8 -4 21 -4 21 0 22 2 8 12 -9 6 -13 16 -10
21 10 16 -31 21 -59 6 -17 -9 -33 -10 -48 -4 -19 7 -11 14 14 12 3 -1 6 4 6
11 0 7 -16 13 -35 15 -42 3 -50 8 -35 23 8 8 2 20 -21 44 -35 35 -52 65 -36
65 21 0 -27 42 -69 61 -24 10 -45 19 -47 19 -8 0 11 -36 25 -47 13 -9 17 -8
21 3 4 11 11 7 28 -15 l22 -30 -35 15 c-19 8 -35 11 -35 7 0 -5 -4 -1 -10 7
-5 8 -12 12 -15 8 -3 -3 12 -20 35 -38 22 -17 40 -40 40 -49 0 -19 24 -44 52
-54 10 -3 15 -12 12 -20 -6 -17 21 -41 40 -34 9 4 12 0 9 -11 -2 -11 7 -23 26
-35 17 -10 31 -24 31 -30 0 -13 62 -57 80 -57 5 0 10 -4 10 -8 0 -4 12 -9 27
-10 14 -1 34 -9 43 -17 9 -8 21 -15 27 -15 18 0 85 -33 141 -68 66 -43 335
-142 384 -142 52 0 55 -15 6 -35 -50 -20 -87 -47 -110 -83 -19 -29 -11 -46 27
-63 11 -5 27 -13 35 -18 23 -13 82 -32 115 -37 35 -5 186 -4 230 2 64 8 74 11
89 23 9 8 16 11 16 7 0 -12 81 35 87 50 9 25 -36 62 -144 116 -57 28 -106 55
-109 60 -11 18 4 19 41 4 56 -24 78 -20 128 22 41 33 151 94 217 120 61 24
126 55 140 67 8 7 27 15 42 19 15 3 38 16 50 29 13 13 49 37 80 55 31 18 60
42 63 53 4 12 13 18 21 15 15 -6 47 21 40 33 -3 4 4 13 14 21 10 8 17 17 14
22 -3 4 2 5 10 2 10 -4 19 2 25 17 5 13 21 33 36 43 14 11 23 26 21 33 -3 8
-1 11 4 8 9 -5 29 11 102 83 79 77 96 97 91 105 -3 5 11 24 32 42 20 19 35 39
33 46 -2 7 12 27 31 45 27 25 32 34 19 34 -30 0 -20 16 32 51 27 19 50 37 50
40 0 10 -81 -8 -140 -30 -42 -16 -56 -18 -62 -8 -9 15 4 25 102 82 66 39 146
105 127 105 -4 0 -73 -31 -153 -70 -81 -38 -150 -70 -155 -70 -19 0 -7 16 32
44 76 53 198 176 176 176 -2 0 -73 -52 -158 -115z"/>
<path d="M6548 9778 c-25 -31 -27 -31 -27 -10 -1 24 -31 32 -31 7 0 -8 5 -15
12 -15 15 0 0 -15 -15 -15 -7 0 -11 -11 -9 -24 1 -15 -7 -30 -23 -43 -27 -21
-32 -47 -13 -66 9 -9 9 -12 0 -12 -7 0 -12 5 -12 11 0 8 -4 8 -13 0 -12 -9
-12 -71 0 -71 14 0 43 23 43 35 0 7 12 28 27 45 22 27 25 35 14 51 -8 14 -9
24 -1 37 9 14 10 14 5 -5 -5 -17 -2 -23 9 -23 11 0 16 9 16 26 0 23 3 25 27
20 39 -10 58 30 31 67 -12 16 -15 14 -40 -15z"/>
<path d="M593 9463 c-7 -3 -13 -9 -13 -14 0 -6 5 -7 11 -4 6 4 5 -2 -3 -14
-12 -19 -13 -19 -20 -3 -6 16 -9 15 -12 -7 -2 -19 -16 -24 -31 -11 -18 15 -19
9 -4 -24 7 -14 16 -23 22 -19 6 3 7 2 4 -4 -4 -6 -2 -24 3 -42 12 -44 3 -39
-16 10 -19 46 -38 39 -25 -9 8 -25 7 -32 -4 -32 -7 0 -16 6 -19 13 -2 6 -3 -5
-1 -25 2 -21 0 -38 -5 -38 -6 0 -10 5 -10 12 0 6 -2 9 -5 6 -9 -9 6 -58 16
-52 5 3 6 -1 3 -9 -3 -8 0 -18 6 -22 9 -6 9 -9 -1 -15 -19 -12 8 -67 58 -118
24 -23 43 -51 43 -61 0 -22 74 -101 94 -101 8 0 16 -5 18 -12 2 -6 15 -12 29
-13 17 -1 25 -8 28 -26 4 -30 11 -34 92 -59 76 -23 125 -26 132 -7 4 9 8 9 15
-1 8 -12 14 -11 38 2 20 10 24 15 12 16 -28 0 -21 17 10 23 17 3 30 0 35 -9
31 -54 189 52 258 172 30 53 37 114 16 141 -5 7 -7 22 -4 33 3 11 1 18 -4 14
-5 -3 -9 2 -9 10 0 9 -5 16 -11 16 -6 0 -9 -7 -5 -15 3 -8 1 -15 -4 -15 -6 0
-10 5 -10 12 0 9 -3 9 -12 0 -7 -7 -19 -12 -28 -12 -22 0 -63 -36 -56 -49 9
-14 -14 -25 -27 -12 -8 8 -8 14 1 23 15 15 -3 38 -29 38 -11 0 -19 7 -19 16 0
10 6 14 15 10 9 -3 15 0 15 10 0 8 -13 17 -30 21 -34 6 -40 22 -10 30 20 5 28
23 10 23 -5 0 -18 20 -28 44 -11 24 -25 47 -32 51 -9 5 -10 3 -2 -11 5 -11 7
-25 5 -31 -3 -7 2 -13 11 -13 11 0 16 -9 16 -32 l0 -33 -13 25 c-7 14 -20 25
-29 25 -9 0 -20 4 -25 8 -4 5 -1 7 7 5 10 -2 14 4 12 17 -2 11 -4 25 -4 32 -1
7 -5 10 -9 7 -4 -2 -9 1 -11 7 -3 9 -11 8 -28 -1 -22 -12 -24 -12 -12 2 10 12
10 18 -2 27 -15 12 -32 -1 -22 -17 2 -4 -4 -13 -14 -20 -16 -10 -18 -9 -14 2
4 11 -2 14 -22 11 -38 -4 -54 3 -65 29 -7 17 -8 14 -5 -14 2 -21 8 -34 15 -32
7 1 10 -2 6 -8 -3 -6 4 -15 17 -20 23 -10 23 -10 -2 -5 -33 8 -90 8 -117 -1
-15 -4 -23 -2 -23 6 0 7 -7 10 -15 7 -20 -8 -28 8 -10 23 20 17 19 27 -5 33
-13 3 -18 11 -15 26 2 12 0 21 -6 21 -5 0 -9 -8 -9 -19 0 -21 -23 -45 -33 -34
-13 12 -7 33 9 33 18 0 14 22 -6 28 -7 3 -10 0 -6 -6 3 -5 -1 -12 -9 -16 -8
-3 -15 -1 -15 4 0 6 -4 10 -8 10 -5 0 -9 -6 -9 -14 0 -8 5 -14 10 -13 5 1 11
-6 12 -15 4 -21 4 -21 -29 -8 -21 8 -24 7 -19 -8 6 -15 5 -15 -10 -3 -16 12
-14 16 17 46 24 23 32 36 25 46 -7 12 -9 12 -9 -1 0 -10 -3 -11 -8 -4 -4 6
-13 9 -19 7z"/>
<path d="M5241 9081 c-6 -10 -7 -21 -4 -25 3 -3 -2 -6 -13 -7 -11 0 -14 -3 -6
-6 10 -4 10 -9 -3 -23 -14 -16 -14 -18 0 -23 9 -4 15 -1 15 8 0 8 5 15 11 15
16 0 5 -73 -15 -101 -9 -13 -16 -31 -16 -40 0 -22 -63 -85 -105 -105 -52 -25
-158 -9 -188 27 -10 12 -20 20 -22 17 -3 -2 9 -20 25 -39 25 -29 31 -32 41
-19 9 13 10 12 5 -3 -7 -23 28 -37 95 -37 90 0 178 60 214 147 29 68 14 193
-23 193 -12 0 -12 4 3 20 10 11 13 20 7 20 -6 0 -16 -8 -21 -19z"/>
<path d="M3576 8775 c-21 -7 -44 -19 -50 -25 -8 -10 -5 -10 13 0 26 13 80 6
124 -16 22 -12 26 -18 17 -29 -8 -10 -7 -17 5 -27 58 -46 65 -58 65 -100 0
-55 15 -81 25 -47 23 72 -10 179 -69 223 -41 31 -82 37 -130 21z"/>
<path d="M5902 8535 c4 -13 -30 -49 -60 -64 -17 -9 -21 -18 -17 -34 4 -12 3
-17 -2 -12 -4 6 -16 11 -25 11 -14 1 -17 -4 -12 -25 7 -29 32 -61 47 -61 10 0
37 28 63 65 11 15 16 17 23 7 6 -10 14 -10 36 -2 16 6 34 9 42 6 8 -3 13 2 13
14 0 10 7 20 17 22 10 2 17 13 17 31 1 19 -2 26 -12 22 -7 -2 -15 2 -18 10 -8
20 -49 19 -69 -1 -15 -15 -17 -15 -31 2 -8 11 -13 14 -12 9z"/>
<path d="M5313 8134 c-2 -6 3 -23 11 -39 9 -17 12 -33 7 -38 -10 -10 8 -77 21
-77 15 0 8 -21 -14 -44 -28 -29 -94 -39 -129 -20 -13 7 -34 13 -45 14 -12 0
-27 7 -34 16 -18 21 -88 53 -130 60 -27 4 -52 -3 -108 -30 -71 -35 -74 -35
-105 -20 l-32 15 38 -33 c36 -32 37 -35 26 -67 -36 -103 44 -232 170 -275 75
-25 130 -61 130 -87 1 -8 6 -20 12 -26 16 -16 3 -60 -21 -68 -22 -7 -45 4
-109 52 -25 20 -62 43 -81 52 -19 9 -38 20 -41 25 -4 5 -12 7 -19 4 -7 -2 15
-21 48 -42 74 -46 84 -57 87 -99 3 -38 48 -138 72 -162 16 -16 16 -18 -2 -31
-17 -13 -18 -17 -6 -35 7 -12 14 -40 16 -63 4 -34 0 -44 -20 -59 -14 -10 -25
-13 -25 -8 0 5 9 16 21 25 19 13 20 18 10 49 -18 54 -91 65 -148 21 -37 -28
-43 -61 -18 -104 20 -35 19 -61 -1 -32 -8 12 -21 22 -27 22 -9 0 -8 -3 1 -8
18 -12 -25 -34 -58 -30 -26 3 -28 -3 -30 -87 -1 -27 35 -55 71 -55 40 0 43
-13 9 -46 -43 -42 -37 -63 6 -24 22 19 40 28 45 23 11 -11 -11 -126 -40 -204
-10 -30 -22 -65 -26 -79 l-6 -25 20 25 c11 14 21 34 21 45 0 11 9 38 19 60
l19 40 2 -45 1 -45 18 22 c10 12 21 19 25 16 8 -9 46 27 46 44 0 7 6 13 14 13
8 0 19 14 25 31 12 35 -7 83 -62 153 -22 28 -31 49 -31 80 l-1 41 45 3 c75 4
86 9 103 49 18 44 27 71 26 79 0 4 4 10 10 14 8 4 3 19 -13 43 -14 20 -21 37
-16 37 6 0 10 9 10 20 0 10 12 27 26 37 55 38 115 97 120 119 3 13 11 21 17
17 6 -3 7 -1 3 6 -4 6 -3 18 4 26 6 7 13 31 15 51 2 21 0 32 -5 25 -5 -8 -7
-3 -7 15 0 16 2 23 4 17 6 -18 23 -16 23 2 0 16 12 34 43 63 23 22 22 32 -5
32 -19 0 -20 2 -8 10 13 9 13 10 0 10 -10 0 -11 3 -3 8 6 4 15 20 18 35 4 15
11 27 16 27 5 0 9 14 9 30 0 17 4 30 10 30 5 0 7 7 3 16 -5 13 -2 15 18 9 20
-7 22 -5 13 6 -12 15 -2 112 17 175 14 46 11 117 -6 141 -13 18 -24 22 -71 20
-31 -1 -58 -7 -61 -13z m-347 -189 c1 -5 -17 -16 -41 -22 -23 -7 -48 -20 -55
-28 -11 -13 -8 -15 19 -15 19 0 31 -5 31 -13 0 -7 10 -22 23 -33 21 -18 27
-19 72 -8 27 7 53 10 58 7 5 -3 13 1 18 8 11 19 23 4 14 -18 -5 -10 -7 -22 -6
-26 3 -14 -29 -66 -46 -75 -21 -12 -92 -3 -118 14 -26 18 -41 18 -26 0 7 -8
34 -20 62 -27 55 -14 59 -21 27 -37 -30 -14 -78 -21 -78 -11 0 4 -8 10 -18 13
-33 11 -72 86 -72 138 0 60 24 122 53 136 26 13 82 11 83 -3z m234 -127 c14
-15 20 -35 20 -67 0 -84 -10 -117 -40 -134 -35 -21 -60 -22 -60 -2 0 18 -34
37 -54 29 -35 -13 -26 26 19 88 26 34 51 65 56 66 5 2 9 10 9 17 0 11 6 16 27
24 1 1 11 -9 23 -21z"/>
<path d="M570 8080 c-13 -8 -13 -10 0 -10 13 -1 13 -2 -1 -13 -8 -7 -20 -28
-26 -47 l-11 -35 -1 35 c-1 40 -21 80 -21 43 0 -12 -4 -25 -10 -28 -5 -3 -10
-1 -10 4 0 26 -19 6 -48 -50 -37 -71 -39 -84 -14 -98 16 -10 16 -10 0 -11 -9
0 -24 -10 -32 -21 -11 -16 -22 -20 -46 -17 -27 4 -31 2 -28 -16 2 -12 13 -22
26 -26 23 -5 22 -7 -18 -43 -33 -29 -41 -42 -36 -60 3 -14 -2 -35 -14 -54 -16
-26 -19 -49 -10 -73 1 -3 2 -9 1 -14 -1 -5 6 -17 15 -27 10 -11 12 -19 6 -19
-7 0 -12 -4 -12 -10 0 -5 7 -10 16 -10 8 0 13 -4 10 -9 -3 -4 11 -27 31 -51
36 -41 36 -43 25 -86 -7 -24 -12 -54 -12 -65 0 -22 69 -99 88 -99 15 0 62 -52
62 -69 0 -19 56 -115 105 -181 63 -84 75 -107 75 -138 0 -28 57 -117 87 -135
32 -19 67 -56 61 -62 -12 -12 -96 49 -103 74 -6 22 -8 23 -22 9 -8 -9 -19 -38
-24 -64 -5 -27 -12 -57 -15 -66 -3 -12 0 -18 10 -18 9 0 16 7 16 15 0 10 11
15 35 15 25 0 35 4 35 16 0 11 5 14 18 9 9 -4 30 -9 46 -12 24 -4 28 -2 22 13
-5 12 4 9 31 -12 23 -18 38 -24 41 -16 2 7 12 12 23 12 10 0 19 4 19 9 0 14
31 19 58 9 17 -6 27 -3 39 12 10 12 30 20 48 20 16 0 35 4 41 8 18 12 34 49
34 78 0 20 3 24 13 17 6 -6 29 -13 50 -16 46 -7 48 7 10 80 l-27 52 47 57 c40
48 47 62 42 88 -11 63 -4 264 11 321 10 38 66 145 76 145 6 0 3 11 -5 24 -21
32 -18 66 6 66 14 0 17 3 10 13 -18 21 -20 52 -6 65 17 17 17 24 -6 49 -11 12
-17 23 -14 26 3 3 2 11 -2 17 -5 8 -14 7 -31 -4 -26 -18 -74 -21 -74 -6 0 6 6
10 12 10 7 0 4 8 -7 20 -14 13 -35 20 -68 21 -31 2 -52 8 -63 21 -16 17 -16
18 -1 18 10 0 17 -4 17 -10 0 -5 11 -9 24 -8 21 2 23 5 15 27 -6 13 -7 31 -4
40 3 8 3 12 -1 8 -11 -11 -44 23 -44 46 0 13 -5 17 -16 13 -11 -4 -15 -2 -11
7 5 14 -9 18 -48 16 -11 0 -27 -1 -35 -1 -8 -1 -22 2 -31 6 -13 6 -16 2 -13
-21 4 -25 3 -25 -5 -7 -7 15 -30 28 -79 43 -39 11 -75 21 -80 21 -14 0 -42 29
-42 42 0 7 10 2 23 -10 13 -12 34 -22 48 -22 13 0 55 -7 94 -15 38 -8 73 -11
77 -7 9 9 -5 12 -49 13 -13 1 -23 5 -23 11 0 5 -4 7 -9 4 -12 -8 -72 14 -66
24 3 5 -4 11 -15 15 -11 3 -20 11 -20 16 0 5 -7 9 -15 9 -8 0 -15 4 -15 10 0
5 7 7 15 4 26 -10 16 10 -11 23 -34 16 -47 7 -39 -24 4 -16 0 -35 -11 -50 -10
-17 -14 -37 -11 -59 4 -24 2 -32 -7 -28 -9 4 -11 16 -6 42 4 23 2 52 -6 72
-12 33 -12 31 -7 -30 5 -58 4 -63 -9 -45 -8 11 -26 47 -39 79 -17 42 -25 54
-27 39 -2 -12 4 -35 12 -52 9 -16 16 -36 16 -43 0 -7 11 -26 25 -42 25 -29 32
-46 18 -46 -5 0 -26 20 -47 45 -22 24 -43 42 -47 40 -8 -6 -22 26 -14 33 3 3
5 0 5 -6 0 -7 4 -12 8 -12 11 0 2 69 -9 76 -5 3 -9 -4 -9 -15 0 -30 -15 -26
-32 8 -10 22 -18 27 -28 21z m481 -275 c14 5 19 4 15 -4 -4 -6 -1 -11 8 -11 8
0 17 -6 19 -12 4 -10 8 -9 17 2 10 13 11 13 7 0 -2 -8 2 -21 9 -28 8 -7 18
-30 24 -51 5 -21 17 -44 26 -52 21 -17 41 -67 74 -190 32 -117 40 -193 22
-211 -18 -18 -42 -18 -49 -1 -4 11 -8 12 -13 2 -6 -8 -23 4 -56 39 -34 38 -54
52 -73 52 -25 0 -87 26 -114 48 -25 20 -75 24 -106 7 -19 -10 -38 -13 -49 -8
-9 5 -28 8 -42 8 -21 0 -26 -6 -30 -35 -4 -27 -10 -35 -25 -35 -13 0 -19 6
-17 15 6 26 -94 -73 -110 -109 -6 -13 -8 -12 -13 6 -4 12 -12 20 -19 17 -6 -2
-22 9 -34 26 -18 24 -23 45 -25 111 l-2 82 54 48 c30 27 58 46 63 43 5 -3 15
0 23 6 10 9 15 9 15 1 0 -12 91 -13 111 0 8 4 14 27 14 54 1 25 5 49 11 55 14
14 73 -19 80 -46 7 -26 37 -49 76 -56 19 -4 25 -1 21 8 -3 8 3 17 13 21 10 4
19 2 22 -5 5 -15 54 -16 70 0 8 8 15 8 27 -2 13 -11 18 -11 30 1 11 10 12 24
5 52 -9 44 -35 72 -84 92 -41 17 -60 40 -52 61 5 13 9 14 21 4 8 -6 23 -9 36
-5z"/>
<path d="M9950 7942 c-44 -22 -48 -45 -21 -136 15 -52 21 -112 25 -221 3 -82
15 -235 26 -339 12 -104 20 -207 18 -230 l-3 -41 -170 -85 c-94 -47 -183 -94
-198 -105 -32 -24 -44 -72 -24 -99 14 -19 16 -17 63 30 32 32 70 57 109 73 64
26 95 47 95 66 0 16 50 51 83 57 21 4 31 0 42 -16 12 -19 30 -117 34 -186 2
-40 -22 -103 -49 -128 -15 -13 -18 -20 -8 -16 10 3 20 -2 27 -13 8 -16 4 -25
-20 -47 -16 -15 -29 -36 -29 -46 0 -18 25 -34 40 -25 5 3 13 -3 19 -12 10 -20
-11 -59 -27 -49 -5 3 -17 -3 -27 -14 -15 -16 -15 -22 -5 -35 18 -21 39 -19
140 15 84 28 120 36 120 25 0 -18 -26 -54 -39 -53 -9 0 -36 -8 -61 -17 -80
-31 -171 -54 -186 -48 -8 3 -14 14 -14 25 0 16 -5 19 -24 14 -21 -5 -23 -3
-18 16 4 17 2 20 -12 15 -10 -4 -21 -7 -24 -7 -11 0 -29 -51 -38 -105 l-8 -50
-6 68 c-4 37 -12 73 -18 79 -7 7 -12 20 -12 30 0 30 -16 21 -54 -31 -67 -91
-305 -299 -327 -285 -5 3 -9 0 -9 -6 0 -7 -7 -10 -15 -6 -8 3 -15 1 -15 -4 0
-5 -32 -25 -72 -44 -39 -20 -76 -40 -82 -45 -6 -4 -18 -8 -26 -8 -8 0 -36 -3
-62 -7 -47 -7 -48 -7 -48 19 0 14 -14 51 -30 82 -30 55 -36 80 -44 175 -2 25
-7 51 -11 57 -3 6 -1 11 4 11 6 0 11 -5 11 -11 0 -5 5 -7 10 -4 6 4 8 11 5 16
-9 13 9 11 23 -3 9 -9 12 -9 12 0 0 13 -6 16 -53 27 -21 4 -28 11 -25 26 2 11
6 20 10 20 4 0 22 4 39 9 25 7 30 6 25 -5 -7 -18 15 -20 32 -3 9 9 12 8 12 -4
0 -9 -4 -19 -9 -22 -11 -7 -21 -56 -11 -56 14 0 40 49 40 73 0 36 11 39 37 11
12 -14 28 -22 33 -19 6 3 10 -3 10 -15 0 -12 -4 -19 -9 -15 -6 3 -9 -4 -8 -15
1 -20 2 -20 14 -4 7 10 13 24 13 33 0 8 3 11 7 8 10 -11 31 25 25 45 -2 10
-12 18 -21 18 -14 0 -14 2 -1 10 13 9 13 12 -2 21 -22 12 -23 29 -3 29 8 0 15
7 15 15 0 8 7 15 15 15 8 0 15 4 15 10 0 5 -13 7 -29 4 -20 -4 -30 -2 -34 10
-4 9 -2 16 3 16 6 0 10 7 10 15 0 8 5 15 10 15 6 0 10 5 10 11 0 5 -4 7 -10 4
-5 -3 -17 -2 -26 3 -14 8 -13 12 9 38 29 34 47 68 47 85 0 10 -3 10 -12 1 -17
-17 -28 -15 -28 4 0 10 -12 -5 -26 -32 -55 -105 -88 -104 -158 5 -30 46 -46
61 -63 61 -28 0 -30 -16 -4 -25 11 -3 23 -16 27 -28 4 -12 11 -25 17 -29 6 -3
10 -20 10 -37 0 -17 5 -31 11 -31 7 0 11 -24 11 -64 0 -49 -5 -69 -19 -85 -26
-28 -46 -27 -46 4 0 14 5 25 11 25 6 0 -4 16 -23 36 -18 19 -32 39 -31 44 1 4
-12 24 -30 44 -51 56 -56 64 -50 70 4 3 1 6 -5 6 -15 0 -16 27 -1 32 9 3 9 9
0 25 -6 12 -11 43 -11 70 0 31 -3 43 -9 34 -7 -11 -11 -9 -20 8 -8 14 -8 21
-1 21 11 0 9 27 -3 47 -5 8 0 11 15 8 13 -2 58 -6 102 -10 61 -5 77 -4 70 6
-5 9 -2 10 11 5 15 -6 17 -2 12 29 -5 28 -3 35 11 35 14 0 14 3 -3 19 -18 17
-81 46 -180 84 -17 7 -44 22 -62 35 -17 12 -45 25 -63 28 l-31 7 30 -31 c17
-17 31 -36 30 -44 0 -7 -7 -3 -16 10 -16 23 -43 30 -43 11 0 -6 -11 3 -25 19
-15 18 -23 37 -19 46 8 21 -2 20 -43 -5 -18 -12 -42 -19 -53 -16 -10 3 -20 1
-22 -4 -2 -5 -38 -10 -81 -11 -67 -2 -77 -4 -77 -20 0 -29 -26 -21 -40 12 -7
17 -19 30 -26 30 -18 0 -18 -10 2 -38 8 -12 12 -22 9 -22 -3 0 -1 -8 4 -18 6
-11 12 -31 15 -45 5 -28 53 -97 67 -97 5 0 9 -7 9 -15 0 -12 4 -14 17 -7 11 7
23 6 34 -1 13 -8 22 -5 40 12 22 20 25 21 36 5 7 -9 14 -21 15 -26 5 -13 79
-28 106 -21 13 3 22 1 22 -6 0 -6 -5 -11 -12 -11 -6 0 -4 -6 7 -13 13 -10 15
-16 6 -21 -11 -7 -33 0 -106 35 -23 11 -126 25 -170 24 -16 0 -33 4 -37 9 -4
6 -16 5 -31 -3 -14 -7 -31 -10 -38 -6 -8 5 -10 4 -5 -3 4 -7 3 -12 -3 -12 -5
0 -17 -3 -27 -7 -11 -4 -15 -3 -10 5 6 11 -7 7 -132 -35 -23 -8 -40 -18 -38
-22 3 -4 -8 -5 -25 -3 -21 3 -29 0 -29 -11 0 -9 -9 -14 -24 -14 -45 0 -217
-147 -201 -172 3 -6 -4 -15 -15 -21 -11 -6 -19 -14 -17 -19 1 -5 -12 -22 -30
-39 -17 -17 -34 -39 -37 -50 -6 -17 -20 -37 -70 -92 -7 -8 -16 -26 -19 -40 -4
-14 -18 -38 -32 -54 -13 -16 -22 -32 -20 -36 3 -5 -1 -11 -7 -13 -10 -4 -10
-6 -1 -6 7 -1 10 -8 7 -16 -5 -11 -1 -14 12 -9 11 3 15 2 8 -3 -6 -4 -13 -16
-17 -26 -6 -15 -3 -17 16 -11 22 6 22 6 2 -13 -11 -11 -26 -18 -34 -15 -9 3
-12 1 -7 -6 4 -7 2 -12 -4 -12 -6 0 -9 -4 -6 -9 3 -5 -5 -11 -19 -13 -17 -4
-33 2 -51 19 -25 23 -25 25 -10 42 16 17 16 19 1 25 -9 3 -34 6 -55 6 -29 0
-41 6 -54 25 -9 13 -16 31 -16 38 0 28 47 47 115 47 36 0 65 4 65 9 0 10 -110
19 -116 9 -2 -3 -13 -4 -23 -1 -31 8 -71 -39 -71 -82 0 -64 -16 -37 -40 65
-12 55 -27 103 -32 106 -5 3 -25 3 -44 -1 -31 -5 -35 -9 -32 -33 2 -18 10 -28
28 -32 l25 -6 -29 -8 c-16 -4 -32 -3 -37 1 -4 4 -17 40 -28 78 -19 67 -98 263
-143 354 -23 45 -45 62 -57 43 -4 -7 -12 -8 -21 -2 -8 6 -26 10 -40 10 -17 0
-32 11 -47 35 -13 19 -23 37 -23 41 0 3 -9 18 -20 34 l-20 28 52 108 c49 104
54 110 100 132 28 14 45 28 42 34 -4 7 -2 8 4 4 11 -7 38 11 80 54 13 14 28
25 32 25 12 0 44 45 59 83 18 44 7 125 -22 158 -26 30 -178 126 -257 163 -137
63 -548 26 -672 -60 -50 -35 -178 -161 -193 -189 -25 -48 4 -130 67 -186 31
-29 138 -67 143 -51 2 7 6 42 10 79 9 89 19 97 129 101 48 2 92 9 98 15 6 6
16 8 23 6 16 -6 32 14 49 63 18 51 6 79 -47 109 -32 18 -36 23 -23 33 21 17
129 19 149 3 12 -11 13 -19 5 -45 -6 -18 -11 -95 -12 -172 l-1 -140 -55 -5
c-42 -4 -56 -9 -58 -23 -4 -21 23 -33 42 -18 11 9 20 9 38 0 13 -7 30 -15 38
-19 23 -11 18 -33 -11 -47 -14 -7 -58 -16 -97 -19 -42 -4 -69 -11 -65 -16 3
-6 -3 -7 -16 -3 -17 5 -21 2 -21 -16 0 -20 3 -21 45 -15 25 3 65 9 90 12 59 9
59 -8 0 -33 -25 -10 -45 -21 -45 -25 0 -10 34 -17 95 -20 64 -4 68 -22 15 -64
-37 -30 -42 -31 -87 -22 -26 6 -55 18 -64 27 -9 9 -27 24 -39 34 -21 18 -22
18 -36 0 -7 -10 -14 -33 -14 -52 0 -20 -7 -39 -16 -46 -53 -39 77 -145 177
-145 17 0 29 -5 29 -12 0 -18 -35 -69 -43 -63 -4 3 -5 2 -3 -1 8 -10 -25 -108
-42 -128 -13 -14 -27 -17 -64 -14 -27 3 -48 1 -48 -4 0 -5 -5 -6 -12 -2 -8 5
-9 2 -4 -12 4 -10 4 -15 0 -11 -4 4 -16 -1 -26 -10 -24 -22 -48 -25 -48 -7 0
8 -4 14 -10 14 -5 0 -7 -7 -4 -15 7 -18 -7 -20 -23 -4 -7 7 -23 9 -38 5 -21
-5 -26 -11 -22 -28 6 -20 -30 -98 -45 -98 -4 0 -10 16 -14 36 -8 43 12 68 87
109 43 23 55 25 75 16 27 -12 30 -5 9 23 -8 11 -15 29 -15 40 0 15 -3 17 -8 8
-9 -13 -42 -6 -42 9 0 5 3 8 8 8 19 -3 22 2 8 16 -17 17 -91 20 -131 5 -23 -9
-26 -15 -21 -36 4 -13 1 -42 -5 -64 -10 -34 -9 -50 11 -117 12 -43 24 -80 26
-82 2 -2 17 9 35 23 76 64 239 113 288 86 24 -12 29 -35 6 -27 -8 4 -17 2 -20
-3 -4 -6 -16 -10 -29 -10 -12 0 -27 -5 -34 -12 -7 -7 -12 -8 -12 -4 0 5 -10 2
-22 -6 -31 -20 -118 -49 -128 -43 -5 3 -15 -2 -24 -11 -9 -8 -20 -13 -26 -9
-6 3 -7 -1 -4 -9 3 -9 1 -16 -5 -16 -18 0 6 -38 28 -45 12 -3 45 6 84 24 35
16 75 33 89 36 59 15 87 -23 37 -50 -51 -28 -162 -75 -177 -75 -8 0 -13 -3 -9
-6 3 -4 -8 -17 -26 -29 -32 -22 -57 -18 -57 10 0 14 -40 62 -41 49 -1 -5 -1
-16 0 -25 2 -16 -53 -152 -73 -180 -6 -9 -30 -38 -52 -65 -23 -27 -50 -59 -61
-72 l-19 -24 -27 69 c-16 37 -30 86 -32 107 -6 48 -15 79 -22 72 -3 -3 -19 8
-37 24 -17 17 -34 30 -38 30 -5 0 -8 8 -8 19 0 11 -9 21 -21 24 -16 4 -20 11
-16 26 3 13 -1 24 -11 30 -16 9 -26 41 -13 41 4 0 6 12 6 28 -1 15 2 32 6 37
7 10 12 63 10 128 -1 44 -21 51 -21 7 0 -21 -4 -28 -14 -24 -7 3 -35 -14 -62
-36 -26 -23 -58 -47 -71 -53 -20 -9 -27 -24 -26 -63 0 -10 -35 -7 -116 11 -24
6 -32 5 -27 -3 4 -8 -6 -9 -36 -6 -23 3 -45 8 -48 11 -3 3 7 3 23 1 15 -3 30
-2 33 3 12 20 -246 0 -288 -22 -11 -6 -30 -1 -60 16 -41 23 -46 24 -93 11 -70
-19 -171 -77 -234 -136 l-34 -31 -24 41 c-13 22 -28 38 -32 36 -4 -3 -8 0 -8
7 0 16 -61 111 -127 198 -114 151 -137 186 -152 239 -24 88 -54 146 -95 186
-22 21 -39 41 -39 44 0 3 11 5 24 5 13 0 22 -3 20 -6 -2 -4 3 -12 11 -19 8 -7
15 -10 15 -6 0 16 -58 125 -63 119 -6 -6 -11 12 -8 30 0 4 -1 7 -4 7 -6 0 -67
-30 -74 -36 -2 -2 13 -20 35 -39 21 -19 36 -34 32 -35 -10 0 -78 60 -78 70 0
4 24 22 54 41 30 18 54 37 53 43 -1 6 4 10 11 8 8 -1 11 2 7 9 -4 6 4 23 18
37 54 57 62 202 16 302 -16 34 -55 85 -101 132 -42 43 -67 73 -57 68 26 -14
33 -12 16 4 -8 8 -36 25 -63 38 -39 18 -66 23 -134 23 -73 0 -94 -4 -148 -29
-133 -62 -221 -220 -202 -366 4 -33 3 -50 -4 -49 -6 1 -20 1 -30 0 -18 -1 -17
-4 7 -29 51 -53 27 -74 -83 -70 -25 1 -60 -2 -78 -6 -29 -7 -33 -11 -28 -32 4
-15 2 -24 -5 -24 -7 0 -9 -9 -6 -22 9 -31 -18 -75 -62 -103 -30 -18 -38 -29
-34 -44 3 -11 13 -23 23 -26 20 -6 33 -52 16 -59 -8 -3 -8 -7 0 -13 18 -12 1
-149 -25 -208 -12 -28 -32 -77 -43 -110 -12 -33 -36 -90 -55 -127 -18 -36 -33
-72 -33 -78 0 -19 -63 -143 -82 -162 -10 -10 -18 -21 -18 -26 0 -12 -61 -35
-69 -26 -4 5 -13 28 -20 52 -10 37 -31 59 -31 32 0 -5 -7 -10 -15 -10 -8 0
-19 -15 -24 -32 -5 -18 -10 -26 -10 -17 -1 11 -11 16 -31 16 -29 0 -41 -19
-20 -32 20 -12 9 -21 -22 -19 -22 2 -38 11 -52 31 -12 15 -29 36 -38 45 -10
10 -18 23 -18 28 0 6 -5 10 -11 10 -5 0 -8 4 -5 9 3 5 -1 14 -8 20 -19 16 -16
-10 4 -35 14 -16 13 -16 -5 -7 -19 11 -75 68 -75 77 0 3 -32 38 -72 78 -39 40
-63 62 -52 48 10 -14 21 -27 24 -30 11 -10 67 -85 75 -100 4 -8 -20 14 -54 50
l-62 65 37 -60 c32 -53 33 -57 10 -36 -29 27 -35 18 -11 -16 25 -35 -1 -36
-27 -2 -13 18 -52 62 -88 98 -122 125 -180 165 -110 76 17 -21 30 -41 30 -46
0 -4 27 -29 60 -55 32 -25 67 -58 76 -73 21 -32 -74 53 -165 148 -35 36 -60
60 -55 52 5 -11 3 -13 -10 -8 -13 5 -12 0 7 -26 43 -58 40 -63 -7 -12 -25 28
-45 55 -46 60 0 6 -39 49 -86 95 -48 47 -84 79 -80 73 4 -7 2 -13 -4 -13 -6 0
-10 -8 -9 -17 3 -39 0 -46 -16 -33 -13 11 -14 10 -9 -4 8 -20 1 -20 -35 -1
-16 8 -32 11 -36 7 -5 -4 -5 1 -2 10 3 9 1 18 -5 20 -6 2 -11 16 -11 31 0 15
-3 25 -7 22 -4 -2 -23 1 -44 7 -24 8 -32 14 -24 19 9 6 8 10 -5 15 -38 14
-218 -55 -265 -102 -7 -8 -18 -14 -23 -14 -5 0 -9 -5 -9 -11 0 -6 17 0 38 12
20 13 48 29 62 37 l25 14 -22 -20 c-12 -11 -19 -23 -15 -27 4 -5 1 -5 -5 -1
-7 4 -13 3 -13 -1 0 -5 -12 -14 -27 -21 -45 -20 -93 -49 -112 -66 -10 -9 -25
-16 -34 -16 -24 0 -76 -70 -171 -229 -77 -129 -92 -163 -140 -315 -61 -194
-69 -236 -54 -316 l10 -58 84 -21 c47 -12 126 -40 175 -62 50 -22 92 -39 95
-36 2 2 8 37 13 77 5 40 13 76 18 80 4 4 35 -1 67 -11 33 -11 62 -15 65 -11 3
5 41 8 84 8 61 -1 81 3 90 15 7 9 18 14 24 12 16 -6 44 22 45 44 2 31 -22 89
-45 111 -31 29 -97 42 -167 32 -51 -7 -100 -24 -100 -34 0 -2 10 -2 23 0 22 4
22 4 -1 -6 -13 -5 -28 -7 -33 -4 -6 3 -16 1 -24 -6 -8 -7 -15 -7 -19 -1 -12
18 14 61 51 85 122 78 250 223 312 351 40 83 87 151 124 179 l34 26 44 -19
c50 -21 58 -29 123 -123 26 -38 46 -78 46 -93 0 -14 4 -24 9 -21 4 3 8 -11 8
-32 0 -58 13 -109 34 -128 10 -9 19 -23 19 -31 0 -7 7 -13 15 -13 8 0 15 -4
15 -10 0 -6 9 -19 20 -30 40 -40 28 -47 -92 -53 -142 -7 -212 -27 -237 -68
-16 -27 -17 -35 -5 -85 11 -51 37 -104 50 -104 2 0 17 8 31 17 14 10 39 16 55
14 20 -2 28 2 28 14 0 13 5 12 31 -7 24 -18 44 -23 89 -23 54 0 70 -9 45 -27
-20 -14 7 -21 48 -12 62 15 93 1 101 -41 8 -43 -3 -132 -20 -167 -17 -33 -74
-118 -90 -135 -7 -7 -21 -24 -32 -38 -19 -24 -21 -24 -48 -10 -32 16 -90 20
-98 6 -3 -4 -52 -11 -108 -14 -169 -10 -204 -14 -226 -26 -25 -13 -72 -15 -72
-2 0 5 -8 8 -18 6 -9 -2 -21 -4 -25 -4 -5 -1 -7 -11 -5 -23 2 -19 9 -23 38
-21 130 5 316 0 325 -9 14 -14 -49 -41 -120 -51 -81 -12 -93 -25 -50 -53 20
-13 43 -16 113 -12 129 7 184 41 174 109 -2 13 7 18 35 21 21 3 46 8 56 12 34
16 19 -39 -26 -95 -24 -30 -53 -72 -64 -94 -11 -22 -39 -53 -62 -69 -36 -24
-58 -30 -150 -39 -104 -10 -110 -9 -157 14 -57 27 -94 64 -94 93 0 47 -41 180
-63 206 l-24 28 -17 -27 c-17 -25 -17 -25 -13 -3 5 20 3 21 -11 10 -12 -10
-14 -10 -8 0 4 6 3 12 -2 12 -5 0 -15 14 -22 31 -23 54 -85 142 -136 192 -73
72 -141 113 -245 149 -88 30 -102 32 -219 31 -104 -1 -140 -5 -215 -27 -169
-50 -294 -128 -371 -229 -24 -33 -44 -55 -44 -49 0 10 44 71 82 113 48 54 213
152 290 172 l23 7 -22 15 c-13 9 -24 31 -28 56 -4 23 -16 50 -26 60 -10 10
-19 26 -19 35 0 12 -7 14 -29 9 -15 -3 -50 -1 -76 6 -39 10 -49 9 -56 -2 -7
-11 -9 -11 -9 -1 0 7 -4 10 -10 7 -5 -3 -10 -1 -10 4 0 6 4 11 8 11 5 0 14 17
20 37 10 32 9 41 -8 68 -11 17 -31 37 -44 43 -24 11 -25 10 -28 -30 l-3 -40
-47 68 c-26 38 -60 82 -77 98 l-31 29 1 -223 0 -223 67 5 67 5 -67 -16 -68
-15 1 -533 c0 -589 -5 -541 63 -557 24 -6 28 -4 22 10 -6 15 104 -81 112 -97
3 -7 -109 -29 -146 -29 -54 0 -52 8 -52 -269 0 -254 0 -258 22 -278 13 -11 45
-45 72 -74 46 -49 50 -51 62 -34 8 10 14 28 14 39 0 12 3 32 5 46 5 21 4 22
-3 5 -7 -14 -9 3 -9 53 0 63 3 77 23 99 13 14 28 48 34 76 15 77 39 270 34
278 -2 4 0 10 6 14 6 4 8 10 5 15 -3 5 27 -6 67 -25 40 -18 98 -40 129 -49 64
-19 229 -36 229 -24 0 4 32 8 70 8 40 0 70 -4 70 -10 0 -5 -11 -10 -23 -10
-13 0 -27 -3 -31 -7 -4 -4 -26 -7 -49 -6 -23 1 -34 -1 -24 -3 9 -3 17 -11 17
-19 0 -8 7 -11 18 -8 18 4 19 -8 25 -193 4 -108 7 -232 7 -275 0 -75 1 -79 28
-93 15 -8 43 -28 62 -45 19 -17 38 -31 42 -31 4 0 12 -10 19 -21 9 -17 8 -20
-2 -14 -8 6 -11 4 -7 -7 8 -21 -61 -51 -96 -42 -36 9 -41 22 -20 45 17 19 17
20 -2 13 -10 -4 -29 -16 -41 -27 -21 -19 -26 -19 -65 -7 -24 8 -66 24 -95 36
-44 19 -52 20 -57 7 -11 -27 -6 -58 12 -79 15 -18 29 -21 89 -22 59 -1 82 -6
134 -32 34 -18 84 -38 110 -46 26 -8 49 -21 52 -29 3 -7 -6 -27 -22 -43 -49
-53 -154 -67 -234 -32 l-46 21 -50 -28 c-28 -15 -49 -28 -47 -30 2 -2 36 -10
77 -17 41 -8 78 -21 85 -30 6 -9 20 -16 31 -16 11 0 37 -13 57 -29 l37 -30
-38 -25 c-43 -30 -64 -32 -97 -10 -22 14 -27 13 -62 -5 -21 -12 -44 -21 -51
-21 -6 0 -18 -8 -25 -18 -7 -11 -20 -21 -28 -24 -16 -5 51 -28 83 -28 24 0 57
-18 57 -31 0 -5 -15 -24 -34 -42 -95 -91 -118 -101 -222 -102 -50 0 -50 0 -28
-18 13 -10 44 -27 69 -38 43 -19 60 -39 33 -39 -23 0 -109 -102 -102 -122 7
-23 -21 -51 -74 -71 -49 -19 -82 -22 -82 -6 0 6 -9 8 -20 4 -20 -6 -25 8 -23
63 1 20 45 80 68 92 15 8 15 9 2 5 -12 -3 -20 3 -26 18 -5 12 -5 24 0 27 5 3
10 27 12 52 1 26 6 50 10 54 4 4 7 24 7 44 0 30 9 94 25 170 2 8 4 24 4 35 1
17 4 15 21 -10 l20 -30 0 25 c0 14 -7 36 -16 49 -16 22 -15 25 15 68 22 31 33
60 37 95 6 67 16 82 68 113 39 23 45 32 60 88 32 120 42 107 -86 107 -62 0
-142 5 -178 10 -36 6 -85 12 -110 15 l-45 5 48 -15 c26 -9 47 -19 47 -24 0
-14 -58 -34 -76 -27 -9 4 -32 1 -50 -6 l-34 -12 0 -94 0 -94 28 6 c68 15 122
18 122 8 0 -7 -34 -27 -75 -47 -72 -34 -75 -36 -75 -70 0 -31 3 -35 28 -36 15
0 36 -2 47 -4 27 -5 100 31 124 61 10 13 24 24 29 24 17 0 34 -68 27 -108 -8
-48 -10 -51 -70 -92 -62 -43 -88 -56 -142 -70 l-43 -11 0 -224 c0 -124 4 -225
8 -225 5 0 16 8 25 18 12 13 26 17 47 14 16 -2 30 -6 30 -8 0 -17 -49 -89 -76
-113 l-34 -30 0 -161 c0 -134 2 -160 15 -160 8 0 32 -24 53 -53 52 -70 103
-113 166 -141 75 -33 98 -96 100 -281 l2 -110 47 -68 c26 -38 47 -72 47 -76 0
-4 -8 -17 -18 -27 -19 -22 -267 -217 -355 -279 l-56 -40 -1 -154 c0 -144 1
-153 17 -140 33 26 308 263 395 341 48 43 94 78 102 78 14 0 26 -29 26 -68 0
-12 8 -29 18 -37 14 -13 17 -30 16 -89 -2 -81 -6 -97 -39 -171 -25 -55 -93
-234 -106 -278 -9 -33 -119 -197 -131 -197 -4 0 -8 -4 -8 -10 0 -13 -134 -144
-187 -183 -24 -17 -43 -34 -43 -39 0 -4 825 -8 1833 -8 l1832 0 -3 147 c-4
164 8 291 43 463 13 64 19 116 14 118 -5 2 -9 10 -9 18 0 9 -4 13 -10 9 -5 -3
-6 -13 -3 -23 4 -13 2 -13 -10 3 -11 15 -12 22 -4 27 17 11 24 10 40 -6 12
-13 16 -10 25 22 6 20 20 89 32 152 46 244 144 530 227 657 14 21 16 21 59 6
24 -8 64 -13 89 -11 37 3 46 0 56 -19 7 -12 16 -20 21 -17 4 3 8 -6 8 -20 0
-31 7 -32 40 -6 14 11 32 20 41 20 9 0 22 7 29 15 7 8 21 15 31 15 10 0 21 4
24 10 3 5 33 22 65 37 53 24 61 32 75 72 8 24 15 56 15 70 0 14 5 33 10 41 8
12 10 10 10 -8 0 -13 4 -21 9 -17 11 6 38 9 236 25 77 6 207 12 289 13 l150 2
13 -60 c6 -33 13 -78 13 -100 2 -62 18 -11 21 65 1 33 8 68 15 78 11 15 14 13
28 -18 8 -19 20 -54 26 -77 6 -23 17 -49 25 -57 8 -8 15 -21 16 -28 1 -7 5 4
10 25 5 21 16 46 25 55 17 17 17 14 0 -133 l-6 -50 16 55 c9 30 19 69 23 85 9
42 25 28 24 -20 l-2 -40 11 42 c6 24 14 43 17 43 8 0 31 -82 31 -113 0 -18 2
-19 10 -7 5 8 10 30 10 49 0 46 9 35 16 -20 8 -58 10 -58 18 -1 9 68 31 65 45
-6 6 -31 11 -70 11 -88 0 -45 17 -52 29 -12 7 24 9 27 10 11 1 -12 6 -23 12
-25 6 -2 12 -17 13 -33 2 -17 8 -68 14 -115 6 -47 14 -159 17 -250 9 -238 13
-291 24 -327 5 -18 7 -41 4 -53 -3 -11 0 -27 7 -35 7 -9 14 -71 17 -169 10
-254 23 -166 20 127 -1 150 0 291 4 315 3 23 2 45 -3 48 -5 3 -8 77 -6 165 1
120 5 162 15 171 7 6 16 8 20 5 12 -13 3 -110 -12 -127 -23 -25 -18 -33 7 -10
15 14 25 17 32 9 8 -7 6 -13 -6 -20 -13 -7 -14 -15 -8 -37 5 -15 15 -58 22
-96 8 -41 19 -71 27 -74 12 -4 13 11 7 87 -7 95 -3 114 12 58 7 -22 8 -6 4 54
-2 48 -2 99 2 115 6 24 9 25 22 12 16 -16 27 -78 44 -263 7 -66 23 -187 36
-270 14 -82 28 -186 30 -230 10 -148 10 -370 1 -382 -6 -8 -3 -18 7 -28 10
-11 16 -34 16 -66 0 -43 3 -49 21 -49 15 0 19 5 15 18 -5 16 -11 377 -6 397 1
6 1 15 0 20 -6 22 -31 176 -45 275 -8 58 -18 121 -23 140 -5 19 -7 52 -4 74 2
21 1 36 -4 33 -5 -3 -10 10 -11 29 -2 19 -4 37 -4 41 -4 23 4 114 8 94 4 -19
7 -21 14 -10 5 9 9 -14 9 -63 0 -48 4 -78 11 -78 5 0 7 -5 4 -11 -4 -6 0 -16
8 -22 9 -7 17 -34 20 -65 3 -30 10 -59 16 -65 14 -14 14 -7 -4 77 -8 38 -12
73 -8 79 3 6 1 7 -5 3 -7 -4 -9 4 -6 26 4 21 -2 53 -15 88 -24 62 -27 85 -9
74 8 -5 9 -2 5 10 -4 10 -7 22 -7 27 0 23 -20 6 -21 -18 l-1 -28 -10 29 c-8
22 -7 30 3 37 11 7 11 13 -4 38 -9 16 -16 35 -14 43 2 7 2 10 0 6 -8 -15 -25
-8 -19 7 3 8 9 23 13 32 5 12 2 15 -10 10 -24 -9 -29 7 -6 21 16 10 19 9 19
-3 0 -8 3 -15 8 -15 4 0 15 -12 25 -28 l17 -27 -6 29 c-5 19 -3 27 3 23 6 -4
14 -19 17 -34 21 -86 23 -108 14 -141 -8 -28 -5 -48 16 -106 14 -39 30 -100
36 -136 6 -36 20 -108 31 -160 36 -165 38 -182 50 -315 6 -72 13 -133 15 -136
2 -4 4 -77 5 -163 l1 -156 1650 0 1650 0 -33 38 c-19 21 -50 58 -69 82 -19 23
-41 49 -49 57 -7 7 -34 42 -59 76 -25 34 -48 64 -51 67 -9 7 -134 151 -146
168 -5 8 -19 24 -30 36 -35 39 -61 80 -67 103 -3 12 0 59 8 105 26 158 34 213
40 276 4 34 10 64 14 67 10 6 35 -23 152 -180 58 -77 111 -147 119 -155 13
-13 288 -363 376 -478 18 -24 30 -49 26 -58 -3 -8 -1 -14 5 -12 9 3 72 -58 72
-69 0 -9 -46 22 -58 39 -7 10 -20 18 -28 18 -8 0 -13 4 -10 9 6 9 -51 74 -66
77 -5 1 -12 2 -17 3 -4 0 -20 13 -35 27 -15 16 -40 28 -61 31 -32 3 -35 1 -35
-22 0 -16 18 -48 46 -83 36 -44 43 -58 30 -60 -11 -3 -16 -14 -16 -43 0 -21
-4 -39 -10 -39 -6 0 -1 -9 10 -20 11 -11 20 -29 20 -40 0 -19 7 -20 260 -20
l260 0 0 507 0 508 -39 35 c-37 34 -92 84 -290 261 -52 46 -117 104 -146 129
-281 244 -474 431 -500 487 -22 45 -14 133 15 173 19 26 19 31 5 70 -9 24 -16
89 -18 155 l-3 114 38 25 39 26 33 -33 c28 -27 280 -263 312 -292 6 -5 26 -24
45 -40 190 -169 306 -274 384 -350 28 -27 68 -66 88 -84 l37 -35 0 126 0 127
-72 54 c-40 29 -104 75 -143 102 -38 27 -107 76 -152 110 -46 33 -106 76 -134
95 -28 19 -56 40 -62 46 -7 5 -27 19 -44 29 -18 11 -33 23 -33 27 0 4 -6 8
-12 8 -7 0 -29 14 -48 30 -19 17 -50 37 -67 45 -18 9 -33 20 -33 25 0 5 -7 6
-17 3 -11 -4 -14 -3 -9 5 4 8 2 10 -7 6 -8 -3 -17 1 -20 9 -3 9 23 43 67 88
89 92 119 151 120 236 1 35 2 63 4 63 1 0 16 -16 33 -35 17 -19 37 -35 43 -35
16 0 60 -47 83 -88 10 -19 22 -33 27 -32 5 1 14 -7 20 -18 6 -10 21 -34 33
-52 20 -31 21 -36 7 -51 -15 -16 -14 -21 11 -53 15 -19 24 -40 20 -46 -9 -15
20 -56 44 -63 12 -3 21 -1 21 4 0 6 10 1 22 -11 12 -11 26 -20 31 -20 5 0 7
-7 3 -15 -3 -8 -1 -15 5 -15 5 0 13 -8 16 -17 8 -22 74 -88 125 -126 20 -15
42 -33 50 -40 7 -7 25 -21 41 -31 l27 -18 0 443 0 444 -58 28 c-234 114 -414
197 -431 197 -11 0 -26 7 -35 15 -8 8 -19 15 -25 15 -6 0 -11 5 -11 10 0 6 -6
10 -13 10 -15 0 -116 73 -134 98 -61 78 88 17 417 -170 142 -80 271 -148 282
-148 4 0 8 105 8 234 0 178 -3 236 -12 239 -10 4 -10 6 0 6 9 1 12 57 12 245
l0 243 -187 52 c-104 29 -240 68 -303 87 -63 19 -158 46 -210 61 -106 28 -133
48 -101 74 17 14 19 26 16 89 -4 79 1 91 52 111 34 14 233 12 271 -2 l26 -10
-38 -36 c-26 -25 -57 -41 -99 -53 -95 -25 -147 -50 -147 -69 0 -11 26 -25 88
-47 116 -42 138 -46 197 -34 28 6 82 15 120 22 39 6 75 16 80 23 6 6 44 21 85
33 41 13 92 28 113 34 l37 11 0 138 0 139 -22 -9 c-13 -5 -45 -15 -73 -22 -27
-6 -74 -25 -103 -41 l-53 -30 -116 17 c-107 15 -179 37 -195 59 -7 10 -15 12
-84 20 -56 7 -68 13 -92 46 -19 26 -21 40 -19 129 2 81 5 101 17 102 67 6 232
-14 334 -41 157 -41 180 -49 193 -66 11 -16 9 -19 -25 -31 -20 -7 -44 -13 -53
-13 -25 0 -38 -22 -32 -52 5 -25 9 -28 48 -28 27 0 51 7 68 20 14 11 30 20 36
20 6 0 11 8 11 18 0 23 37 44 71 41 13 -1 39 -1 57 -1 l32 2 0 98 0 99 -102
12 c-57 7 -155 19 -218 27 -63 8 -223 26 -354 39 -131 14 -245 30 -252 36 -23
19 -44 108 -44 186 0 40 3 73 8 73 4 0 16 -17 27 -37 25 -47 99 -122 146 -147
63 -33 101 -18 192 76 92 96 118 132 183 258 l49 95 3 -215 c2 -156 6 -216 15
-222 21 -13 88 -9 116 8 26 15 33 15 109 -5 45 -11 91 -21 102 -21 20 0 20 4
20 644 l0 644 -30 -15 c-63 -31 -88 -25 -64 16 23 38 54 57 65 39 6 -9 9 -6
10 12 0 23 1 23 9 5 6 -15 9 -9 9 27 1 42 -1 46 -19 41 -11 -3 -25 -14 -30
-23 -29 -55 -85 -69 -96 -24 -7 28 12 49 56 60 41 11 60 34 60 72 0 20 -3 32
-6 29 -4 -3 -15 -2 -25 4 -15 7 -22 4 -34 -15 -9 -14 -22 -23 -29 -20 -8 3
-16 -2 -20 -11 -3 -9 -10 -13 -16 -10 -5 3 -10 -2 -11 -12 0 -12 -4 -9 -11 10
-14 40 -2 74 33 92 l30 16 -7 89 -6 88 45 20 c71 32 87 53 87 117 0 30 -4 55
-10 55 -5 0 -34 -11 -64 -24 l-55 -24 -5 41 c-3 23 -8 103 -11 177 -10 220
-15 257 -44 325 -14 31 -18 71 -20 184 -2 178 -8 190 -81 153z m-3292 -590
c27 -3 42 -9 42 -18 0 -8 5 -14 10 -14 32 0 -6 -115 -49 -147 -19 -15 -51 -17
-52 -3 -2 13 -3 16 -19 70 -7 25 -12 55 -11 68 1 12 -2 22 -7 22 -6 0 -12 6
-15 14 -4 10 0 12 15 8 16 -4 19 -2 13 8 -6 10 -4 11 11 5 10 -5 38 -10 62
-13z m-3296 -311 c-11 -6 -11 -17 -4 -44 8 -27 7 -40 -4 -56 -12 -17 -12 -24
-2 -41 7 -11 15 -20 18 -20 4 0 32 -37 65 -83 47 -67 62 -83 79 -80 17 4 26
-4 39 -32 10 -20 15 -40 12 -45 -2 -4 8 -13 24 -20 16 -6 51 -41 77 -77 66
-89 123 -145 187 -181 57 -32 86 -63 148 -157 21 -33 61 -91 88 -130 35 -48
46 -72 38 -77 -7 -4 -7 -8 -2 -9 6 0 1 -4 -10 -9 -17 -7 -15 -9 11 -9 39 -1
56 -22 117 -146 22 -43 24 -112 6 -177 -11 -42 -29 -51 -29 -15 0 12 -4 28 -9
36 -6 9 -9 -20 -8 -75 3 -143 -54 -291 -128 -331 -11 -7 -17 -15 -13 -19 16
-15 78 48 108 111 17 36 33 65 35 65 2 0 0 -15 -5 -32 -13 -48 -30 -329 -30
-484 l0 -132 -50 -12 c-27 -7 -50 -16 -50 -21 0 -4 19 -2 41 6 60 21 62 20 57
-29 -5 -45 -30 -82 -47 -72 -7 5 -71 -47 -71 -58 0 -1 9 -2 20 -2 12 0 25 11
32 27 8 18 17 25 30 21 22 -5 24 -38 3 -46 -9 -3 -15 -11 -14 -18 4 -33 -1
-40 -26 -34 -14 4 -25 2 -25 -4 0 -5 8 -10 18 -10 14 -1 13 -4 -8 -22 l-25
-21 25 8 c22 6 23 5 9 -6 -21 -17 -33 -66 -19 -74 6 -4 10 -14 9 -23 -3 -36 2
-61 14 -74 26 -26 50 -128 27 -113 -5 3 -10 2 -10 -3 0 -15 -19 -20 -187 -43
-169 -23 -379 -22 -456 1 -32 9 -36 14 -27 30 14 26 14 25 -27 26 -20 0 -39 6
-41 12 -2 7 -8 10 -13 6 -5 -3 -9 -1 -9 5 0 5 20 9 45 9 31 0 43 -3 39 -11 -5
-9 -4 -9 5 -1 9 8 9 23 2 54 -5 23 -9 154 -8 290 1 137 -1 243 -5 237 -4 -7
-8 -42 -8 -78 0 -36 -3 -94 -7 -128 -6 -59 -7 -62 -30 -58 -12 2 -23 0 -23 -5
0 -5 -4 -6 -10 -3 -5 3 -10 1 -10 -4 0 -11 11 -14 46 -13 16 1 23 -6 27 -26 3
-15 3 -30 1 -33 -2 -4 -29 -7 -61 -8 -69 -1 -96 -9 -90 -24 3 -7 10 -11 16 -9
6 1 11 -2 11 -8 0 -5 7 -10 15 -10 8 0 15 5 15 10 0 6 10 8 24 4 13 -3 33 -1
45 5 24 13 26 7 35 -95 l5 -61 -39 11 c-22 5 -40 16 -40 23 0 7 -8 13 -17 13
-15 0 -16 -2 -3 -10 24 -15 4 -23 -32 -11 -20 6 -47 7 -68 2 -39 -9 -100 11
-99 32 0 6 25 32 55 57 48 40 54 48 49 74 -3 16 -5 41 -5 57 0 32 -15 37 -45
15 -19 -14 -19 -15 -2 -33 9 -11 17 -22 17 -25 0 -11 -55 -16 -67 -6 -10 8
-13 6 -13 -7 0 -14 -6 -16 -32 -12 -18 2 -48 -2 -67 -9 -45 -19 -54 -18 -46 6
4 11 2 20 -4 20 -6 0 -11 7 -11 15 0 8 8 15 19 15 19 0 45 23 36 32 -3 3 9 20
27 39 18 18 31 42 30 51 -2 12 3 18 15 18 13 0 14 3 5 8 -9 7 -7 13 9 28 12
10 24 17 28 14 3 -3 7 5 9 18 2 15 -2 22 -12 22 -23 0 -20 13 9 44 26 28 35
89 15 101 -6 4 -8 10 -5 15 3 5 1 12 -5 15 -8 5 -7 11 1 21 9 11 8 14 -5 14
-9 0 -16 7 -16 16 0 10 6 14 15 10 20 -7 19 5 -2 48 -13 25 -25 36 -40 36 -23
0 -32 15 -14 22 6 2 5 25 -1 57 -5 30 -6 57 -1 60 4 3 9 29 11 56 2 28 10 95
19 150 9 55 16 108 17 118 0 9 4 17 8 17 4 0 8 18 8 40 0 22 4 40 9 40 5 0 15
23 22 50 9 35 17 49 26 45 8 -2 11 0 8 5 -3 6 0 13 9 16 8 3 12 12 9 20 -3 8
-1 14 3 14 5 0 10 32 11 72 1 53 6 74 17 80 9 5 16 16 16 23 0 8 7 15 15 15 8
0 15 -5 15 -11 0 -5 -4 -7 -10 -4 -5 3 -10 1 -10 -5 0 -7 7 -9 16 -6 9 3 23 6
32 7 14 0 13 2 -3 9 -17 7 -17 9 -2 9 9 1 17 8 17 16 0 18 11 19 29 3 11 -11
13 -6 8 27 -11 70 12 13 32 -82 29 -134 24 -84 -9 104 -40 227 -78 390 -79
341 -1 -43 -20 -52 -22 -10 l-2 27 -4 -27 c-5 -29 -18 -37 -26 -15 -3 7 -6 5
-6 -5 -1 -10 5 -18 12 -18 7 -1 5 -6 -5 -14 -22 -16 -23 -27 -4 -20 8 3 19 -3
25 -15 14 -25 14 -41 1 -21 -6 9 -10 11 -10 3 0 -7 -7 -10 -15 -7 -9 4 -15 0
-15 -10 0 -9 -8 -16 -18 -16 -10 0 -23 -5 -30 -12 -9 -9 -12 -9 -12 2 0 22
-29 -22 -30 -45 -1 -11 -9 5 -20 35 -10 30 -18 49 -19 43 -1 -7 -8 -13 -16
-13 -13 0 -15 9 -10 48 3 26 9 104 15 175 9 115 16 145 71 309 33 100 62 184
64 187 3 2 11 -1 18 -8 12 -9 11 -20 -5 -68 -22 -63 -18 -129 7 -119 8 3 16 0
19 -7 3 -7 4 4 2 23 -4 38 18 136 35 156 8 9 6 30 -6 70 -9 31 -14 58 -11 61
3 3 8 -6 12 -21 3 -14 13 -26 22 -26 13 0 13 2 -1 18 -25 27 -21 42 11 42 18
0 23 -3 14 -9z m4922 -842 c32 27 158 -55 191 -126 16 -32 15 -35 -8 -63 -14
-16 -31 -43 -38 -60 -8 -16 -18 -30 -24 -30 -5 0 -23 -28 -40 -63 -16 -34 -38
-68 -48 -75 -10 -8 -26 -23 -36 -34 -18 -19 -22 -19 -76 -5 -32 8 -66 12 -75
10 -10 -3 -55 3 -100 13 -70 15 -91 15 -147 5 -81 -15 -110 -28 -94 -44 8 -8
5 -14 -11 -24 -13 -7 -17 -12 -10 -13 9 0 11 -7 7 -20 -9 -27 19 -70 45 -70
10 0 21 -4 24 -9 3 -5 21 -12 40 -15 19 -4 46 -16 61 -28 45 -35 103 -35 167
1 30 17 62 31 71 31 8 0 19 9 22 21 8 25 50 42 74 30 25 -14 37 -44 65 -161
23 -94 24 -107 11 -127 -25 -38 -61 -56 -98 -49 -37 7 -97 -2 -97 -15 0 -4 16
-16 35 -25 19 -9 35 -20 35 -25 0 -5 7 -9 15 -9 8 0 15 -4 15 -10 0 -5 11 -10
25 -10 14 0 42 -7 63 -16 33 -13 35 -16 19 -26 -32 -17 -225 -30 -262 -17 -35
13 -76 7 -97 -15 -8 -7 -24 -17 -36 -20 -22 -7 -31 -4 -130 49 -13 7 -36 24
-52 38 -20 18 -31 22 -34 14 -4 -7 -4 -2 -2 11 2 12 0 22 -5 22 -5 0 -9 6 -9
14 0 8 -7 17 -16 20 -11 4 -14 13 -11 27 5 19 -9 108 -33 204 -19 80 -2 213
30 223 5 2 10 10 10 18 0 8 5 15 10 15 6 1 14 2 18 3 12 2 81 74 76 79 -3 2 2
10 11 17 8 7 15 21 15 32 0 11 9 22 20 25 11 3 18 9 15 13 -10 17 74 86 150
123 33 16 74 39 90 51 17 12 42 27 56 34 14 8 39 26 55 41 16 16 31 24 32 19
2 -5 9 -5 16 1z m-1994 -46 c0 -31 -166 -126 -207 -119 -72 14 -49 64 37 80
19 4 55 17 80 31 55 29 90 32 90 8z m3480 -90 c-42 -137 -113 -261 -151 -263
-8 0 -29 80 -29 107 0 12 33 45 85 87 52 41 87 77 91 92 4 14 9 23 11 20 3 -3
0 -22 -7 -43z m-4705 -43 c3 -5 12 -7 20 -3 9 3 15 -1 15 -8 0 -10 3 -11 8 -3
11 18 84 -20 123 -64 52 -57 81 -129 83 -206 2 -64 4 -68 45 -110 l43 -43 -89
-6 c-48 -3 -101 -8 -116 -10 -40 -6 -79 -38 -90 -73 -11 -39 -1 -166 18 -210
9 -21 15 -67 15 -108 0 -73 6 -90 28 -92 28 -2 32 -5 32 -20 0 -12 -5 -14 -17
-9 -29 13 -51 8 -86 -19 -37 -28 -57 -33 -58 -13 0 8 -2 8 -5 1 -3 -6 -16 -9
-30 -6 -17 3 -31 -2 -43 -15 -18 -19 -18 -20 1 -32 12 -7 17 -8 13 -2 -3 6 1
11 10 11 10 0 15 -6 12 -13 -4 -10 15 -19 59 -32 45 -13 63 -23 60 -32 -3 -7
0 -12 6 -10 5 1 12 -6 13 -15 4 -22 -24 -32 -95 -35 -30 -1 -81 -3 -114 -4
-48 -2 -61 1 -75 18 -40 50 -94 30 -82 -30 6 -24 12 -31 27 -29 10 2 26 4 34
5 35 4 320 -16 325 -22 2 -5 -2 -16 -9 -26 -10 -13 -30 -20 -75 -23 -33 -2
-61 -8 -61 -13 0 -5 7 -9 15 -9 20 0 19 -10 -2 -26 -30 -21 -5 -29 90 -29 51
0 95 -4 99 -9 9 -13 -12 -56 -43 -89 -58 -62 -200 -60 -284 3 -30 22 -115 123
-115 136 0 14 -45 56 -52 49 -3 -3 -26 6 -52 20 -26 14 -52 23 -58 19 -6 -4
-8 -3 -5 3 4 6 0 17 -9 24 -26 22 -38 60 -54 183 -6 38 -22 122 -36 188 -24
105 -25 125 -15 175 11 59 60 173 73 173 5 0 8 6 8 13 0 21 30 79 56 107 12
14 48 72 78 129 39 73 71 118 108 152 29 26 54 46 56 44 2 -2 23 6 45 18 23
12 62 24 87 28 25 3 48 7 52 8 4 0 9 -3 13 -9z m1070 -230 c-10 -11 -13 -20
-7 -20 7 0 3 -9 -9 -21 -12 -12 -19 -29 -16 -40 3 -10 1 -19 -5 -19 -5 0 -7
-4 -3 -9 3 -5 1 -12 -5 -16 -6 -3 -11 4 -11 17 -1 15 -3 17 -6 7 -2 -10 -11
-15 -21 -12 -13 3 -23 -12 -43 -66 -15 -39 -23 -69 -19 -66 5 3 3 -8 -3 -25
-6 -16 -17 -30 -23 -30 -7 0 -17 -13 -22 -29 -7 -20 -16 -29 -29 -27 -31 5
-25 28 30 111 72 110 93 146 101 178 4 18 23 38 54 57 56 35 61 37 37 10z
m2465 -294 l65 -1 -3 -60 c-5 -123 -65 -217 -146 -230 -54 -10 -66 6 -72 96
-3 41 -9 92 -14 114 -9 41 -5 80 12 101 6 9 20 8 51 -3 23 -8 71 -16 107 -17z
m-7926 -31 c17 -14 48 -42 69 -62 21 -21 46 -41 55 -44 14 -5 11 -10 -15 -25
-18 -11 -33 -22 -33 -26 0 -5 -11 -8 -24 -8 -30 0 -41 -14 -23 -28 19 -16 102
9 85 26 -9 9 -9 12 -1 12 7 0 15 -4 18 -10 3 -5 19 -10 35 -10 60 0 411 -210
402 -241 -1 -5 2 -9 8 -9 5 0 10 -7 10 -15 0 -13 -9 -15 -47 -10 -40 6 -52 3
-70 -14 -12 -12 -35 -21 -51 -21 -20 0 -32 -7 -42 -25 -12 -22 -11 -26 11 -45
24 -20 24 -20 5 -35 -23 -17 -54 -19 -90 -5 -21 7 -26 6 -26 -5 0 -19 -36 -39
-45 -25 -4 6 -11 8 -16 5 -5 -4 -9 -1 -9 4 0 6 -7 11 -15 11 -10 0 -15 -7 -13
-17 2 -14 -3 -17 -24 -15 -16 2 -28 -1 -28 -6 0 -11 57 -36 78 -35 6 0 12 -7
12 -18 0 -10 5 -21 11 -25 8 -5 8 -8 0 -14 -17 -10 -4 -36 27 -56 35 -23 91
-19 109 6 15 21 33 27 33 11 0 -5 -7 -16 -15 -25 -19 -19 -19 -30 -1 -23 10 4
13 1 9 -9 -3 -7 -11 -14 -19 -14 -8 0 -14 -4 -14 -9 0 -17 29 -33 49 -26 10 3
22 1 25 -4 7 -11 91 -9 102 2 4 4 18 7 31 7 16 0 23 -6 23 -19 0 -31 16 -33
30 -3 49 105 62 152 69 252 l8 105 1 -80 c3 -156 -53 -297 -166 -416 -149
-159 -311 -217 -569 -207 -179 8 -296 55 -428 171 -52 45 -135 158 -135 181 1
6 9 -4 18 -22 42 -78 184 -200 294 -252 105 -50 191 -63 352 -57 153 6 201 17
299 69 66 35 199 154 223 199 15 31 3 49 -20 29 -11 -8 -15 -8 -19 2 -3 8 -6
6 -6 -6 -1 -14 -6 -17 -25 -12 -15 4 -26 1 -28 -6 -3 -7 -20 -13 -39 -15 -73
-6 -148 -29 -150 -48 -1 -5 -2 -19 -3 -30 -1 -16 -8 -19 -51 -18 -27 0 -56 -4
-63 -9 -9 -8 -23 -3 -50 16 -21 14 -45 26 -53 26 -24 0 -110 -36 -119 -49 -4
-7 -16 -12 -26 -11 -47 5 -83 -2 -104 -20 -13 -11 -37 -20 -56 -20 -18 0 -34
-5 -36 -11 -13 -40 -175 83 -238 181 -32 50 -36 75 -8 46 12 -11 18 -12 27 -3
9 9 11 8 5 -7 -5 -13 -4 -17 4 -12 7 4 21 9 31 11 11 2 32 12 46 21 25 16 26
19 9 25 -17 7 -17 8 -2 8 13 1 16 6 9 22 -9 25 21 64 54 70 13 3 20 13 20 29
1 18 6 25 19 23 21 -1 66 35 66 54 0 7 6 13 13 13 21 0 48 35 42 52 -4 9 1 18
9 21 9 4 16 1 16 -6 1 -7 8 -3 18 8 9 11 24 20 32 20 9 0 14 7 12 18 -2 9 2
17 8 17 5 0 10 -4 10 -10 0 -5 5 -10 11 -10 5 0 8 4 5 8 -2 4 -1 14 5 22 7 13
9 12 9 -3 0 -15 3 -15 20 -5 18 12 18 13 -12 32 -20 13 -26 22 -18 24 12 4
-113 71 -134 72 -5 0 -17 6 -25 13 -9 8 -38 20 -66 27 -30 8 -71 31 -103 57
-29 24 -59 43 -66 43 -8 0 -29 -23 -47 -51 -39 -61 -48 -53 -19 15 11 26 18
51 15 56 -9 15 42 76 105 124 75 56 166 101 248 121 82 19 100 18 136 -10z
m6663 -21 c12 -3 20 -11 18 -17 -2 -7 -9 -33 -15 -59 -7 -26 -16 -45 -21 -42
-5 3 -9 -6 -9 -19 0 -23 41 -72 52 -62 3 3 8 -1 11 -10 4 -8 1 -15 -6 -15 -7
-1 6 -9 27 -19 36 -17 44 -18 85 -4 25 8 54 17 64 20 10 3 17 0 17 -8 0 -11 3
-11 10 1 8 11 9 7 4 -15 -4 -16 -11 -31 -16 -33 -10 -4 -11 -69 0 -75 6 -4 7
-38 3 -79 -2 -13 -41 -9 -41 5 0 9 -3 8 -9 -2 -5 -7 -30 -16 -55 -18 -26 -3
-45 -10 -43 -16 5 -16 99 -40 117 -30 8 5 37 9 63 7 42 -2 54 3 97 37 27 22
58 54 67 72 l18 32 3 -50 c2 -27 9 -57 16 -65 8 -8 22 -33 32 -55 10 -22 34
-60 54 -83 19 -24 34 -48 33 -53 -2 -5 2 -9 8 -9 6 0 21 -13 35 -29 18 -22 39
-33 82 -42 31 -6 71 -19 87 -28 47 -25 406 -23 492 4 50 15 62 23 58 36 -8 24
17 30 41 10 28 -23 74 -92 74 -113 0 -22 12 -29 30 -18 13 8 13 14 -3 41 -17
30 -17 32 0 45 10 7 26 14 36 14 9 0 17 4 17 10 0 5 9 2 20 -8 11 -9 16 -18
10 -20 -21 -7 2 -22 25 -16 16 4 30 0 41 -11 11 -11 26 -14 48 -11 24 5 27 4
11 -3 -14 -7 -15 -10 -5 -10 8 -1 25 -16 37 -34 13 -18 32 -43 43 -55 11 -12
21 -32 22 -46 1 -13 6 -22 11 -19 4 2 5 -7 2 -20 -4 -14 -2 -33 3 -44 7 -13 6
-24 -5 -38 -15 -20 -15 -20 -10 3 3 14 1 22 -8 22 -8 0 -11 -7 -8 -19 3 -10 0
-22 -6 -25 -5 -4 -8 -13 -4 -21 3 -8 1 -15 -4 -15 -17 0 -7 -212 16 -301 27
-107 42 -221 30 -233 -5 -6 -9 -21 -10 -35 0 -24 -1 -24 -9 -6 -8 21 -8 21
-23 -25 -4 -10 -6 -8 -6 6 -1 12 6 27 14 34 22 18 18 28 -14 35 -40 9 -57 32
-65 89 -3 28 -10 52 -15 55 -4 4 -11 13 -15 21 -9 23 0 -28 17 -91 8 -31 25
-76 37 -100 17 -33 23 -65 25 -129 1 -47 7 -109 13 -137 11 -51 10 -54 -23
-111 -27 -44 -44 -61 -72 -71 -34 -13 -35 -15 -18 -27 16 -12 23 -11 53 6 26
16 37 18 48 9 8 -6 14 -8 14 -3 0 5 5 2 10 -6 8 -12 10 -10 10 10 0 25 1 26
59 20 49 -5 66 -12 107 -45 55 -45 66 -57 56 -66 -20 -17 -163 -77 -152 -64 7
9 10 18 7 21 -7 8 -784 -14 -952 -26 -243 -18 -322 -20 -292 -11 26 9 396 37
560 43 84 3 100 18 20 18 -32 0 -170 5 -308 10 -283 12 -332 7 -381 -40 -48
-44 -99 -110 -123 -158 -12 -23 -26 -40 -31 -37 -6 4 -10 1 -10 -6 0 -8 -12
-10 -37 -6 -25 4 -33 3 -23 -3 21 -13 5 -23 -25 -16 -14 4 -25 13 -25 21 0 9
6 12 17 8 11 -4 14 -3 9 5 -9 15 -51 34 -167 75 -258 93 -415 90 -1064 -19
-398 -67 -472 -78 -785 -119 -160 -20 -302 -44 -324 -53 -39 -16 -80 -65 -154
-184 -18 -29 -44 -66 -58 -83 l-25 -30 7 39 7 39 -64 -6 c-56 -6 -67 -11 -90
-39 -14 -17 -31 -28 -37 -24 -6 3 -24 -5 -40 -19 -16 -14 -35 -25 -41 -25 -6
0 -11 -5 -11 -10 0 -6 -12 -15 -26 -20 -14 -6 -28 -18 -31 -29 -2 -10 -23 -26
-46 -35 -23 -9 -51 -22 -62 -28 -11 -7 -30 -17 -43 -24 -13 -6 -29 -20 -37
-30 -9 -12 -14 -14 -15 -6 0 9 -9 8 -32 -5 -18 -10 -38 -18 -44 -18 -6 0 -18
-6 -27 -14 -14 -11 -20 -9 -42 13 -21 21 -27 23 -31 11 -4 -9 -19 -15 -35 -15
-46 0 -34 -20 14 -22 l42 -1 -45 -6 c-42 -6 -45 -4 -51 19 -4 14 -10 33 -14
43 -8 19 10 24 19 5 3 -7 4 -1 1 14 -4 23 -2 28 15 28 11 0 19 5 17 12 -1 6
15 21 35 32 21 12 38 26 38 33 0 6 8 9 19 6 13 -3 21 2 26 16 3 12 10 19 14
17 4 -3 18 8 30 24 12 17 29 30 38 30 13 0 14 3 5 12 -9 9 -17 7 -35 -10 -31
-30 -52 -30 -36 0 8 14 9 49 5 108 -5 52 -3 112 4 148 6 33 12 79 15 102 3 35
2 40 -11 30 -12 -11 -13 -8 -9 16 2 16 7 55 10 87 3 32 12 72 20 87 19 37 19
37 -11 44 -28 7 -77 36 -71 42 2 2 27 -5 56 -16 l52 -19 10 27 c6 15 16 39 24
55 7 15 10 27 6 27 -5 0 -7 11 -6 25 3 21 -2 26 -35 35 -21 6 -41 18 -45 27
-5 15 -7 15 -16 3 -8 -11 -12 -12 -16 -2 -2 6 -11 12 -20 12 -8 0 -20 6 -26
13 -15 15 -50 124 -43 135 2 4 -2 32 -9 62 -7 30 -14 49 -14 42 -1 -7 -5 -10
-11 -7 -6 4 -9 -18 -8 -57 1 -63 35 -192 68 -258 11 -23 21 -84 29 -175 7 -77
14 -158 16 -180 3 -34 3 -35 -3 -10 -5 17 -6 -51 -4 -149 2 -128 0 -181 -8
-186 -7 -4 -12 -24 -13 -45 -1 -21 -3 -32 -5 -26 -5 15 -82 -67 -82 -87 0 -7
-4 -11 -9 -8 -5 3 -11 0 -14 -7 -3 -8 -30 -26 -60 -40 -30 -15 -75 -43 -100
-62 -66 -50 -68 -49 -71 40 -1 11 -5 26 -9 33 -5 7 -6 19 -3 27 3 8 2 15 -3
15 -5 0 -12 20 -15 45 -4 24 -11 47 -15 49 -4 3 -13 45 -20 93 -6 48 -16 118
-22 154 -20 129 -2 406 30 446 23 30 72 35 134 12 52 -18 52 -18 27 1 -37 28
-252 156 -275 164 -16 5 -21 1 -22 -16 -1 -12 2 -27 7 -33 12 -15 26 -220 14
-212 -5 3 -14 -5 -20 -18 -9 -19 -8 -22 8 -17 16 4 18 -3 18 -74 l-1 -79 -24
30 c-14 17 -27 37 -30 47 -6 17 -34 32 -43 23 -3 -2 -9 -69 -13 -147 -5 -78
-11 -154 -14 -168 -3 -14 -10 -83 -15 -155 -6 -71 -16 -168 -23 -215 -12 -72
-15 -81 -22 -56 -10 38 1 209 20 288 21 90 19 224 -5 317 -18 73 -34 274 -35
452 0 76 2 80 146 374 81 166 107 210 153 258 63 66 149 112 197 105 21 -3 29
0 29 11 0 9 4 22 9 29 10 17 105 39 201 47 171 14 180 15 214 45 18 16 46 34
61 40 36 14 49 -1 84 -92 14 -35 26 -57 28 -51 3 7 -2 27 -10 45 -21 45 -29
88 -18 88 5 0 7 9 4 20 -4 14 -1 20 8 18 8 -2 15 7 17 20 2 12 8 22 13 22 5 0
9 6 9 14 0 27 23 35 58 20 34 -14 132 -108 132 -126 0 -35 66 -58 185 -64 91
-5 186 -20 221 -36 19 -9 24 -19 25 -52 1 -23 5 -90 9 -151 l7 -110 1 156 c2
135 4 158 18 163 14 5 15 4 4 -9 -11 -13 -10 -14 2 -10 9 4 22 0 30 -8 8 -8
30 -14 49 -13 34 2 71 -14 99 -44 15 -17 50 -34 62 -32 4 1 27 -21 52 -49 26
-29 46 -45 46 -36 0 9 -5 19 -10 22 -6 4 -8 16 -5 28 2 12 2 16 -1 9 -5 -10
-9 -10 -20 -1 -20 16 -17 36 5 42 16 4 21 -4 30 -47 6 -28 13 -59 14 -68 2
-18 64 -78 81 -78 6 0 1 7 -11 15 -63 44 -82 137 -36 179 15 14 30 23 35 20 4
-3 8 -1 8 4 0 13 89 20 94 7 3 -5 5 -3 5 6 1 13 11 14 70 8 39 -4 80 -13 93
-20 57 -29 108 -65 108 -76 0 -7 7 -13 15 -13 9 0 28 -20 44 -45 15 -24 31
-41 35 -38 4 4 4 0 0 -10 -3 -10 -1 -17 5 -17 6 0 11 -6 11 -13 0 -12 27 -74
37 -87 2 -2 8 1 12 8 14 23 41 0 83 -71 l41 -70 -11 -141 c-12 -158 1 -283 29
-279 8 1 50 7 94 13 l80 12 23 96 c12 54 43 168 69 255 45 148 49 158 75 165
16 4 27 10 26 14 -2 3 9 16 24 28 44 34 145 38 232 8 38 -13 74 -31 80 -40 12
-20 2 -52 -49 -163 -41 -87 -82 -207 -91 -263 -4 -23 -11 -42 -16 -42 -5 0 -6
-4 -3 -10 3 -5 1 -10 -5 -10 -7 0 -8 -6 -1 -18 6 -11 31 -23 61 -30 77 -18 99
-16 105 11 10 45 16 103 15 154 -1 29 3 60 8 70 6 10 11 32 13 48 2 17 9 39
16 50 7 11 13 27 13 37 0 10 4 18 9 18 5 0 12 24 16 53 4 28 13 55 19 60 8 5
8 9 -1 15 -7 4 -10 20 -7 40 4 22 1 32 -8 32 -9 0 -13 14 -12 45 0 25 -4 49
-9 52 -6 4 -8 -8 -4 -31 4 -25 2 -34 -5 -30 -8 5 -9 -6 -4 -35 3 -24 3 -41 -1
-39 -159 81 -308 141 -443 177 -87 24 -94 25 -83 9 4 -7 9 -21 10 -31 3 -15 0
-16 -17 -7 -29 16 -45 60 -30 84 15 23 21 68 9 60 -5 -3 -9 -1 -9 5 0 5 5 13
10 16 6 3 10 16 10 28 -1 22 -1 21 -14 -2 l-14 -25 -8 35 c-5 19 -9 39 -9 44
0 6 -3 15 -6 20 -4 6 -12 33 -19 62 -8 38 -16 50 -26 46 -24 -9 -16 25 9 38
12 7 25 17 29 23 5 7 8 5 8 -6 0 -9 6 -18 13 -21 8 -3 6 -9 -7 -19 -14 -11
-17 -20 -11 -34 4 -10 8 -22 7 -26 -1 -3 14 -2 33 3 18 5 39 8 47 7 8 -2 14 9
16 30 4 35 -2 39 -24 17 -19 -19 -34 -19 -34 -1 0 7 10 16 22 19 18 5 19 8 8
21 -9 12 -10 19 -1 30 18 22 3 66 -23 66 -28 0 -50 -15 -42 -29 9 -15 -7 -14
-22 1 -7 7 -12 8 -12 4 0 -5 -7 -3 -15 4 -19 16 -10 30 19 30 12 0 26 3 30 7
3 4 14 8 22 9 31 5 41 13 39 33 -2 28 -14 38 -26 21 -5 -10 -12 -11 -16 -5 -9
11 -48 13 -59 2 -16 -16 -44 -7 -45 16 -1 12 -5 2 -10 -23 -5 -24 -5 -47 -1
-50 10 -7 10 -90 0 -84 -5 3 -8 14 -8 25 0 10 -3 18 -7 18 -31 -5 -41 24 -14
40 9 6 6 10 -9 14 -26 7 -60 -23 -60 -53 0 -23 -18 -27 -26 -5 -5 12 -9 11
-24 -3 -19 -18 -34 -129 -18 -138 4 -3 8 9 8 26 0 29 2 31 28 25 15 -3 46 0
67 8 59 20 75 13 75 -33 0 -30 -3 -38 -14 -34 -11 4 -13 0 -9 -15 3 -14 1 -21
-8 -21 -8 0 -25 -3 -39 -7 -22 -6 -24 -5 -11 10 7 9 17 14 22 11 5 -3 9 2 9
10 0 11 -9 16 -30 16 -27 0 -30 -3 -30 -32 0 -18 -6 -55 -13 -83 -11 -43 -18
-51 -45 -59 -18 -5 -32 -16 -33 -25 0 -12 -2 -13 -6 -2 -4 10 -7 11 -13 1 -10
-16 -24 10 -33 58 -5 24 -3 31 5 26 8 -5 9 -2 4 11 -4 11 -2 22 6 26 8 5 13
27 13 54 0 25 3 45 8 45 14 0 7 15 -24 50 -16 19 -39 54 -51 78 -11 23 -24 42
-29 42 -5 0 -9 5 -9 11 0 6 -7 17 -15 25 -8 8 -20 23 -27 32 -8 9 -22 22 -33
28 -13 8 -19 21 -18 38 2 24 -5 29 -34 25 -3 0 -10 6 -15 15 -5 9 -18 16 -29
16 -12 0 -23 10 -29 25 -5 14 -14 25 -20 25 -5 0 -10 10 -10 23 0 13 -4 27 -9
33 -5 5 -11 34 -13 64 -2 30 -7 58 -11 61 -18 13 -24 143 -8 163 5 6 13 27 18
46 6 23 16 36 31 40 12 3 36 18 52 33 26 24 30 26 30 10 0 -15 2 -16 10 -3 5
8 10 25 10 37 0 28 20 40 32 19 11 -20 28 -12 28 15 0 13 6 20 18 18 45 -4 60
2 66 26 7 28 45 35 65 11 9 -10 20 -12 42 -6 26 8 29 6 29 -15 0 -13 3 -30 6
-39 11 -29 24 -6 24 42 0 26 4 53 8 59 11 18 41 -19 49 -60 3 -18 10 -37 15
-43 5 -7 8 -16 7 -20 -4 -26 2 -43 15 -38 12 4 15 -4 14 -38 0 -35 -2 -39 -9
-20 -11 29 -17 28 -15 -3 0 -14 6 -26 11 -26 34 -4 41 -3 53 5 8 6 12 3 12 -8
0 -9 -7 -16 -15 -16 -9 0 -15 -9 -15 -25 0 -14 5 -25 10 -25 6 0 10 -7 10 -15
0 -8 -7 -15 -16 -15 -9 0 -14 -6 -11 -12 2 -7 15 -12 28 -10 13 1 34 2 47 2
21 0 22 4 23 73 0 39 4 90 8 112 8 39 8 39 15 13 8 -28 26 -38 26 -15 0 6 7 3
16 -8 10 -13 17 -16 22 -9 8 12 75 13 80 1 5 -16 1 -28 -8 -22 -5 3 -10 2 -10
-4 0 -6 -7 -8 -15 -5 -12 5 -15 -2 -15 -31 0 -28 3 -36 14 -32 8 3 17 1 20 -6
2 -7 5 4 6 23 2 29 3 31 8 12 10 -33 26 -32 32 3 7 36 17 23 26 -33 6 -40 5
-42 -20 -42 l-26 0 0 -87 c0 -56 -4 -83 -9 -74 -8 12 -12 11 -28 -4 -13 -13
-14 -20 -5 -23 6 -2 12 -13 11 -25 0 -21 -1 -21 -9 -2 -6 17 -8 14 -11 -15 -4
-31 -7 -35 -33 -35 -16 -1 -31 -6 -34 -13 -6 -20 -32 -14 -32 7 0 26 -16 35
-24 15 -5 -12 -10 -13 -19 -5 -10 8 -19 6 -35 -5 -12 -8 -22 -12 -22 -7 0 4
-7 -5 -15 -21 -18 -34 -19 -56 -4 -56 6 0 9 -10 7 -22 -4 -20 0 -23 28 -25 30
-3 33 0 36 30 4 40 21 38 28 -2 7 -42 31 -25 28 19 -3 34 2 37 62 31 6 -1 10
-16 10 -33 0 -28 4 -33 25 -34 17 -1 25 3 25 15 0 13 2 13 9 2 14 -23 62 -23
68 -1 3 11 11 16 19 13 10 -3 14 2 13 18 0 13 -3 18 -6 12 -9 -24 -23 -13 -23
17 0 22 4 28 15 24 8 -4 15 -1 15 5 0 15 50 14 51 -1 1 -7 0 -29 0 -48 -1 -19
3 -42 9 -50 7 -12 10 -12 10 -1 0 8 6 11 16 7 15 -6 15 -4 3 10 -12 15 -11 16
10 9 15 -5 21 -4 17 3 -4 7 3 9 19 6 14 -2 25 0 25 6 0 6 5 8 10 5 6 -3 22 7
36 24 14 17 32 31 40 31 8 0 14 9 14 20 0 12 5 17 14 14 8 -3 23 8 37 28 13
18 34 43 48 55 21 19 23 25 14 45 -14 29 -48 303 -39 316 3 6 2 13 -3 16 -5 3
-12 38 -16 77 -6 55 -4 73 6 80 17 10 18 10 46 3z m-2079 -116 c9 -11 30 -18
51 -18 28 0 33 -3 21 -11 -11 -8 -8 -9 15 -5 28 5 28 5 7 -6 -16 -8 -35 -8
-66 -1 -57 13 -53 -5 7 -31 41 -18 93 -18 153 -1 12 4 29 -1 43 -12 20 -17 23
-28 24 -93 1 -82 -4 -97 -65 -177 -33 -45 -44 -53 -71 -53 -18 0 -38 5 -43 10
-8 8 -19 8 -38 0 -15 -5 -39 -10 -52 -10 -23 0 -24 2 -11 20 11 15 12 32 6 65
-8 42 -46 150 -71 202 -12 24 -3 73 12 73 6 0 10 7 10 16 0 10 6 14 14 11 20
-8 27 3 15 24 -6 13 -6 19 1 19 5 0 9 3 9 8 -3 18 4 25 8 7 3 -11 12 -28 21
-37z m2855 -245 c4 -3 3 -11 -3 -18 -19 -23 88 -105 138 -105 20 0 35 -13 45
-42 4 -12 -2 -21 -24 -30 -16 -7 -29 -15 -29 -18 0 -4 -24 -6 -54 -6 -30 1
-49 4 -43 8 8 5 6 8 -4 8 -9 0 -32 17 -51 38 -27 30 -36 50 -41 92 -5 44 -3
56 11 66 18 14 45 18 55 7z m-5364 -307 c-5 -17 -8 -69 -8 -116 1 -47 -1 -110
-5 -140 l-8 -55 36 -18 c20 -9 52 -17 70 -17 21 0 40 -8 52 -21 10 -12 18 -23
17 -25 -9 -13 -1 -22 14 -17 11 4 14 3 9 -5 -5 -8 -2 -10 9 -6 10 4 24 -3 38
-18 31 -35 97 -82 97 -70 0 23 33 19 92 -12 62 -32 78 -54 35 -47 -12 1 -30 9
-41 17 -22 15 -62 19 -70 6 -2 -4 13 -80 34 -167 52 -217 72 -322 67 -343 -3
-12 -5 -10 -6 6 0 13 -14 65 -30 115 -16 51 -35 119 -41 152 -8 36 -21 67 -33
77 -11 10 -21 18 -23 18 -1 0 0 -143 3 -319 3 -226 2 -321 -6 -325 -7 -5 -8
-14 -2 -24 8 -17 23 -177 24 -262 1 -101 -50 -280 -79 -280 -6 0 -14 -9 -17
-19 -6 -23 -47 -18 -47 6 0 8 -6 13 -13 10 -9 -3 -17 10 -26 42 -6 25 -21 73
-32 106 -22 69 -35 162 -45 325 -5 91 -3 134 11 200 14 71 15 110 9 240 -5 85
-10 142 -12 125 -6 -47 -20 -52 -27 -9 -14 75 -23 110 -24 87 -1 -12 5 -52 13
-90 22 -106 31 -223 17 -223 -7 0 -10 4 -7 9 7 10 -16 61 -27 61 -5 0 -6 4 -3
9 8 13 -24 23 -38 12 -7 -6 -17 -6 -26 -1 -32 21 -43 5 -55 -85 -1 -5 -5 -26
-10 -45 -5 -19 -7 -49 -6 -67 2 -21 -3 -35 -16 -42 -17 -10 -17 -10 0 -11 19
0 20 -3 8 -28 -35 -69 -38 -205 -9 -382 6 -36 10 -79 9 -97 -1 -25 6 -37 33
-59 19 -15 41 -29 49 -30 17 -2 16 21 -1 38 -19 19 -14 42 13 68 14 13 25 19
25 14 0 -5 4 -3 9 5 7 11 12 9 25 -10 27 -42 7 -76 -40 -70 -8 1 -9 -9 -5 -30
7 -35 102 -154 173 -216 l47 -42 93 2 c83 1 99 -2 148 -27 30 -15 74 -46 98
-69 35 -34 42 -38 43 -22 0 11 6 -5 13 -35 16 -74 9 -82 -73 -79 -36 1 -70 4
-76 8 -5 3 -20 6 -32 7 -39 2 -127 52 -204 116 -42 35 -75 65 -73 67 7 7 -141
142 -183 168 -24 14 -43 29 -43 34 0 5 -4 9 -10 9 -24 0 -132 108 -165 165
-23 39 -25 49 -18 112 l7 68 15 -50 c19 -57 46 -102 72 -115 16 -9 17 -7 9 18
-4 15 -13 40 -19 55 -6 16 -11 39 -11 52 0 13 -5 36 -11 52 -8 22 -12 24 -19
13 -7 -12 -11 -7 -16 18 -4 18 -11 35 -15 38 -5 3 -9 14 -9 24 0 10 -7 25 -15
34 -9 8 -15 19 -15 23 1 4 -4 9 -11 12 -8 2 -10 -2 -6 -12 5 -14 2 -15 -21 -6
-44 17 -134 92 -145 122 -3 9 -11 17 -17 17 -5 0 -10 7 -10 15 0 8 5 15 11 15
5 0 8 -3 6 -7 -3 -5 10 -8 29 -9 24 0 31 3 24 10 -5 5 -29 9 -53 9 -23 -1 -74
-2 -113 -2 -215 0 -374 -84 -445 -234 -42 -91 -47 -143 -19 -217 26 -71 102
-151 190 -204 70 -41 75 -60 19 -85 -38 -17 -46 -18 -69 -6 -14 7 -39 18 -57
24 -50 15 -127 69 -153 108 -17 25 -25 30 -31 21 -6 -9 -9 -7 -9 8 0 38 -22
46 -105 38 -55 -5 -79 -4 -84 5 -4 6 -9 64 -10 129 -1 64 -4 144 -6 176 -2 33
1 68 7 79 6 11 11 44 12 74 1 48 -1 53 -19 51 -19 -3 -20 -13 -25 -278 -5
-253 -4 -276 12 -292 10 -10 13 -18 7 -18 -5 0 -7 -5 -4 -11 4 -6 -1 -16 -11
-24 -20 -14 -38 -10 -28 7 4 7 -2 8 -17 3 -32 -10 -49 -24 -49 -41 0 -8 -10
-16 -22 -19 -13 -4 -30 -20 -38 -37 -20 -41 -47 -58 -60 -38 -9 13 -10 13 -11
0 0 -8 -4 -4 -8 10 -14 47 -12 205 4 256 21 69 19 104 -11 181 -14 38 -36 109
-50 158 -29 103 -81 215 -99 215 -9 0 -15 26 -19 83 -11 144 -21 509 -14 513
3 2 4 14 1 27 -6 21 -6 21 15 -3 19 -24 19 -26 4 -45 -17 -20 -17 -20 5 -1 14
12 20 23 14 30 -8 11 -12 50 -4 42 6 -6 122 38 191 73 35 18 102 64 150 102
l86 70 12 -28 12 -28 1 28 c1 24 5 27 34 27 22 0 41 8 54 23 29 32 73 114 73
137 0 33 52 16 133 -44 82 -60 166 -106 197 -106 11 0 38 -9 60 -20 22 -11 48
-20 59 -20 11 0 27 -7 35 -16 9 -8 22 -14 29 -11 6 2 19 1 28 -4 9 -5 26 -2
42 6 14 7 28 11 30 8 8 -7 58 26 103 70 37 35 44 37 62 26 12 -7 22 -21 24
-31 3 -16 5 -17 32 -3 26 14 30 13 54 -5 17 -14 28 -17 32 -9 4 6 10 10 14 10
19 -3 24 1 29 19 7 26 25 25 97 -4 33 -14 60 -22 61 -18 5 45 13 68 23 74 9 5
11 18 8 35 l-6 28 -8 -30 c-4 -16 -5 9 -2 58 9 131 21 161 23 53 0 -49 3 -92
6 -94 3 -3 5 44 5 105 0 87 3 110 14 110 11 0 12 -7 5 -31z m6386 -136 c28
-22 55 -44 61 -49 7 -6 15 -7 20 -3 4 4 4 -1 1 -10 -4 -10 -2 -18 4 -18 5 0
16 -15 24 -34 8 -19 23 -37 32 -39 14 -4 13 -5 -4 -6 -19 -1 -23 -7 -24 -33
-1 -18 -3 -40 -4 -48 -1 -8 -3 -21 -4 -27 -2 -24 -31 -13 -42 15 -18 50 -79
163 -99 185 -11 11 -20 27 -20 34 0 7 -5 13 -12 13 -6 0 -9 3 -5 6 3 4 -1 13
-9 21 -8 8 -12 19 -9 24 12 18 41 8 90 -31z m423 -456 c29 -13 57 -24 61 -24
39 0 151 -73 151 -97 0 -6 -24 -18 -52 -28 -70 -22 -78 -30 -78 -76 0 -22 -4
-39 -9 -39 -5 0 -9 -14 -8 -31 2 -27 11 -38 62 -70 33 -21 71 -43 85 -49 14
-6 70 -33 125 -59 55 -27 115 -54 132 -61 18 -7 43 -21 55 -33 26 -23 31 -24
-122 39 -63 26 -185 75 -270 110 -119 48 -156 67 -158 82 -3 18 -7 18 -77 -11
-41 -17 -77 -29 -79 -26 -8 7 16 93 28 101 8 5 7 8 -1 8 -9 0 -8 9 3 35 8 20
11 41 8 47 -4 7 9 26 32 45 26 22 34 33 22 33 -9 0 -20 -4 -23 -10 -9 -14 -34
-12 -31 3 3 25 19 39 37 34 15 -4 18 -1 15 16 -3 12 -8 39 -11 61 -6 38 -6 38
22 31 15 -3 52 -17 81 -31z m-2910 -339 c4 -81 2 -99 -13 -115 -38 -42 -74
-12 -60 49 6 29 6 29 -39 26 -38 -3 -46 0 -46 13 0 14 -2 15 -10 2 -5 -8 -12
-11 -17 -7 -11 11 16 25 37 20 13 -4 19 2 22 19 2 12 10 23 18 23 8 0 20 7 27
15 10 12 13 7 14 -30 1 -25 3 -36 6 -25 34 152 55 155 61 10z m3001 -847 c106
-63 244 -153 262 -170 8 -7 58 -42 111 -78 92 -61 123 -90 61 -56 -15 8 -39
21 -53 28 -46 23 -195 112 -226 135 -17 13 -34 23 -38 23 -18 0 -236 145 -236
156 0 25 31 15 119 -38z m-574 -54 c44 -8 97 -18 119 -21 37 -5 103 -33 79
-33 -7 0 -13 -7 -13 -15 0 -20 -27 -30 -44 -16 -7 6 -16 8 -19 4 -4 -3 -10 2
-13 12 -4 10 -1 21 7 26 11 7 9 9 -6 9 -40 0 -94 -13 -90 -21 9 -14 -35 -31
-63 -25 -15 3 -43 7 -62 8 -41 3 -80 32 -63 49 8 8 13 8 17 0 13 -21 28 -11
22 14 -6 22 -3 25 21 24 16 0 64 -7 108 -15z m-332 -347 c48 -25 56 -33 44
-42 -17 -12 -9 -22 43 -53 23 -15 28 -21 18 -29 -25 -20 -64 -27 -193 -34
l-130 -7 145 3 c80 2 154 6 166 10 14 4 21 2 21 -8 0 -9 -8 -13 -21 -10 -18 4
-19 3 -6 -7 13 -10 12 -11 -6 -7 -18 4 -21 0 -21 -21 0 -15 -6 -28 -12 -30 -7
-2 -25 -15 -41 -29 -27 -22 -30 -23 -30 -7 0 13 -8 7 -26 -19 -19 -29 -29 -36
-38 -27 -10 7 -17 6 -26 -5 -7 -9 -21 -13 -31 -10 -12 4 -21 1 -25 -9 -3 -9
-10 -16 -15 -16 -4 0 -6 7 -3 15 4 8 1 15 -5 15 -6 0 -11 -4 -11 -9 0 -4 -25
-9 -55 -9 -30 0 -55 4 -55 8 0 13 -103 -1 -112 -14 -5 -8 -8 -7 -8 2 0 16 -32
16 -48 0 -8 -8 -15 -9 -20 -3 -4 6 -18 11 -32 13 -19 2 -22 0 -10 -8 11 -7 7
-10 -17 -10 -23 0 -33 -5 -33 -16 0 -11 -6 -13 -19 -9 -12 4 -26 -1 -38 -13
-10 -11 -29 -23 -43 -27 -14 -4 -32 -16 -40 -26 -17 -18 -70 -21 -70 -3 0 5
21 16 48 22 27 7 62 26 82 45 19 17 99 80 178 140 124 93 148 107 176 104 17
-2 23 -2 14 0 -19 5 -25 23 -8 23 5 0 41 27 78 59 89 77 132 102 157 95 11 -4
46 -20 78 -37z m-8128 3 c17 -4 23 -8 15 -9 -12 -1 -12 -3 -2 -10 25 -16 -3
-83 -48 -116 -22 -17 -40 -38 -40 -47 0 -9 -4 -19 -10 -23 -5 -3 -7 -12 -3
-20 3 -8 0 -15 -6 -15 -6 0 -11 5 -11 12 0 6 -3 8 -7 5 -3 -4 4 -17 17 -30 20
-17 39 -23 97 -26 61 -3 72 -6 62 -17 -22 -27 -190 -4 -225 31 -14 13 -14 18
-2 33 12 15 11 16 -4 4 -14 -11 -18 -10 -27 7 -14 26 -14 67 0 94 6 12 36 48
67 80 57 58 68 62 127 47z m3068 -360 c-4 -28 0 -47 12 -66 15 -24 16 -33 5
-85 -7 -32 -10 -72 -8 -90 3 -18 -1 -56 -9 -84 -7 -27 -22 -104 -33 -169 -11
-65 -22 -121 -24 -123 -7 -8 -21 251 -21 402 0 144 1 152 28 203 34 64 58 70
50 12z m4180 -128 c-18 -15 -33 -33 -33 -40 0 -7 -7 -12 -15 -12 -8 0 -15 -4
-15 -10 0 -5 5 -10 10 -10 7 0 7 -6 0 -20 -14 -27 -29 -25 -23 3 5 21 5 21 -9
3 -19 -24 -34 -5 -18 23 14 27 13 31 -7 31 -10 0 -40 -25 -68 -56 -95 -106
-86 -100 -102 -79 -9 14 -13 15 -13 4 0 -19 -41 -98 -63 -121 -26 -28 -39 -18
-22 16 8 15 15 39 15 52 0 12 5 26 11 30 6 3 8 17 4 31 -3 14 -2 22 3 19 6 -3
12 3 15 14 3 12 0 20 -8 20 -15 0 -70 -69 -61 -77 3 -4 -1 -17 -10 -31 -13
-20 -14 -29 -5 -50 7 -13 9 -27 5 -31 -4 -3 -9 0 -11 7 -3 6 -10 12 -16 12 -6
0 -19 7 -29 17 -10 9 -18 13 -18 10 0 -3 9 -15 21 -26 21 -19 24 -63 4 -61 -5
1 -9 8 -7 15 3 15 -34 40 -41 28 -3 -5 -12 -37 -21 -73 -20 -77 -37 -120 -50
-120 -4 0 -5 10 -2 23 17 57 35 136 41 179 4 28 11 47 18 45 6 -1 12 7 13 18
2 28 22 65 35 65 6 0 8 8 4 19 -7 22 36 43 93 45 20 1 42 6 48 11 6 6 63 23
127 38 63 15 135 36 159 47 62 28 79 25 41 -8z m-4826 -136 c63 -1 59 8 73
-186 6 -78 12 -146 15 -150 8 -13 55 -304 55 -342 0 -21 10 -57 21 -81 l22
-44 -22 -57 c-30 -80 -28 -168 4 -238 34 -73 32 -95 -15 -148 -23 -24 -43 -54
-46 -67 -4 -13 -10 -23 -15 -23 -5 0 -9 -7 -9 -15 0 -9 -10 -32 -23 -53 -36
-58 -77 -150 -77 -175 -1 -18 -2 -19 -10 -6 -17 29 -50 198 -50 256 0 51 -14
117 -42 198 -5 17 -11 37 -13 45 -1 8 -6 23 -10 32 -4 9 -2 40 4 68 16 74 13
91 -8 50 -19 -35 -58 -77 -65 -69 -2 2 0 47 5 99 27 314 30 374 19 400 -9 22
-7 40 15 101 15 41 28 81 30 89 1 8 0 9 -2 2 -3 -7 -9 -10 -14 -7 -5 4 -9 2
-9 -2 0 -5 -8 -9 -18 -9 -17 0 -17 3 -5 27 7 15 15 49 17 75 4 39 8 48 21 46
14 -3 13 2 -6 27 -21 28 -21 34 -10 73 7 24 20 56 28 72 14 26 18 28 51 20 21
-4 60 -8 89 -8z m4330 -8 c-17 -14 -79 -126 -92 -167 -6 -20 -4 -23 9 -18 9 4
16 2 16 -3 0 -6 -4 -10 -10 -10 -5 0 -10 -10 -10 -22 0 -13 -10 -59 -21 -103
-11 -44 -23 -90 -26 -102 -3 -13 -9 -23 -14 -23 -5 0 -9 -11 -9 -24 0 -14 -4
-28 -10 -31 -15 -9 -13 3 20 94 19 54 27 94 23 109 -4 17 -2 23 5 18 8 -5 10
-2 6 8 -3 9 -2 16 3 16 6 0 10 15 11 32 1 31 -1 30 -27 -22 -32 -62 -57 -80
-48 -34 9 48 -10 128 -42 179 -17 27 -31 62 -31 78 l0 29 108 -6 c62 -3 113
-2 122 4 22 14 37 12 17 -2z m-5527 -206 c0 -4 9 -8 20 -9 11 -1 18 2 15 8 -4
5 -1 9 4 9 6 0 11 -4 11 -10 0 -5 0 -13 0 -17 0 -5 -6 -8 -12 -8 -7 0 -15 -13
-16 -30 -2 -16 -12 -38 -23 -48 -10 -10 -19 -24 -19 -32 0 -8 -5 -15 -11 -15
-7 0 -10 -12 -7 -29 3 -21 1 -28 -9 -24 -14 6 -18 -13 -4 -21 4 -3 6 -18 3
-32 -5 -26 -6 -26 -18 -9 -8 10 -14 14 -14 8 0 -6 -3 -20 -6 -30 -5 -15 -4
-15 5 -3 9 13 11 13 11 -2 0 -9 -9 -20 -21 -23 -25 -8 -19 -30 9 -30 11 0 24
-4 28 -8 4 -4 0 -7 -9 -7 -9 0 -17 -6 -18 -12 0 -10 -2 -10 -6 0 -7 18 -27 15
-41 -8 -7 -11 -21 -20 -32 -20 -11 0 -20 -4 -20 -9 0 -13 25 -20 52 -15 21 5
22 4 6 -9 -10 -8 -18 -19 -18 -25 0 -12 -23 -22 -50 -22 -11 0 -24 -10 -31
-21 -9 -17 -13 -19 -20 -8 -13 20 -11 31 4 23 9 -5 9 -4 0 6 -6 7 -9 19 -6 26
4 10 -4 14 -23 15 -28 2 -28 2 -4 6 31 6 40 19 40 61 0 25 -4 32 -20 32 -17 0
-19 3 -8 19 7 11 20 22 30 24 10 3 18 12 18 21 0 9 5 16 10 16 6 0 15 12 20
26 6 14 14 23 18 20 4 -2 13 4 20 14 9 15 9 21 0 26 -7 4 -14 2 -16 -4 -2 -7
-8 -10 -13 -6 -16 9 1 24 29 25 15 0 21 3 15 6 -7 2 -13 11 -13 19 0 8 -4 14
-10 14 -5 0 -10 4 -10 9 0 5 8 7 19 4 10 -3 22 0 25 6 4 6 -1 11 -11 12 -14 0
-15 2 -3 6 30 11 70 45 65 53 -3 5 6 12 20 16 14 3 25 10 25 15 0 5 5 9 10 9
6 0 10 -4 10 -8z m4621 -22 c-11 -39 0 -143 23 -215 46 -148 49 -169 52 -305
1 -74 5 -160 8 -191 5 -45 3 -58 -9 -63 -8 -3 -15 -1 -15 4 0 15 -95 267 -125
332 -23 50 -25 67 -24 155 2 94 1 101 -35 173 -20 41 -36 82 -36 90 0 12 16
19 63 27 80 13 103 12 98 -7z m-5361 -69 c0 -4 -8 -19 -19 -32 -17 -22 -31
-65 -37 -116 -4 -34 -37 -72 -64 -74 -24 -2 -23 -2 3 -6 l28 -4 -28 -26 c-15
-15 -23 -28 -17 -30 7 -2 1 -16 -14 -33 -28 -31 -54 -98 -45 -113 3 -6 -2 -16
-12 -24 -11 -7 -13 -13 -6 -13 9 0 8 -5 -3 -21 -8 -12 -12 -28 -9 -35 3 -9 -2
-14 -17 -14 -11 0 -18 -4 -15 -10 3 -5 1 -10 -4 -10 -6 0 -11 -9 -11 -19 0
-20 -71 -101 -89 -101 -5 0 -17 -8 -27 -17 -10 -10 -22 -18 -28 -18 -6 0 -11
-10 -11 -22 -1 -30 -10 -37 -34 -23 -18 9 -21 8 -22 -7 0 -11 -3 -13 -6 -5 -2
6 -9 9 -15 6 -7 -4 -9 6 -6 29 2 20 0 33 -4 31 -5 -3 -6 21 -3 53 9 91 27 183
35 183 4 0 5 -12 2 -26 -3 -18 -1 -25 6 -20 6 3 13 0 16 -6 3 -7 4 -1 1 13 -3
15 1 47 9 72 8 25 11 48 8 51 -2 3 2 8 11 12 9 3 13 12 10 20 -3 8 1 14 10 14
24 0 30 -18 13 -36 -20 -19 -20 -28 0 -45 14 -11 14 -13 0 -21 -22 -12 -20
-28 4 -28 13 0 18 -5 14 -15 -5 -12 -2 -12 25 1 32 16 43 28 16 18 -17 -7 -20
13 -5 36 9 13 11 13 20 0 7 -12 10 -8 10 16 0 19 -6 34 -15 38 -8 3 -15 12
-15 19 0 8 7 20 15 27 10 9 15 9 15 1 0 -6 -4 -11 -10 -11 -5 0 -10 -4 -10
-10 0 -5 7 -10 15 -10 14 0 19 11 16 38 -1 6 3 12 10 12 8 0 8 4 2 13 -16 20
0 61 27 67 15 4 26 14 26 25 3 38 4 40 15 25 8 -12 9 -10 7 10 -2 15 6 35 20
50 12 14 20 30 18 36 -2 6 4 17 15 25 10 7 19 19 19 26 0 8 7 10 17 6 11 -4
13 -8 5 -11 -7 -2 -16 -11 -21 -20 -7 -14 -3 -17 25 -19 19 -1 32 2 29 7 -3 5
3 13 12 19 17 10 17 10 1 11 -21 0 -22 4 -6 30 13 20 78 30 78 11z m191 -49
c-6 -2 -11 -10 -11 -17 0 -7 -8 -16 -17 -18 -15 -4 -15 -5 -2 -6 9 0 22 6 29
14 11 14 50 22 50 10 0 -2 -5 -15 -11 -28 -8 -17 -8 -30 -1 -43 9 -16 6 -20
-21 -29 -35 -11 -51 -37 -18 -28 29 7 26 -11 -3 -27 -22 -11 -23 -15 -10 -27
18 -18 18 -43 0 -43 -9 0 -12 -7 -9 -19 3 -10 0 -22 -6 -25 -10 -6 -16 13 -12
37 0 4 -11 7 -25 7 -14 0 -23 -4 -19 -10 3 -5 -2 -10 -11 -10 -13 0 -11 -5 9
-23 15 -12 27 -26 27 -30 0 -9 -30 -4 -48 7 -21 13 -27 -2 -9 -22 21 -23 21
-32 2 -32 -8 0 -15 5 -15 11 0 7 -12 8 -32 4 -25 -5 -29 -4 -18 4 12 8 8 11
-17 11 -23 0 -33 5 -33 15 0 8 -4 15 -10 15 -5 0 -10 -5 -10 -12 0 -6 -3 -9
-6 -5 -12 12 8 47 27 47 10 0 19 -5 19 -10 0 -6 8 -5 20 2 11 7 20 16 20 21 0
4 -5 5 -10 2 -13 -8 -50 4 -50 16 0 5 6 9 13 9 7 0 20 9 30 20 9 11 24 20 32
20 8 0 15 5 15 10 0 6 -7 10 -15 10 -8 0 -15 5 -15 10 0 6 5 10 10 10 6 0 10
7 10 15 0 8 6 15 14 15 8 0 18 9 21 20 3 11 10 20 15 20 5 0 15 12 22 28 7 15
23 31 36 37 12 5 22 18 22 29 0 16 2 17 16 5 10 -8 12 -15 5 -17z m5879 -22
c-7 -4 -9 -13 -5 -20 4 -7 3 -15 -2 -19 -13 -8 -27 -65 -14 -57 13 9 20 -16
10 -36 -10 -19 -2 -48 14 -48 7 0 6 -5 -2 -12 -11 -10 -14 -10 -18 0 -3 6 -10
12 -16 12 -8 0 -7 -4 1 -12 16 -16 15 -38 0 -38 -10 0 -13 -29 -12 -118 1 -64
4 -134 7 -155 3 -21 1 -52 -3 -68 -7 -23 -5 -31 5 -36 8 -3 12 -10 9 -15 -7
-11 -7 -44 0 -298 5 -193 -6 -289 -17 -150 -4 47 -7 129 -7 183 0 95 -10 137
-31 137 -13 0 -48 41 -49 57 0 7 -14 35 -30 64 -23 38 -33 69 -37 118 -5 52
-17 87 -54 161 -55 108 -82 198 -67 218 6 6 21 12 33 12 13 0 54 9 91 21 57
17 77 30 117 71 47 50 47 50 48 22 0 -28 1 -27 17 11 12 29 17 35 20 21 2 -10
-2 -22 -8 -26z m2185 -175 c33 -38 96 -109 140 -159 44 -49 102 -115 128 -145
27 -31 54 -60 61 -66 12 -10 196 -220 232 -264 10 -13 30 -36 44 -51 48 -52
95 -108 110 -130 8 -13 23 -32 33 -42 32 -33 10 -32 -23 1 -17 17 -35 31 -40
31 -5 0 -11 9 -15 20 -3 11 -9 19 -13 17 -10 -3 -72 61 -72 73 0 6 -6 10 -13
10 -8 0 -32 17 -55 38 -92 82 -413 407 -449 453 -21 28 -67 85 -102 127 -73
88 -91 124 -91 184 l1 43 32 -35 c17 -20 59 -67 92 -105z m-7707 -194 c-8 -12
-17 -18 -20 -15 -3 3 -9 1 -12 -4 -3 -6 6 -13 21 -17 19 -4 29 -2 35 9 5 9 13
16 17 16 11 0 21 -37 13 -45 -10 -10 -9 -45 2 -45 6 0 4 -5 -4 -10 -8 -5 -11
-10 -6 -10 5 0 -3 -11 -19 -24 -20 -17 -24 -25 -14 -29 13 -5 -26 -11 -59 -10
-7 1 -11 -1 -8 -4 3 -3 1 -14 -5 -25 -7 -13 -16 -17 -30 -13 -22 7 -25 -11 -5
-37 9 -13 23 -16 52 -13 21 2 31 2 22 -1 -10 -3 -18 -12 -18 -20 0 -17 -41
-19 -58 -2 -8 8 -15 8 -26 -1 -17 -14 -36 -7 -36 13 0 14 -37 25 -58 18 -7 -2
-12 -10 -12 -19 0 -11 7 -13 30 -8 31 7 36 0 20 -25 -9 -13 -11 -13 -20 0 -9
13 -10 13 -10 0 -1 -12 -4 -11 -15 4 -7 10 -19 15 -25 11 -9 -6 -9 -10 1 -16
9 -6 4 -8 -16 -6 -17 2 -36 7 -43 11 -8 5 -12 0 -12 -14 0 -33 -24 -51 -58
-44 -28 6 -30 4 -28 -22 1 -16 5 -35 9 -41 5 -8 4 -13 -2 -13 -6 0 -11 5 -11
10 0 6 -7 10 -15 10 -8 0 -15 -4 -15 -10 0 -5 -12 -10 -26 -10 -19 0 -25 -4
-20 -15 3 -10 -1 -15 -11 -15 -14 0 -14 -3 3 -22 17 -20 18 -21 1 -15 -13 5
-20 0 -26 -16 -5 -12 -6 -26 -3 -32 4 -5 5 -17 4 -26 -4 -22 48 -32 69 -13 8
8 23 14 32 14 9 0 16 6 15 13 -2 9 13 11 57 10 l60 -2 -32 16 c-18 9 -33 20
-33 24 0 16 60 70 71 63 6 -3 15 -1 19 5 4 7 26 14 50 16 52 5 65 15 19 15
l-34 1 28 15 c15 8 40 17 55 19 15 1 39 9 54 15 37 17 57 8 51 -24 -4 -20 -1
-26 13 -26 17 -1 16 -3 -5 -21 -14 -11 -31 -17 -42 -14 -11 4 -19 2 -19 -4 0
-6 0 -14 -1 -18 0 -5 10 -11 23 -15 21 -5 20 -6 -7 -7 -16 -1 -37 -5 -45 -11
-12 -8 -12 -10 3 -16 9 -3 24 -3 33 0 11 4 14 1 12 -12 -2 -12 -11 -16 -31
-14 -15 2 -27 -1 -27 -7 0 -6 8 -11 18 -12 9 0 -5 -6 -33 -13 -42 -10 -50 -15
-48 -33 3 -22 -48 -69 -60 -57 -9 10 17 32 30 27 7 -3 13 2 13 12 0 12 -5 15
-22 9 -30 -8 -58 -34 -58 -51 0 -11 -4 -11 -20 -3 -11 6 -18 15 -15 21 12 18
-15 8 -41 -16 -15 -14 -22 -25 -16 -25 6 0 14 5 17 10 10 15 35 12 35 -5 0 -9
-9 -15 -22 -16 -22 0 -22 -1 -3 -8 11 -5 29 -5 41 -1 11 5 28 3 39 -2 18 -11
18 -11 0 -24 -22 -16 -16 -18 19 -5 18 7 28 6 36 -5 7 -7 22 -14 34 -15 13 0
16 -3 7 -6 -16 -7 30 -29 99 -49 69 -20 249 -17 368 6 56 11 116 20 132 20 16
0 64 11 107 25 42 13 79 23 81 21 10 -11 -127 -50 -232 -67 -65 -11 -123 -22
-128 -25 -20 -12 -255 -21 -321 -12 -55 7 -72 6 -85 -5 -36 -31 -64 -28 -97 9
-29 32 -34 34 -73 28 -40 -6 -59 -24 -27 -24 8 0 15 -7 15 -15 0 -22 -26 -8
-39 22 -6 14 -9 34 -6 44 5 14 1 19 -13 19 -11 0 -23 6 -26 13 -5 9 -7 9 -12
-1 -3 -7 -12 -18 -19 -25 -6 -6 -10 -19 -7 -29 2 -10 -1 -18 -7 -18 -6 0 -11
5 -11 11 0 8 -14 10 -39 6 -34 -4 -38 -3 -34 14 3 11 0 19 -6 19 -6 0 -11 7
-11 15 0 8 -9 19 -19 25 -16 8 -21 6 -26 -10 -9 -29 -28 -25 -21 5 4 14 2 25
-4 25 -5 0 -10 -7 -10 -15 0 -8 -7 -15 -15 -15 -8 0 -15 5 -15 10 0 6 -5 10
-11 10 -6 0 -27 14 -46 30 -18 17 -38 30 -44 30 -6 0 -6 7 1 20 11 21 8 24
-22 21 -10 -1 -18 3 -18 8 0 6 5 11 10 11 6 0 10 9 10 20 0 26 -47 24 -56 -3
-5 -16 -12 -18 -42 -12 -56 10 -72 15 -72 27 0 5 -7 8 -15 4 -8 -3 -14 -2 -13
2 2 11 -14 66 -23 77 -11 15 -15 104 -4 105 5 1 16 -17 24 -39 10 -27 21 -41
33 -41 10 0 18 5 18 10 0 6 14 10 30 10 19 0 30 5 30 14 0 18 64 30 89 16 23
-12 48 -5 48 15 0 8 -9 13 -20 12 -11 -1 -22 4 -24 11 -6 15 53 17 62 2 8 -13
45 -13 45 -1 0 5 -6 12 -12 14 -10 4 -9 8 2 17 12 9 8 11 -17 6 -19 -3 -33 -1
-33 4 0 6 10 10 23 11 21 0 21 1 2 9 -12 4 -26 14 -33 22 -10 12 -4 13 41 4
28 -6 56 -16 60 -24 12 -19 39 5 32 28 -5 15 1 17 45 12 49 -4 50 -4 50 22 0
14 -4 26 -10 26 -5 0 -10 6 -10 14 0 7 -7 19 -16 26 -13 12 -11 15 17 27 18 7
35 10 38 5 10 -16 60 -20 65 -6 5 13 -48 34 -85 34 -9 0 -35 8 -57 18 l-41 18
22 23 c19 18 20 23 7 31 -25 15 3 33 39 25 17 -4 31 -10 31 -14 0 -5 10 -6 23
-4 14 3 29 -3 40 -15 16 -18 16 -18 -13 -14 -18 3 -30 0 -30 -7 0 -9 37 -16
63 -12 5 1 5 -4 1 -10 -4 -7 0 -9 13 -5 28 9 83 10 113 3 14 -4 19 -4 13 -1
-15 6 -18 44 -4 44 5 0 11 -7 15 -15 3 -8 12 -15 21 -15 8 0 15 7 15 15 0 8
-7 15 -15 15 -8 0 -15 5 -15 11 0 6 7 9 15 5 9 -3 15 0 15 10 0 12 6 15 28 10
18 -5 23 -4 13 3 -10 7 -1 11 35 16 27 4 55 12 62 18 7 5 30 7 52 4 24 -3 46
0 57 8 24 18 28 11 11 -14z"/>
<path d="M4002 6021 c-10 -6 -11 -14 -4 -27 16 -29 33 -140 37 -239 6 -117 12
-148 29 -133 14 13 16 48 3 48 -5 0 -4 6 3 14 6 8 11 23 10 33 -1 10 -1 23 0
28 5 26 -3 120 -10 125 -5 3 -14 37 -20 74 -14 90 -18 96 -48 77z"/>
<path d="M4741 5549 c-74 -14 -145 -40 -168 -62 -28 -25 -31 -53 -5 -41 9 4
29 8 44 8 14 1 24 4 21 9 -2 4 -3 7 -1 7 2 0 32 3 68 6 68 5 150 -12 157 -33
3 -8 -21 -11 -79 -11 -47 1 -93 -4 -106 -11 -12 -6 -22 -9 -22 -6 0 2 -9 -3
-20 -12 -21 -19 -27 -53 -9 -53 6 0 32 14 58 31 55 38 120 49 155 26 13 -9 33
-13 45 -10 26 7 27 20 4 26 -15 4 -15 5 -2 6 9 0 22 -6 29 -14 9 -10 9 -15 1
-15 -6 0 -11 -5 -11 -11 0 -6 5 -7 13 -2 6 4 16 8 21 8 5 0 11 6 14 14 3 8 0
11 -6 7 -7 -4 -8 8 -5 34 5 33 2 45 -17 65 -38 41 -93 51 -179 34z"/>
<path d="M4770 5400 c-45 -7 -150 -56 -150 -71 0 -11 20 -16 52 -11 15 2 28
11 28 18 0 22 16 16 28 -11 6 -13 23 -27 38 -31 29 -7 90 10 112 33 7 7 18 11
23 8 5 -4 9 -1 9 5 0 18 -20 50 -31 50 -6 0 -7 -5 -3 -12 4 -6 -8 -3 -27 8
-27 16 -44 19 -79 14z"/>
<path d="M7790 4050 c0 -88 -108 -351 -269 -653 -28 -54 -60 -120 -71 -147
-19 -49 -19 -50 0 -60 21 -11 25 -4 22 50 -1 22 0 22 7 6 5 -15 10 -16 15 -7
5 7 3 18 -3 24 -14 14 -14 23 2 39 6 7 25 39 40 71 20 43 32 57 43 53 12 -5
14 0 10 22 -4 19 3 41 24 77 17 28 48 85 70 127 33 65 45 79 72 87 32 9 32 9
6 10 -31 1 -33 7 -18 47 31 79 72 274 59 274 -5 0 -9 -9 -9 -20z"/>
<path d="M8760 3994 c-18 -46 -12 -93 15 -119 55 -56 125 -9 110 74 -10 51
-31 71 -77 71 -32 0 -40 -4 -48 -26z"/>
<path d="M6420 3490 c-37 -67 -142 -177 -244 -253 -27 -20 -47 -37 -44 -37 9
0 254 50 283 58 30 8 30 9 33 84 1 42 -1 98 -6 124 -8 48 -8 49 -22 24z"/>
<path d="M5994 3460 c-6 -6 -30 -11 -54 -11 -52 -2 -63 -6 -54 -21 5 -7 9 -7
13 0 4 6 6 -9 6 -33 0 -23 -3 -41 -6 -39 -4 2 -12 -9 -19 -25 -8 -21 -17 -28
-31 -26 -26 5 -24 -9 4 -28 21 -14 24 -13 40 6 9 12 17 28 17 36 0 12 3 12 12
3 7 -7 12 -38 12 -70 0 -55 7 -72 33 -72 11 0 30 83 24 105 -1 5 3 47 10 92
12 84 11 101 -7 83z"/>
<path d="M7730 3361 c-73 -24 -176 -93 -196 -133 -22 -43 -18 -75 14 -95 15
-9 40 -28 55 -42 19 -17 28 -21 26 -11 -1 8 1 22 4 30 4 8 12 33 19 55 22 67
152 144 250 148 22 1 32 4 25 9 -9 6 -8 8 3 8 12 0 12 2 -2 16 -18 18 -157 29
-198 15z"/>
<path d="M6775 3184 c-251 -8 -598 -25 -675 -34 -47 -5 -112 -11 -145 -14 -56
-6 -343 -35 -550 -56 -100 -11 -228 -29 -263 -37 -30 -7 -53 -53 -46 -92 4
-17 9 -32 13 -32 10 -2 58 -9 89 -12 15 -2 42 1 61 6 19 5 67 13 105 17 39 4
124 20 190 34 65 14 121 25 125 24 3 -1 13 2 21 5 8 3 40 11 70 17 30 6 87 17
125 25 118 25 168 34 225 39 102 10 344 36 490 52 271 30 544 29 700 -1 14 -3
5 2 -20 11 -110 37 -297 55 -515 48z"/>
<path d="M1483 3632 c-7 -4 -15 -22 -19 -39 l-6 -31 66 -4 c37 -1 72 2 78 7 8
7 9 6 4 -2 -4 -7 -3 -13 3 -13 5 0 12 6 14 13 4 7 6 6 6 -4 1 -15 19 -28 46
-34 6 -1 19 1 30 6 l20 8 -20 0 c-12 1 -16 4 -9 9 12 8 28 62 18 62 -3 0 -18
-9 -34 -20 -31 -22 -40 -18 -40 22 l0 28 -72 0 c-40 0 -79 -4 -85 -8z"/>
<path d="M1860 3618 c-58 -5 -107 -14 -108 -19 -2 -5 -10 -16 -18 -23 -8 -8
-14 -17 -14 -21 0 -3 83 -4 185 -1 108 4 185 2 185 -3 0 -5 16 -9 35 -9 20 0
35 5 35 12 0 6 5 4 10 -4 8 -12 10 -12 10 -1 0 10 3 11 13 2 17 -13 28 -5 20
15 -4 12 2 13 36 8 40 -6 41 -6 41 22 0 29 0 29 -52 25 -29 -1 -58 -7 -65 -13
-21 -17 -63 -20 -63 -4 0 28 -53 31 -250 14z"/>
<path d="M1486 3481 c-4 -5 3 -7 14 -4 14 4 20 0 20 -11 0 -18 -30 -22 -47 -5
-8 8 -13 2 -18 -22 -6 -27 -4 -36 15 -51 12 -9 19 -22 16 -27 -3 -5 14 -24 39
-42 34 -26 48 -44 56 -76 6 -23 19 -49 29 -58 16 -15 17 -12 24 47 6 59 5 63
-21 83 -17 14 -23 26 -18 35 5 9 4 11 -4 6 -18 -11 -41 13 -41 41 0 22 -2 24
-15 13 -12 -10 -15 -10 -15 0 0 7 6 18 14 24 20 15 3 56 -23 56 -11 0 -22 -4
-25 -9z"/>
<path d="M7341 7663 c-27 -99 -34 -160 -37 -328 -3 -174 -2 -183 25 -270 15
-50 31 -115 34 -145 l6 -55 -16 33 c-9 17 -23 32 -30 32 -21 0 -16 -12 32 -75
25 -33 53 -80 62 -105 10 -25 34 -77 54 -117 20 -39 34 -75 30 -80 -3 -6 -21
-15 -40 -21 -60 -21 -101 -59 -101 -94 l0 -31 91 6 c62 5 96 3 105 -4 20 -16
49 53 34 81 -13 24 -13 33 0 25 14 -9 13 -5 -11 44 -21 44 -38 125 -22 106 13
-16 36 -18 30 -2 -3 8 -1 20 4 28 5 9 7 4 5 -16 -1 -17 -8 -29 -14 -28 -15 4
-16 -34 0 -43 8 -5 9 -2 5 10 -6 14 -3 16 13 11 22 -7 23 -3 20 60 -2 45 -7
55 -19 36 -5 -7 -12 -12 -17 -11 -4 1 -11 -7 -15 -17 -7 -17 -8 -17 -8 0 -1
10 -8 20 -17 24 -8 3 -13 11 -10 18 3 8 -2 16 -10 19 -8 3 -14 13 -14 21 0 9
-5 13 -11 9 -19 -11 0 77 27 124 13 23 36 62 50 87 14 25 24 45 21 45 -6 0
-93 -149 -111 -191 l-15 -34 -1 33 c0 18 -4 31 -9 27 -12 -7 -16 8 -32 114 -7
46 -15 78 -17 72 -2 -7 1 -41 8 -77 21 -110 -2 -94 -42 29 -50 155 -58 196
-58 286 0 74 2 81 40 140 44 67 103 181 98 186 -2 2 -23 -33 -46 -78 -23 -45
-54 -95 -67 -112 l-25 -30 0 55 c1 30 9 96 19 145 19 93 20 126 2 58z"/>
<path d="M1895 7331 c-9 -11 -41 -32 -72 -46 -30 -15 -57 -34 -60 -42 -5 -12
-9 -11 -24 3 -12 11 -19 13 -19 5 0 -7 -7 -19 -15 -27 -20 -20 -19 -50 4 -99
19 -42 52 -78 76 -81 7 -1 25 16 40 37 23 36 176 159 197 159 4 0 8 10 7 23 0
12 -3 16 -6 10 -9 -23 -21 -14 -42 30 -24 48 -57 59 -86 28z"/>
<path d="M43 6782 l-43 -3 0 -213 1 -214 49 -6 c82 -11 230 29 230 62 0 15 5
18 25 14 22 -4 26 0 32 28 5 28 8 31 18 17 13 -18 59 -12 48 6 -4 6 4 8 21 5
27 -5 44 6 26 17 -17 10 -2 24 20 18 15 -4 20 0 21 13 0 18 1 18 9 -1 7 -17 9
-15 9 12 1 43 -41 91 -136 153 -116 77 -207 102 -330 92z"/>
<path d="M1800 5416 c0 -24 -96 -86 -134 -86 -42 0 -80 -28 -71 -53 8 -20 14
-21 51 -7 22 9 29 7 40 -9 17 -23 115 -38 155 -22 51 19 53 92 5 166 -18 27
-46 34 -46 11z"/>
<path d="M10120 4261 c-19 -11 -45 -30 -58 -44 l-23 -25 28 -19 c24 -17 154
-73 168 -73 3 0 5 41 5 90 l0 90 -42 0 c-24 -1 -59 -9 -78 -19z"/>
<path d="M190 1395 c-7 -8 -17 -15 -23 -15 -5 0 -24 -10 -41 -23 -17 -12 -52
-34 -78 -47 l-48 -25 0 -92 c0 -51 2 -93 5 -93 3 0 18 11 33 25 15 14 31 25
37 25 5 0 19 12 29 27 15 20 17 30 8 44 -8 13 -9 26 -2 45 11 28 50 82 50 69
0 -4 7 -2 15 5 8 7 12 17 8 23 -3 5 2 16 12 23 10 8 16 16 13 19 -3 3 -11 -1
-18 -10z"/>
<path d="M5724 1172 c17 -28 37 -441 37 -776 0 -175 2 -316 6 -313 6 6 10 135
14 420 1 75 5 137 9 137 5 0 7 15 6 33 -2 17 0 34 4 37 4 3 3 68 -2 145 -5 77
-7 167 -5 200 3 40 2 53 -4 38 -17 -45 -34 -24 -41 51 -2 16 -9 32 -17 34 -8
3 -11 0 -7 -6z"/>
<path d="M4949 604 c0 -5 -2 -22 -4 -39 -2 -16 -6 -116 -9 -222 -5 -184 -18
-283 -37 -283 -5 0 -9 -13 -9 -30 l0 -30 70 0 c39 0 70 3 70 8 0 4 -9 16 -21
26 -13 11 -19 25 -16 37 3 10 1 22 -4 25 -5 3 1 19 13 36 l22 31 -30 -7 c-19
-4 -24 -3 -15 3 9 6 11 16 6 27 -9 22 -13 95 -18 282 -2 73 -7 135 -11 139 -3
3 -6 2 -7 -3z"/>
</g>
</svg>
