
<?xml version="1.0" standalone="no"?>
<!DOCTYPE svg PUBLIC "-//W3C//DTD SVG 20010904//EN"
 "http://www.w3.org/TR/2001/REC-SVG-20010904/DTD/svg10.dtd">
<svg version="1.0" xmlns="http://www.w3.org/2000/svg"
 width="1024.000000pt" height="1024.000000pt" viewBox="0 0 1024.000000 1024.000000"
 preserveAspectRatio="xMidYMid meet">
<metadata>
Created by potrace 1.16, written by Peter Selinger 2001-2019
</metadata>
<g transform="translate(0.000000,1024.000000) scale(0.100000,-0.100000)"
fill="#000000" stroke="none">
<path d="M0 9929 l0 -310 52 3 52 3 -2 50 c-2 28 -6 73 -9 100 -12 87 -9 140
5 137 8 -1 11 2 7 7 -3 6 -12 8 -19 5 -10 -4 -16 24 -25 113 -20 197 -21 203
-42 203 -18 0 -19 -13 -19 -311z"/>
<path d="M465 10208 c13 -79 47 -360 53 -438 6 -66 10 -85 22 -85 8 0 70 4
138 8 141 10 129 -7 113 150 -5 51 -15 144 -21 207 -6 63 -13 132 -16 153 l-6
37 -144 0 -145 0 6 -32z"/>
<path d="M1044 10228 c4 -12 13 -96 37 -338 16 -163 8 -150 87 -145 37 2 98 7
136 11 l68 6 -6 52 c-3 28 -13 135 -22 239 l-17 187 -143 0 c-110 0 -142 -3
-140 -12z"/>
<path d="M2040 10233 c0 -4 7 -87 15 -183 8 -96 15 -183 15 -192 0 -11 8 -18
19 -18 10 0 24 -7 31 -15 15 -18 0 -40 -33 -49 -23 -5 -23 -6 -11 -90 7 -46
15 -146 19 -222 12 -248 14 -255 76 -268 l27 -6 6 -177 c4 -98 9 -211 12 -251
l6 -72 -51 -22 c-47 -19 -50 -22 -37 -37 13 -14 46 -233 46 -302 0 -12 5 -16
14 -13 10 4 15 -6 18 -40 3 -42 1 -46 -20 -46 -13 0 -32 -5 -43 -11 -16 -8
-32 -6 -69 7 -45 16 -52 16 -114 1 -101 -25 -163 -75 -254 -204 -30 -43 -84
-163 -110 -243 -22 -71 -47 -240 -57 -390 -8 -118 -17 -148 -72 -232 -23 -38
-64 -101 -89 -140 -26 -40 -64 -93 -84 -118 -20 -25 -40 -50 -43 -57 -8 -12
78 30 103 52 8 7 34 24 58 39 l42 26 0 -28 c0 -19 -8 -33 -27 -45 -16 -10 -21
-17 -13 -16 8 1 25 1 37 0 20 -1 21 -4 12 -30 -6 -17 -22 -34 -40 -41 -38 -16
-37 -30 1 -30 17 0 30 -4 30 -10 0 -5 -8 -10 -19 -10 -10 0 -30 -9 -43 -20
-14 -10 -28 -16 -32 -13 -3 3 -6 0 -6 -7 0 -7 -3 -11 -6 -7 -9 9 -65 -14 -61
-26 2 -6 19 -16 38 -23 l34 -12 -29 -1 c-29 -1 -29 -1 -10 -23 17 -19 17 -21
2 -15 -10 4 -18 4 -18 1 0 -2 12 -9 26 -14 14 -6 22 -14 19 -20 -3 -5 -1 -10
6 -10 6 0 20 -10 31 -22 19 -22 19 -22 -4 -40 l-23 -18 28 10 c25 9 27 8 18
-9 -6 -10 -7 -22 -3 -26 4 -5 1 -5 -5 -1 -7 4 -21 2 -30 -3 -15 -8 -15 -11 -3
-12 8 -1 18 -1 22 -1 3 1 9 -5 12 -14 4 -10 2 -13 -7 -8 -6 4 -2 -4 11 -18 20
-22 21 -26 8 -31 -9 -4 -16 -1 -16 6 0 7 -27 24 -59 40 -64 30 -71 32 -71 16
0 -5 5 -7 10 -4 5 3 10 1 10 -5 0 -6 4 -9 8 -6 5 3 17 -9 27 -27 11 -18 20
-26 23 -18 3 9 9 8 23 -5 10 -9 16 -21 13 -25 -3 -5 2 -6 11 -3 9 4 15 3 14
-2 -2 -5 25 -37 59 -72 59 -60 77 -89 50 -79 -7 2 -13 10 -13 17 0 7 -6 15
-14 18 -9 3 -11 0 -6 -8 5 -9 4 -11 -3 -6 -7 4 -12 14 -12 22 0 8 -5 12 -10 9
-5 -3 -10 -3 -10 2 0 14 -89 65 -101 57 -7 -4 -9 -3 -5 4 8 14 -71 14 -98 0
-15 -8 -18 -7 -13 5 3 9 0 14 -11 13 -30 -2 -40 -18 -23 -38 18 -21 35 -24 26
-5 -4 6 1 3 10 -8 9 -11 21 -19 26 -17 6 1 8 -2 4 -8 -3 -6 -11 -7 -17 -4 -6
4 -9 1 -6 -7 3 -8 13 -13 22 -13 14 2 15 -1 4 -14 -12 -13 -10 -14 10 -3 14 7
22 8 22 1 0 -5 8 -10 18 -10 14 0 15 -2 2 -10 -12 -8 -11 -10 8 -10 12 0 22
-4 22 -10 0 -5 5 -10 10 -10 14 0 68 -50 55 -51 -6 -1 0 -4 13 -7 13 -4 22
-10 20 -13 -3 -6 27 -39 36 -39 3 0 15 -9 26 -20 12 -12 26 -18 32 -14 7 4 8
3 4 -4 -4 -7 -2 -12 3 -12 6 0 11 -5 11 -11 0 -6 -7 -9 -15 -5 -8 3 -15 1 -15
-4 0 -14 24 -12 39 3 11 10 13 8 8 -10 -3 -16 -1 -23 10 -23 8 0 12 -4 8 -9
-3 -6 1 -13 8 -18 14 -8 52 -73 43 -73 -2 0 -13 16 -25 36 -13 21 -26 32 -33
28 -7 -5 -8 -3 -3 6 6 10 4 12 -9 7 -9 -4 -15 -3 -13 1 3 4 -1 13 -9 20 -8 7
-14 10 -14 7 0 -3 -9 -1 -21 5 -17 10 -18 14 -7 28 8 9 8 13 1 9 -14 -9 -45 2
-38 14 3 5 -6 11 -21 15 -16 4 -22 9 -14 14 8 5 7 9 -5 14 -9 3 -22 3 -28 -1
-7 -4 -5 2 3 12 8 10 10 16 3 12 -6 -4 -14 -1 -16 5 -4 10 -6 10 -6 1 -1 -7
-9 -13 -18 -13 -14 0 -15 2 -5 9 10 6 5 14 -22 30 -20 13 -36 26 -36 31 0 4
-7 11 -16 14 -12 5 -15 2 -10 -11 5 -16 5 -16 -7 -2 -6 9 -23 19 -37 23 -14 4
-20 4 -15 -1 19 -15 4 -70 -15 -58 -5 3 -11 1 -15 -5 -3 -5 1 -10 9 -10 8 0
18 -5 22 -12 4 -6 3 -8 -3 -5 -6 4 -13 -4 -16 -19 -3 -17 1 -28 10 -31 8 -3
12 -11 10 -18 -3 -6 9 -20 26 -30 18 -11 26 -20 19 -23 -7 -2 -19 1 -26 7 -10
9 -17 7 -27 -6 -13 -17 -13 -17 5 -3 18 14 19 13 14 -7 -4 -16 -2 -20 10 -16
10 4 13 2 8 -5 -4 -7 -14 -12 -22 -12 -8 0 -14 -4 -14 -10 0 -5 5 -10 10 -10
7 0 7 -7 -1 -21 -8 -15 -8 -19 0 -15 6 4 12 1 13 -6 0 -7 2 -17 3 -23 2 -5 3
-20 4 -33 0 -13 5 -21 9 -18 4 2 14 0 22 -6 12 -8 12 -9 -2 -4 -10 3 -20 1
-23 -3 -2 -5 5 -11 16 -14 20 -5 20 -7 5 -22 -20 -20 -20 -19 0 -57 9 -16 11
-27 5 -24 -6 4 -11 3 -11 -2 0 -5 10 -14 23 -21 12 -6 15 -10 5 -7 -20 6 -18
-11 4 -43 10 -13 15 -28 12 -33 -3 -4 5 -9 18 -9 17 -1 18 -3 6 -6 -10 -2 -18
-11 -18 -18 0 -9 6 -12 15 -9 11 5 13 2 9 -10 -5 -12 0 -16 22 -17 18 -1 22
-3 11 -6 -14 -4 -16 -8 -6 -19 6 -7 15 -11 20 -8 5 3 9 1 9 -4 0 -5 12 -17 26
-27 15 -9 23 -12 19 -5 -4 7 4 4 19 -5 14 -10 40 -19 57 -20 16 -1 32 -5 35
-8 3 -3 18 -1 34 4 27 10 35 37 15 51 -5 4 -10 13 -10 20 0 13 -46 40 -55 32
-3 -3 10 -18 28 -32 34 -28 40 -46 20 -58 -7 -5 -8 -3 -3 6 5 9 1 10 -16 6
-21 -6 -21 -5 -6 4 23 15 13 30 -21 31 -18 1 -21 3 -9 6 14 4 16 8 7 18 -13
16 -4 39 11 30 5 -4 9 -1 9 5 0 6 -13 16 -30 21 -16 6 -31 14 -31 17 -8 38 -5
53 8 48 8 -3 18 -6 21 -7 4 0 -2 -4 -13 -9 -19 -8 -19 -9 3 -9 25 -1 30 17 7
25 -8 4 -15 10 -15 15 0 5 7 5 18 0 30 -17 85 -41 91 -41 3 0 -9 10 -26 21
-18 12 -33 25 -33 30 0 5 -6 9 -14 9 -7 0 -19 6 -26 14 -6 8 -17 13 -24 10 -6
-2 -20 3 -31 12 -11 8 -14 13 -7 9 6 -3 12 -1 12 4 0 6 -4 11 -9 11 -5 0 -11
7 -15 15 -4 12 -2 13 12 6 11 -6 24 -6 35 0 9 6 17 7 17 3 0 -3 8 0 17 7 11
10 14 10 9 2 -4 -7 -2 -13 3 -13 6 0 11 -7 11 -15 0 -8 8 -15 19 -15 10 0 26
-11 34 -24 15 -23 15 -24 -6 -20 -17 3 -15 1 6 -8 17 -8 27 -19 27 -33 0 -12
6 -27 12 -33 10 -10 10 -14 0 -21 -10 -6 -10 -10 3 -21 8 -7 15 -19 15 -27 0
-7 11 -36 25 -62 19 -38 31 -51 54 -56 38 -8 59 -31 43 -47 -9 -9 -12 -8 -12
6 0 13 -5 17 -20 13 -10 -3 -21 0 -24 7 -2 6 -5 3 -5 -6 -1 -12 -9 -18 -26
-18 -17 0 -25 -6 -26 -17 0 -15 -2 -15 -9 2 -5 11 -9 14 -9 6 -1 -9 -8 -11
-23 -6 -13 4 -47 6 -76 5 -59 -1 -95 7 -87 21 4 5 1 9 -4 9 -6 0 -11 -6 -11
-14 0 -25 -18 -27 -39 -5 -17 19 -21 20 -26 7 -4 -9 -14 -14 -25 -11 -10 3
-21 -1 -25 -7 -5 -9 -1 -10 15 -5 13 4 20 3 17 -2 -3 -5 3 -10 14 -10 12 -1
17 3 13 10 -3 7 1 4 9 -5 8 -10 17 -15 20 -11 4 3 7 1 7 -5 0 -13 30 -4 43 12
6 7 7 5 4 -5 -4 -11 3 -20 19 -28 13 -6 24 -16 23 -23 0 -10 -2 -10 -6 0 -2 6
-9 12 -14 12 -6 0 -7 -4 -4 -10 3 -5 -1 -10 -9 -10 -9 0 -16 -5 -16 -11 0 -5
-4 -7 -10 -4 -5 3 -10 1 -10 -5 0 -13 32 -9 42 5 4 5 9 7 12 4 3 -3 -6 -21
-19 -41 l-24 -36 22 5 c16 3 18 2 8 -5 -7 -5 -10 -15 -7 -21 4 -6 4 -11 -1
-11 -4 0 -16 -14 -26 -31 -15 -28 -16 -31 -1 -25 11 4 15 2 11 -7 -3 -8 3 -13
14 -13 23 0 23 0 3 34 -16 26 -16 26 10 -3 14 -16 25 -23 24 -15 -2 8 3 14 10
13 6 -2 12 4 12 13 0 8 4 12 10 9 5 -3 10 -1 10 6 0 7 3 9 7 5 4 -3 13 4 21
16 7 13 11 15 8 6 -3 -10 -1 -18 4 -18 6 0 10 6 10 14 0 8 13 28 30 46 17 18
30 34 30 36 0 2 8 12 18 22 18 18 50 18 67 0 7 -8 6 -9 -2 -4 -7 3 -14 -2 -18
-14 -3 -11 -12 -20 -20 -20 -8 0 -16 -9 -20 -19 -3 -11 -12 -22 -20 -25 -8 -3
-15 -15 -15 -27 0 -16 -5 -20 -20 -16 -18 5 -18 3 -4 -18 17 -27 44 -23 37 4
-6 22 50 66 68 55 7 -4 9 -3 6 3 -7 11 10 31 28 32 6 1 10 10 10 21 0 10 5 23
9 27 5 4 6 3 3 -3 -4 -7 0 -15 9 -18 8 -3 13 -2 10 3 -6 9 15 21 35 21 19 0 8
-27 -17 -38 -15 -7 -22 -17 -18 -24 5 -7 2 -9 -9 -5 -12 4 -14 2 -10 -11 3 -9
3 -14 -1 -10 -12 10 -34 -15 -28 -32 4 -13 3 -13 -9 0 -8 8 -13 13 -12 11 1
-2 -4 -16 -13 -32 -14 -28 -34 -39 -34 -19 0 6 -7 6 -19 -2 -11 -7 -17 -18
-13 -27 4 -13 1 -12 -16 3 -12 11 -22 14 -22 8 0 -6 5 -14 10 -17 15 -9 12
-24 -5 -21 -19 3 -44 26 -28 26 19 0 23 28 5 42 -11 9 -14 9 -8 1 4 -7 2 -22
-4 -34 -9 -17 -8 -25 7 -42 l18 -22 -22 19 c-13 11 -23 27 -23 37 0 10 -4 20
-9 23 -5 4 -7 -4 -3 -16 5 -21 4 -22 -13 -8 -17 14 -18 14 -7 -7 15 -28 15
-36 0 -27 -7 4 -1 -4 14 -19 31 -29 35 -39 13 -31 -8 4 -15 10 -15 15 0 5 -5
9 -11 9 -5 0 -7 -5 -3 -12 5 -8 2 -9 -10 -5 -14 6 -16 3 -11 -16 5 -19 4 -20
-7 -5 -11 15 -13 15 -23 -5 -9 -18 -7 -26 12 -47 13 -14 31 -47 41 -74 11 -32
25 -51 41 -57 19 -8 21 -12 11 -23 -6 -8 -10 -32 -8 -53 3 -34 7 -39 43 -52
50 -18 326 -20 367 -3 20 8 28 20 33 49 10 62 35 122 70 168 19 24 30 47 27
51 -4 4 -1 4 6 0 7 -4 27 2 45 13 17 11 53 25 79 31 l47 12 -4 50 c-2 27 -5
50 -7 52 -31 21 -60 36 -50 25 17 -18 15 -39 -4 -39 -8 0 -13 -4 -9 -10 3 -5
13 -7 23 -4 14 5 14 4 3 -4 -21 -15 -39 -4 -46 30 -4 16 -14 32 -23 35 -10 4
-21 11 -25 17 -6 7 -7 4 -3 -6 3 -12 0 -18 -9 -18 -8 0 -15 5 -15 12 0 6 -3 9
-6 5 -3 -3 -2 -12 2 -19 20 -31 13 -38 -23 -23 -20 8 -38 15 -42 15 -3 0 0 4
7 9 11 7 11 9 -2 14 -9 4 -15 3 -15 -1 3 -21 -3 -31 -16 -26 -8 4 -15 10 -15
15 0 4 7 6 15 3 10 -4 13 0 10 16 -3 17 -1 20 13 15 37 -15 55 -15 22 0 -21
10 -45 13 -60 9 -24 -6 -24 -7 -5 -15 15 -7 11 -8 -15 -4 -31 5 -33 4 -12 -7
12 -6 22 -15 22 -21 0 -5 -11 -2 -24 7 -14 9 -31 13 -39 10 -8 -3 -18 -1 -22
5 -4 7 1 8 12 4 16 -6 16 -5 -1 16 -19 21 -19 21 -1 15 14 -6 16 -4 10 6 -6 9
-4 11 4 6 7 -5 21 0 32 10 13 11 37 18 67 19 38 0 49 4 57 23 13 30 41 28 49
-3 6 -22 9 -23 26 -13 10 7 17 15 14 19 -2 4 4 14 14 21 10 7 24 29 32 48 8
19 29 60 48 90 18 30 35 65 38 78 4 12 10 22 15 22 5 0 9 7 9 15 0 8 3 15 8
15 8 0 22 32 43 95 8 22 26 62 41 88 16 26 28 51 28 54 0 3 10 21 21 40 17 27
24 32 31 21 7 -9 8 -7 5 9 -3 13 -2 25 3 28 10 6 33 -22 36 -43 1 -10 5 -43 8
-75 9 -80 61 -258 102 -345 50 -104 48 -106 -65 -110 -88 -3 -97 -5 -127 -32
-21 -18 -50 -31 -79 -35 -30 -5 -45 -12 -45 -22 0 -13 10 -14 58 -8 31 4 63 7
70 6 6 0 18 -2 25 -3 7 -1 25 2 41 6 15 4 25 3 22 -2 -3 -5 9 -9 27 -10 128
-5 187 -15 187 -31 0 -16 -41 -41 -67 -41 -7 0 -13 -4 -13 -8 0 -5 -23 -14
-51 -21 -46 -12 -53 -18 -71 -57 -10 -24 -20 -44 -21 -44 -1 0 -2 14 -3 31 -1
17 2 25 6 19 13 -21 21 22 11 58 -7 23 -6 30 1 26 6 -4 8 -1 6 7 -3 8 -11 13
-18 11 -7 -2 -33 -5 -56 -7 -24 -2 -48 -6 -54 -10 -5 -3 -10 0 -10 8 0 10 -7
13 -19 10 -15 -4 -18 -13 -17 -49 1 -25 -3 -44 -9 -44 -5 0 -4 -4 3 -9 8 -4
13 -11 13 -15 -3 -19 1 -27 20 -45 19 -17 20 -26 14 -68 -6 -36 -9 -43 -15
-28 -5 16 -8 12 -14 -20 -4 -22 -13 -46 -19 -54 -10 -12 -8 -13 13 -8 14 4 35
7 46 7 12 0 32 8 44 18 21 17 21 21 9 43 -8 13 -14 36 -14 51 -1 24 2 27 24
21 19 -5 23 -3 18 9 -4 11 1 15 16 14 22 -2 24 -7 13 -36 -3 -8 9 -32 28 -54
l34 -40 159 32 c212 43 259 42 313 -9 37 -36 64 -37 156 -6 81 28 157 43 134
28 -25 -18 10 -13 40 5 l25 15 -25 -7 c-33 -9 -28 -4 62 55 49 32 78 46 82 38
2 -7 5 -4 5 6 1 21 -1 21 -43 3 -32 -13 -71 -7 -47 8 19 12 12 25 -16 29 -19
3 -14 4 15 6 24 0 60 9 79 18 31 14 33 18 19 28 -8 7 -13 15 -9 19 4 4 1 5 -7
2 -8 -4 -28 -8 -45 -10 -26 -4 -53 -11 -144 -37 -7 -2 -15 1 -18 7 -3 10 7 16
72 39 27 10 73 18 115 19 37 1 77 31 72 55 -2 8 2 17 9 22 10 6 9 10 -4 15
-11 4 -54 -7 -105 -26 -106 -39 -221 -59 -233 -39 -12 20 -3 26 53 32 29 4 77
16 106 27 28 11 53 20 55 19 11 -2 86 15 82 19 -2 3 0 11 5 17 7 9 7 21 0 39
-8 21 -16 26 -44 26 -44 0 -66 -9 -66 -25 0 -17 -49 -33 -136 -44 -79 -9 -94
-6 -94 20 0 10 -6 19 -14 19 -17 0 -38 -24 -29 -33 3 -4 0 -7 -8 -7 -8 0 -20
-9 -27 -21 -28 -44 -240 -110 -284 -87 -12 5 -18 5 -18 -2 0 -5 -7 -10 -15
-10 -8 0 -15 5 -15 10 0 6 5 10 10 10 18 0 11 15 -12 25 -30 13 -36 45 -9 45
11 0 24 -7 29 -16 7 -12 13 -14 28 -6 31 16 147 54 167 54 9 -1 17 3 17 9 0 5
8 9 17 9 9 0 13 3 10 7 -4 3 3 11 15 17 13 6 28 23 35 36 7 14 13 21 13 15 1
-5 12 12 26 39 21 44 25 94 6 82 -4 -2 -8 7 -8 21 -1 13 -11 35 -23 47 -12 12
-19 25 -16 28 3 2 -7 11 -23 19 -15 8 -30 18 -34 24 -11 14 -10 27 1 21 5 -3
8 5 7 19 0 14 -5 25 -10 25 -4 0 -6 6 -3 14 3 7 0 19 -6 25 -8 8 -8 11 1 11 9
0 10 5 3 18 -6 11 -6 24 1 37 9 16 8 18 -2 8 -11 -10 -16 -8 -25 10 -17 34
-13 82 7 81 14 -1 16 4 11 30 -4 17 -15 37 -25 44 -10 7 -23 23 -28 35 -10 20
-10 20 3 5 24 -30 27 -20 6 17 -20 34 -39 46 -39 25 0 -6 9 -29 19 -50 35 -73
5 -50 -35 25 -21 41 -42 75 -46 75 -5 0 -4 -8 1 -17 25 -46 70 -143 67 -143
-2 0 -14 15 -26 33 -12 17 -19 23 -15 12 16 -45 16 -60 0 -32 -9 15 -13 36
-10 46 7 22 -4 53 -16 45 -5 -3 -6 1 -3 9 3 8 -2 14 -11 14 -18 0 -18 -2 -5
-28 6 -10 8 -19 6 -19 -3 0 -13 14 -22 31 -8 17 -11 28 -6 25 12 -7 23 19 16
37 -3 8 2 33 10 56 9 27 11 51 6 69 -7 23 -15 14 -11 -11 1 -4 -5 -15 -13 -22
-11 -11 -15 -12 -19 -2 -3 8 -10 6 -20 -8 -15 -20 -16 -19 -26 8 -6 15 -10 31
-10 35 4 26 -3 49 -16 49 -8 0 -15 -4 -15 -8 0 -5 -7 -6 -15 -3 -11 5 -13 2
-9 -10 3 -9 11 -13 18 -9 8 4 8 3 -1 -7 -8 -9 -16 -9 -30 -1 -10 6 -13 11 -6
11 6 0 9 8 6 19 -3 13 5 26 27 41 l32 23 -7 -22 c-3 -11 -2 -21 3 -21 4 0 9
15 10 33 4 69 7 85 16 80 9 -6 1 23 -20 75 -12 30 -27 41 -37 25 -2 -5 -3 -3
-1 3 1 6 -6 35 -17 65 -10 30 -18 65 -18 79 l1 25 11 -25 c18 -39 57 -90 69
-90 6 0 -1 15 -15 34 -15 18 -24 36 -21 39 3 3 -8 29 -25 58 -27 50 -31 70
-51 259 -11 113 -24 221 -28 240 l-8 35 -30 -65 c-17 -36 -65 -119 -106 -185
-123 -196 -125 -205 -62 -205 28 0 38 -6 52 -30 9 -16 22 -30 28 -30 5 0 21
-15 34 -32 39 -54 123 -150 154 -177 52 -46 73 -133 39 -163 -57 -49 -103 -44
-184 21 -60 48 -77 50 -109 16 -28 -30 -35 -31 -67 -5 -23 18 -23 25 0 21 5
-1 6 2 3 7 -8 14 51 65 65 57 7 -5 10 -4 6 2 -4 5 4 16 16 22 24 14 87 88 87
102 0 12 -145 -111 -187 -159 -17 -20 -29 -40 -27 -44 3 -4 1 -8 -4 -8 -12 0
-62 39 -61 48 3 21 -3 31 -15 26 -7 -3 -29 11 -49 30 -34 33 -35 36 -24 71 6
20 35 61 64 92 30 30 65 75 79 99 l26 44 -30 0 c-17 0 -33 4 -36 8 -6 10 49
63 107 106 40 29 77 80 77 106 0 11 -3 11 -12 2 -15 -15 -54 -16 -63 -2 -3 6
0 10 8 10 20 0 28 37 11 51 -14 11 -9 65 7 83 14 16 11 42 -17 129 -14 46 -35
90 -47 100 -21 18 -22 18 -37 0 -19 -23 -86 -24 -118 -2 -21 15 -21 17 -6 30
12 10 40 13 90 12 40 -2 76 2 79 7 3 6 -10 19 -29 31 -34 20 -35 22 -22 48 8
15 14 34 13 41 -1 21 34 100 45 100 4 0 8 5 8 11 0 6 10 19 23 30 14 12 17 18
8 19 -11 0 -10 4 3 19 10 11 19 28 20 38 4 26 31 28 81 4 25 -12 49 -21 54
-21 15 0 40 -47 47 -89 10 -61 21 -40 29 52 8 96 -11 170 -76 300 l-40 78 -14
242 c-8 133 -21 393 -30 577 -9 184 -22 450 -30 590 -8 140 -19 372 -25 515
-6 143 -13 270 -16 283 -4 19 -11 22 -54 22 l-50 0 -1 -67 c-1 -38 -4 -54 -7
-38 -4 26 -5 28 -12 10 -8 -17 -9 -16 -9 8 -1 16 3 26 9 22 6 -4 10 8 10 29
l0 34 -165 2 c-91 0 -165 -3 -165 -7z m388 -1167 c-3 -25 0 -32 9 -29 10 4 13
-5 11 -33 -1 -22 0 -75 2 -119 l4 -80 6 110 6 110 2 -112 c1 -79 6 -113 15
-116 8 -2 11 -26 10 -80 -1 -43 2 -77 8 -77 5 0 9 -37 10 -82 0 -52 3 -76 8
-63 5 12 7 -8 6 -50 -1 -38 1 -77 5 -85 4 -8 10 -60 14 -115 3 -55 8 -118 10
-139 l5 -39 -49 48 c-57 56 -53 34 -70 400 -6 127 -13 245 -16 263 -4 23 -2
32 5 27 7 -4 11 9 10 37 l-2 43 -7 -35 c-4 -25 -8 -2 -11 75 -4 112 0 210 8
187 3 -7 3 -28 1 -46z m-379 -1681 c11 -19 17 -35 12 -35 -14 0 -30 -79 -21
-109 20 -71 63 -121 103 -121 10 0 49 14 87 30 93 41 104 40 96 -7 -34 -201
-38 -216 -60 -248 -39 -57 -51 -57 -149 -10 -39 19 -75 35 -79 35 -4 0 -18 11
-32 25 -14 14 -31 25 -39 25 -8 0 -31 32 -52 72 -37 70 -38 73 -31 152 3 45
10 82 16 84 5 2 10 12 10 23 0 10 3 19 8 19 4 0 13 15 21 33 33 76 76 89 110
32z"/>
<path d="M3915 10038 c4 -125 12 -230 22 -274 10 -47 13 -88 8 -125 -9 -68
-11 -301 -6 -574 4 -191 3 -210 -12 -209 -10 1 -17 -3 -17 -8 0 -6 -11 -7 -26
-4 -18 5 -24 3 -18 -5 5 -8 -1 -10 -20 -7 -15 3 -26 1 -26 -6 0 -6 -4 -5 -9 3
-7 10 -13 11 -29 2 -12 -6 -25 -10 -29 -9 -14 3 -63 -25 -63 -36 0 -6 -5 -5
-12 2 -7 7 -44 12 -96 12 -68 0 -91 -4 -118 -21 -19 -11 -38 -17 -44 -14 -14
9 -85 -29 -130 -68 -46 -39 -76 -89 -99 -162 -23 -74 -20 -130 14 -267 43
-172 46 -179 55 -173 6 4 10 -3 10 -14 0 -29 64 -141 100 -176 33 -32 38 -45
15 -45 -8 0 -28 21 -44 47 l-29 46 5 -69 c7 -92 21 -150 35 -136 7 7 24 1 53
-19 24 -16 46 -29 50 -29 12 0 -2 110 -17 127 -12 15 -11 15 9 5 12 -7 24 -12
27 -12 9 0 26 73 26 110 0 68 6 76 58 74 26 -1 53 -3 60 -3 17 -1 15 -26 -3
-41 -9 -7 -14 -19 -11 -26 3 -7 0 -14 -6 -16 -17 -6 48 -221 85 -280 28 -47
32 -61 32 -123 0 -73 4 -81 58 -119 20 -14 20 -15 3 -15 -19 -1 -131 74 -155
103 -7 9 -17 14 -21 11 -4 -3 -13 2 -20 10 -7 8 -9 15 -6 15 4 0 1 7 -7 15 -9
8 -17 20 -20 27 -5 15 -39 -20 -63 -67 -22 -40 -21 -40 -39 -25 -11 9 -15 32
-15 82 0 59 -2 69 -14 59 -8 -7 -22 -41 -31 -76 -23 -82 -16 -195 20 -349 32
-141 69 -220 130 -277 70 -65 167 -197 186 -254 13 -37 19 -46 24 -32 8 20 25
23 25 5 0 -7 -6 -24 -13 -38 -7 -15 -10 -42 -6 -70 3 -25 7 -38 7 -30 1 8 36
84 79 170 139 283 163 345 175 450 10 85 9 103 -10 177 -11 45 -18 92 -15 104
l6 23 -22 -21 c-21 -20 -22 -23 -10 -88 24 -142 -16 -293 -105 -390 l-36 -40
19 35 c23 41 27 65 18 103 -16 63 -17 77 -7 77 5 0 10 -7 10 -15 0 -8 9 -19
20 -25 15 -8 19 -18 15 -38 -5 -25 -5 -25 4 -4 12 25 3 85 -10 76 -5 -3 -6 2
-3 10 3 9 11 16 16 16 6 0 8 23 3 63 -4 34 -8 94 -11 134 -3 67 -2 73 21 91
14 11 25 25 25 32 0 6 5 8 10 5 6 -3 10 -1 10 6 0 6 18 33 40 59 l39 47 -24
11 c-27 12 -36 46 -10 36 8 -4 15 -1 15 6 0 6 5 8 10 5 6 -3 10 -15 10 -26 0
-41 27 -12 36 39 1 7 10 24 19 38 24 37 55 157 68 264 6 47 47 93 47 53 0 -15
2 -15 14 -3 18 19 49 113 71 214 16 69 16 89 5 170 -8 50 -14 105 -16 121 -1
17 -11 57 -23 89 -15 41 -21 83 -21 138 0 62 -3 78 -15 78 -12 0 -13 -12 -8
-66 l6 -67 -43 47 -43 46 -5 140 -5 140 -57 0 c-43 0 -59 4 -64 15 -5 15 6
165 20 248 6 37 6 37 53 37 l47 0 -3 338 c-2 185 -6 392 -9 460 l-6 122 -99 0
-100 0 6 -202z"/>
<path d="M6157 10153 c-4 -49 -12 -261 -18 -473 -20 -722 -22 -775 -39 -776
-8 0 -23 -4 -32 -8 -11 -5 -24 0 -37 13 -24 24 -22 23 -111 25 -43 1 -64 5
-63 13 3 16 -45 31 -95 28 -44 -2 -166 -57 -215 -95 -37 -29 -107 -130 -151
-217 -32 -62 -37 -83 -42 -165 -8 -126 14 -259 52 -319 21 -33 31 -65 39 -128
5 -47 15 -86 22 -88 12 -4 12 21 0 33 -11 11 -8 122 3 129 16 10 31 -43 23
-87 -6 -40 -5 -41 20 -34 41 10 59 -2 52 -34 -5 -23 -2 -30 14 -35 12 -3 21
-9 21 -13 2 -33 64 -62 74 -36 3 9 10 12 16 9 5 -3 10 1 10 9 0 9 5 16 11 16
17 0 7 -83 -11 -87 -56 -13 -81 -14 -115 -4 -44 12 -57 8 -26 -8 11 -6 47 -12
81 -14 33 -1 60 -5 60 -9 0 -5 -8 -8 -19 -8 -10 0 -24 -7 -31 -15 -9 -10 -9
-15 -1 -15 6 0 11 -9 11 -21 0 -15 4 -19 16 -15 9 3 18 6 20 6 2 0 4 6 4 14 0
7 7 19 15 26 8 7 29 39 47 72 17 32 33 57 35 55 2 -2 -1 -33 -6 -68 -8 -56 -7
-67 9 -90 20 -28 17 -39 -9 -39 -28 0 -46 -17 -34 -32 5 -7 7 -24 3 -38 -5
-21 -11 -25 -38 -22 -18 2 -32 1 -32 -2 0 -3 14 -21 31 -40 17 -20 28 -40 25
-45 -4 -5 -1 -13 5 -16 5 -4 8 -13 5 -21 -3 -8 -1 -14 4 -14 6 0 10 -5 10 -11
0 -6 -7 -8 -16 -5 -10 4 -13 2 -8 -7 3 -6 -6 2 -20 18 -15 17 -35 47 -46 67
-30 55 -40 56 -40 1 -1 -46 -1 -47 -15 -23 -8 14 -17 50 -20 80 -7 54 -51 186
-66 196 -4 2 -34 -27 -65 -66 -32 -38 -64 -70 -71 -70 -7 0 -13 -8 -13 -18 0
-10 -10 -38 -22 -63 -12 -24 -22 -50 -22 -58 -1 -8 -7 -16 -15 -19 -10 -3 -12
3 -7 25 8 36 -20 111 -36 95 -7 -7 -6 -16 1 -30 6 -11 11 -30 11 -42 0 -34
-31 -20 -63 28 -30 44 -62 55 -74 25 -8 -20 88 -113 117 -113 30 0 31 -15 3
-41 -18 -17 -27 -20 -30 -11 -8 20 -80 62 -108 62 -48 0 -75 -46 -56 -95 13
-33 -10 -46 -41 -23 -16 11 -28 15 -28 9 0 -5 5 -13 10 -16 20 -13 -1 -24 -26
-15 -14 6 -30 8 -35 4 -14 -8 -11 -42 7 -76 l16 -31 -31 6 c-31 6 -31 6 -31
-33 0 -22 -5 -40 -11 -40 -6 0 -9 -14 -8 -34 2 -21 -3 -39 -14 -50 -15 -16
-15 -20 -2 -45 8 -16 35 -47 60 -69 37 -32 42 -41 28 -45 -10 -2 -26 -8 -37
-12 -15 -7 -17 -5 -12 11 4 15 -4 30 -29 54 -40 39 -53 35 -31 -9 19 -36 14
-62 -24 -135 -34 -63 -60 -148 -60 -193 l0 -34 33 24 c17 13 38 27 45 32 27
15 -9 -29 -44 -55 -25 -18 -33 -31 -29 -45 5 -23 -33 -146 -49 -157 -6 -4 -25
-8 -42 -8 -17 0 -60 -15 -95 -34 -35 -18 -80 -37 -99 -41 -68 -14 -87 -31 -92
-76 l-4 -41 46 7 c25 4 53 11 62 16 24 13 92 11 106 -3 26 -26 12 -36 -55 -43
-147 -14 -164 -18 -189 -51 l-24 -31 21 -27 c21 -26 21 -26 115 -20 85 6 94 5
88 -10 -6 -16 7 -21 48 -17 11 1 15 -4 11 -17 -4 -17 23 -51 35 -44 3 1 7 -3
9 -10 1 -7 5 -25 9 -39 6 -26 4 -27 -45 -34 -28 -4 -58 -13 -66 -21 -7 -8 -18
-14 -23 -14 -6 0 -8 -9 -5 -20 4 -14 17 -22 46 -27 42 -6 87 -41 87 -66 0 -8
-12 -17 -27 -20 -30 -5 -87 -24 -115 -38 -10 -5 -25 -6 -34 -2 -11 4 -22 -1
-30 -12 -13 -17 -14 -17 -14 -2 0 17 -10 21 -43 17 -10 -1 -24 4 -32 10 -8 6
-16 7 -19 2 -3 -5 19 -23 49 -38 37 -19 60 -40 70 -61 19 -40 19 -107 0 -126
-18 -19 -11 -25 21 -19 19 3 23 8 17 21 -4 9 -7 37 -6 64 1 26 -3 47 -8 47 -5
0 -9 10 -8 23 0 21 1 21 9 2 8 -18 9 -18 9 -2 2 31 21 7 21 -25 0 -41 11 -29
13 14 2 26 6 33 22 31 11 -1 23 4 27 10 4 7 8 -15 9 -48 0 -43 3 -54 9 -40 5
11 9 14 9 8 1 -19 21 -16 21 3 0 9 7 22 16 29 21 15 15 49 -6 35 -12 -8 -13
-12 -2 -19 11 -6 10 -10 -3 -15 -23 -9 -25 -8 -25 9 0 9 11 27 25 41 17 17 25
20 25 10 0 -17 14 -22 87 -31 46 -6 52 -5 58 15 4 11 3 40 0 63 -4 23 -8 73
-9 112 -2 69 -32 198 -45 191 -4 -3 -6 14 -6 36 1 76 89 114 191 82 103 -32
155 -106 157 -224 0 -44 2 -48 18 -39 25 13 34 32 53 116 19 84 20 152 5 222
-9 45 -8 52 10 70 11 11 25 39 31 63 6 24 15 56 20 72 6 16 10 43 10 60 0 17
11 48 25 68 28 42 30 56 13 127 -8 35 -8 55 -1 62 6 6 15 -24 27 -93 28 -163
25 -293 -10 -443 -23 -101 -21 -112 29 -126 23 -7 35 -14 27 -16 -12 -3 -15
-18 -15 -66 0 -34 3 -66 7 -72 3 -5 6 -35 7 -67 0 -48 -4 -60 -26 -82 -14 -14
-31 -26 -37 -26 -6 -1 -42 -16 -81 -35 -63 -31 -67 -34 -38 -34 17 -1 62 -8
100 -17 37 -9 73 -17 78 -18 6 -1 15 -5 21 -8 18 -12 36 236 32 457 l-3 200
43 124 c43 122 44 126 27 154 -12 20 -15 39 -10 63 l6 35 102 -3 102 -3 3 -34
c2 -23 -3 -44 -18 -64 -18 -23 -20 -33 -12 -51 6 -11 27 -65 47 -119 31 -85
35 -107 31 -160 -4 -45 -3 -53 3 -27 8 35 8 35 9 5 1 -16 -3 -61 -9 -100 -6
-38 -7 -98 -4 -132 l7 -63 36 0 c20 1 56 5 80 9 62 12 51 -2 -23 -30 -36 -13
-64 -27 -62 -31 4 -12 151 -163 185 -190 l34 -27 28 20 c24 19 43 21 161 23
l134 1 0 26 c1 14 10 38 22 55 11 16 35 59 52 96 18 37 46 79 63 93 l31 26 11
-23 c13 -24 10 -58 -5 -58 -5 0 -9 5 -9 12 0 6 -3 8 -7 5 -3 -4 4 -18 16 -31
22 -23 23 -31 18 -110 -2 -47 -1 -86 4 -86 5 0 9 7 9 15 0 8 6 15 13 15 9 0 8
3 -2 9 -11 7 -11 9 0 14 12 4 11 7 -1 16 -12 9 -10 11 10 11 20 0 22 2 10 10
-12 8 -12 10 5 10 19 1 18 2 -2 10 -19 8 -22 16 -21 54 2 32 6 42 13 36 13
-11 35 7 35 27 0 8 13 13 33 13 18 0 38 5 43 10 7 7 9 1 6 -21 -5 -31 -4 -32
28 -26 18 4 39 7 46 7 19 0 39 46 28 63 -5 7 2 1 14 -13 32 -34 63 -103 71
-159 l6 -46 35 60 c39 68 122 153 159 162 20 5 30 0 53 -28 32 -38 59 -115 49
-142 -4 -10 -32 -34 -62 -55 -83 -55 -113 -83 -128 -119 -7 -18 -12 -35 -11
-39 3 -10 -53 -44 -72 -44 -11 0 -18 8 -18 20 0 36 -59 48 -61 12 0 -10 -3
-12 -5 -5 -4 8 -18 10 -37 8 -18 -3 -26 -3 -19 1 17 8 15 24 -3 24 -8 0 -15
-4 -15 -10 0 -5 -6 -7 -14 -4 -8 3 -34 -4 -58 -14 -52 -24 -63 -19 -26 13 24
20 25 24 10 28 -12 3 -11 5 6 6 12 0 22 6 22 11 0 8 -100 16 -132 11 -5 0 -8
8 -8 20 0 11 -4 17 -10 14 -5 -3 -10 -31 -10 -61 0 -31 -5 -64 -10 -75 -11
-20 -50 -27 -50 -9 0 6 -4 10 -9 10 -17 0 1 -40 28 -63 14 -13 27 -30 29 -38
2 -7 9 -20 16 -27 11 -12 11 -23 1 -63 -13 -47 -12 -49 8 -54 173 -40 182 -41
157 -25 -12 8 -11 10 7 10 12 0 34 -5 49 -10 15 -6 29 -9 31 -6 2 2 -14 10
-37 18 l-41 13 68 47 c142 97 367 227 405 233 41 7 49 19 21 30 -16 6 -16 8
-3 18 9 7 22 27 30 45 7 19 18 39 24 45 24 26 63 95 85 152 12 33 34 82 48
109 14 27 21 46 14 42 -11 -7 56 124 69 134 3 3 23 33 43 66 32 53 37 70 36
120 0 33 -6 79 -12 104 -10 38 -16 45 -43 51 -38 7 -96 42 -146 87 l-36 33
-13 -38 c-16 -49 -152 -373 -183 -438 l-25 -50 0 48 c-1 36 -12 70 -47 138
-25 50 -43 93 -41 95 2 3 20 -17 41 -42 20 -26 36 -40 36 -32 0 8 10 28 21 42
19 24 22 42 23 124 1 121 -9 311 -19 334 -7 19 -35 33 -35 18 0 -6 -4 -10 -9
-10 -6 0 1 25 15 55 13 31 24 73 24 93 0 29 7 45 30 67 30 29 38 67 21 109 -6
16 -11 14 -41 -20 -19 -22 -38 -38 -42 -36 -4 1 -8 -2 -8 -7 0 -5 -7 -12 -15
-15 -9 -3 1 15 22 39 37 45 37 45 35 128 -4 118 -55 277 -89 277 -18 0 -16 9
4 34 10 12 14 18 9 14 -5 -4 -22 0 -37 9 -32 19 -49 12 -29 -12 7 -9 11 -18 8
-20 -3 -3 -11 6 -18 20 -8 15 -20 23 -27 21 -8 -3 -16 1 -19 9 -3 7 -12 11
-19 8 -8 -2 -27 2 -44 10 -17 9 -34 11 -42 6 -10 -6 -11 -9 -1 -9 6 0 12 -5
12 -11 0 -6 -6 -9 -14 -6 -7 3 -18 1 -24 -5 -6 -6 -25 -8 -46 -4 -44 8 -45 20
-15 141 17 69 19 88 9 100 -19 23 -57 18 -76 -10 -20 -31 -25 -31 -55 -2 -14
12 -27 24 -30 27 -8 6 -39 -19 -39 -32 0 -5 5 -6 12 -2 7 4 8 3 4 -4 -4 -6
-13 -9 -21 -5 -8 3 -15 1 -15 -4 0 -4 -9 -14 -21 -21 -30 -19 -75 1 -83 36
-11 47 -27 80 -41 86 -12 4 -13 -7 -8 -58 4 -42 2 -66 -6 -70 -6 -4 -12 -1
-12 6 -1 7 -4 0 -8 -17 -6 -29 -7 -29 -18 -9 -6 11 -17 57 -24 102 -15 90 -29
90 -29 0 0 -57 -18 -124 -27 -100 -3 7 -23 -16 -45 -50 -54 -85 -118 -168
-130 -168 -5 0 -4 9 2 20 7 14 7 20 0 20 -6 0 -8 10 -4 25 8 34 -3 75 -21 75
-9 0 -15 10 -15 26 0 14 4 23 10 19 6 -3 10 5 10 19 0 14 5 28 10 31 19 12 10
25 -17 25 -27 1 -27 1 -9 15 19 14 18 15 -5 24 -20 8 -13 10 35 10 54 1 61 4
91 36 19 19 37 49 40 67 11 48 29 80 75 129 l40 44 -5 -55 c-4 -41 -3 -49 5
-32 5 12 22 27 37 33 36 13 72 47 85 79 6 14 12 20 15 14 2 -6 -5 -35 -17 -63
-25 -63 -27 -136 -4 -145 26 -10 36 -7 30 10 -4 9 -2 84 4 166 12 162 9 183
-20 191 -13 3 -17 11 -13 26 7 25 12 26 28 4 11 -15 14 -3 21 72 4 50 7 124 6
165 0 41 6 215 13 385 27 591 28 645 17 645 -37 0 -40 -10 -41 -135 -1 -69 -6
-218 -11 -332 -5 -114 -10 -262 -10 -327 0 -115 -1 -119 -19 -102 -10 9 -29
38 -43 64 l-25 47 18 410 c10 226 20 427 24 449 3 21 8 122 10 225 3 102 7
228 11 279 l5 92 -114 0 -114 0 -6 -87z m-1225 -3806 c20 -1 34 -5 32 -8 -5
-9 21 -19 47 -19 10 0 37 -16 59 -36 44 -40 47 -59 4 -25 -33 26 -116 51 -163
50 l-36 -1 38 -9 c48 -11 124 -51 161 -83 43 -38 25 -42 -28 -6 -45 31 -96 50
-126 50 -13 -1 17 -21 75 -49 26 -12 85 -67 85 -79 0 -5 -17 -1 -38 9 -57 29
-128 39 -196 28 -33 -6 -64 -12 -68 -15 -5 -3 -18 2 -28 11 -11 10 -24 14 -31
9 -9 -5 -11 -1 -7 14 4 13 2 20 -4 16 -5 -3 -6 -20 -3 -37 5 -24 4 -28 -4 -17
-9 13 -11 12 -12 -5 -1 -18 -2 -18 -6 -2 -3 13 -10 16 -21 12 -10 -4 -26 -9
-37 -12 -20 -4 -20 -4 -1 11 11 9 27 16 37 16 11 0 24 19 38 53 12 28 27 63
34 76 17 34 83 63 127 55 19 -3 51 -6 72 -7z"/>
<path d="M6459 10108 c-1 -73 -2 -151 -3 -172 -1 -42 11 -54 36 -34 13 11 17
44 22 176 l7 162 -30 0 -30 0 -2 -132z"/>
<path d="M8787 9953 c-15 -159 -54 -587 -87 -953 -71 -793 -97 -1079 -110
-1220 -6 -58 -10 -132 -10 -165 0 -57 1 -58 16 -37 16 23 117 92 134 92 6 0
10 3 10 8 0 4 18 18 41 32 22 14 45 33 50 42 5 9 27 203 49 430 21 227 75 772
120 1212 44 439 80 809 80 822 l0 24 -133 0 -133 0 -27 -287z"/>
<path d="M9180 10228 c0 -7 -7 -74 -14 -148 -27 -256 -76 -735 -81 -800 -3
-36 -15 -146 -25 -245 -11 -99 -26 -256 -35 -350 -8 -93 -20 -217 -25 -275 -6
-58 -15 -148 -20 -200 -5 -52 -14 -151 -20 -219 -7 -67 -10 -134 -7 -147 2
-15 -2 -25 -12 -29 -11 -4 -12 -8 -4 -13 7 -4 10 -16 8 -27 -2 -11 -4 -23 -4
-26 -1 -3 -30 -18 -66 -34 -36 -15 -70 -36 -76 -46 -9 -17 -7 -18 18 -7 15 6
32 15 38 20 5 4 13 8 18 8 5 0 -18 -20 -51 -45 -62 -47 -92 -83 -92 -111 0
-12 -6 -15 -23 -10 -14 3 -33 -1 -46 -11 -19 -13 -25 -13 -32 -2 -6 9 -9 -1
-10 -31 -1 -38 -2 -41 -9 -20 -4 14 -8 19 -9 13 -1 -19 -31 -16 -31 3 0 9 -5
12 -12 8 -14 -9 10 26 27 39 6 4 5 11 -5 16 -16 11 -40 -4 -40 -25 0 -7 -5
-16 -12 -20 -7 -5 -8 -3 -3 6 5 9 4 11 -4 6 -6 -4 -11 -13 -9 -19 4 -28 -54
-98 -69 -83 -7 7 17 46 26 43 12 -3 15 17 3 21 -7 2 -75 -66 -121 -123 -22
-27 -23 -10 -2 44 28 69 27 129 -2 241 -14 52 -28 122 -32 155 -10 84 -47 156
-122 236 -75 79 -136 113 -236 130 -56 9 -74 9 -94 -2 -14 -8 -31 -14 -37 -15
-6 0 -20 -2 -31 -3 l-20 -2 20 -9 c18 -8 18 -9 2 -9 -18 -1 -57 -31 -40 -31 4
0 -6 -8 -22 -18 -37 -23 -111 -100 -145 -151 -35 -52 -88 -107 -95 -99 -9 9
28 90 61 135 34 45 108 120 149 150 l30 21 -40 -10 c-22 -5 -54 -12 -72 -15
-17 -3 -49 -19 -70 -37 -21 -17 -50 -40 -65 -49 -30 -19 -38 -43 -12 -33 14 5
15 4 4 -9 -7 -8 -20 -14 -28 -13 -20 4 -86 -81 -124 -159 -16 -35 -34 -65 -39
-69 -5 -3 -9 -40 -8 -82 0 -67 2 -73 11 -47 23 65 65 88 98 55 12 -12 28 -19
35 -16 20 7 39 -30 59 -119 11 -44 30 -96 43 -115 l23 -35 -42 -5 c-60 -7 -57
-30 7 -46 127 -32 145 -38 145 -45 0 -8 -59 -24 -74 -21 -4 2 -15 -3 -24 -10
-13 -11 -14 -11 -8 0 6 10 1 13 -20 10 -15 -2 -29 -8 -31 -14 -4 -13 80 -59
127 -69 36 -7 70 -31 70 -48 0 -6 11 -25 26 -44 14 -18 22 -33 19 -33 -3 0 3
-9 13 -20 10 -11 25 -33 32 -48 7 -15 19 -40 27 -55 8 -16 13 -30 11 -32 -2
-3 -33 -17 -68 -33 -38 -18 -58 -32 -51 -36 7 -4 18 -2 26 4 22 19 85 -10 85
-38 0 -6 4 -12 9 -14 15 -6 24 -48 9 -49 -71 -8 -79 -5 -99 28 -11 18 -24 33
-29 33 -10 0 -20 -52 -20 -111 0 -44 3 -50 30 -64 18 -10 57 -15 106 -15 85 0
118 14 186 78 34 32 36 33 31 11 l-6 -24 29 25 c16 14 37 34 47 45 18 20 18
19 13 -23 -5 -33 -3 -43 6 -39 7 2 21 0 31 -5 9 -5 17 -5 17 0 0 14 44 62 57
62 9 0 9 -8 2 -29 -13 -37 -8 -83 9 -89 7 -2 15 9 18 27 6 29 24 44 24 21 0
-6 6 -10 13 -9 25 3 37 -1 37 -15 0 -7 14 -16 30 -20 17 -3 33 -14 37 -23 4
-10 19 -35 34 -55 15 -21 30 -54 33 -73 4 -20 11 -33 17 -29 5 3 15 1 22 -4 7
-5 24 -12 40 -16 34 -8 36 12 5 54 -12 16 -19 33 -15 36 3 4 33 1 66 -5 33 -6
72 -9 86 -5 37 9 128 -33 120 -55 -9 -23 -9 -22 -1 -64 6 -25 17 -42 36 -53
15 -9 33 -31 40 -49 8 -21 18 -31 27 -28 19 7 40 -13 46 -46 3 -15 19 -42 36
-60 35 -37 36 -67 4 -76 -13 -3 -23 -13 -24 -23 0 -10 -3 -12 -6 -5 -3 9 -11
7 -25 -7 -12 -11 -40 -22 -64 -26 -24 -3 -42 -10 -39 -14 2 -4 -4 -15 -15 -25
-27 -24 -140 -25 -195 -1 -40 17 -128 104 -119 118 3 4 15 4 27 0 12 -4 33 -7
47 -6 14 1 38 2 53 3 26 1 47 25 34 38 -4 3 -26 7 -51 8 -24 2 -57 11 -73 20
-15 9 -20 14 -10 11 9 -3 17 -1 17 4 0 6 -8 10 -17 10 -10 0 -28 3 -40 6 -31
8 -29 -10 2 -24 28 -13 33 -32 9 -32 -10 0 -14 -6 -10 -15 3 -8 2 -15 -3 -15
-5 0 -14 7 -21 15 -7 8 -21 15 -31 15 -18 0 -35 33 -25 49 4 5 1 11 -5 13 -7
2 -13 15 -14 28 -2 26 -25 41 -25 16 0 -9 -9 -24 -20 -33 -11 -10 -20 -24 -21
-33 0 -10 -2 -11 -6 -2 -2 6 -13 12 -23 12 -14 0 -21 14 -33 63 l-14 62 -8
-42 c-4 -24 -12 -40 -17 -37 -5 3 -8 -11 -6 -31 1 -23 -3 -40 -12 -45 -13 -8
-12 -10 3 -10 21 0 21 -13 2 -76 -16 -52 -19 -83 -6 -49 6 15 9 7 12 -31 3
-35 0 -50 -7 -47 -7 2 -14 -13 -18 -40 -6 -40 -9 -44 -31 -39 -19 3 -27 -2
-36 -21 -17 -37 -4 -86 41 -156 42 -65 49 -91 25 -91 -7 0 -18 -6 -22 -13 -12
-20 -77 -27 -139 -16 -44 8 -58 7 -76 -5 -12 -9 -31 -16 -40 -16 -35 0 -44
-44 -25 -118 9 -37 17 -78 17 -92 1 -14 7 -36 15 -50 8 -14 14 -39 15 -57 0
-42 -56 -77 -111 -70 -28 4 -53 -3 -98 -24 -33 -16 -68 -29 -76 -29 -8 0 -54
-20 -101 -45 -88 -47 -154 -60 -154 -30 0 25 -17 17 -45 -20 l-27 -34 -48 32
c-27 18 -63 41 -80 52 -16 11 -55 38 -85 59 -35 25 -64 38 -82 37 -15 -1 -48
-2 -71 -4 l-44 -2 6 -38 c5 -32 60 -162 97 -229 13 -24 11 -35 -7 -64 -13 -19
-19 -22 -31 -13 -11 10 -10 15 7 31 25 23 26 47 3 50 -10 0 -23 2 -30 2 -7 1
-18 8 -25 16 -11 12 -11 12 5 1 23 -18 24 5 0 39 -28 41 -115 140 -124 140 -4
0 -6 -16 -4 -35 3 -36 21 -70 53 -102 17 -17 47 -91 40 -98 -2 -2 -29 14 -62
36 -32 21 -62 39 -66 39 -8 0 -20 -49 -20 -82 0 -10 4 -17 8 -14 5 3 15 -6 22
-20 8 -14 35 -34 61 -46 33 -14 46 -24 42 -34 -7 -18 -35 -11 -84 22 -19 13
-38 24 -42 24 -12 0 6 -65 26 -91 16 -23 17 -30 7 -50 -11 -20 -10 -25 16 -46
16 -12 52 -28 81 -34 49 -11 53 -11 81 13 28 23 47 30 160 58 23 6 42 15 42
20 0 13 3 13 -59 -6 -29 -8 -56 -13 -59 -10 -3 3 2 6 11 6 9 0 20 8 25 17 6 9
50 35 98 57 137 62 142 61 399 -59 49 -23 112 -25 99 -3 -4 6 2 7 16 3 12 -4
40 -1 63 8 23 8 74 23 112 32 39 10 97 30 130 45 108 50 130 54 315 54 135 0
217 -6 360 -26 292 -42 391 -51 403 -39 6 6 19 11 29 11 16 0 17 3 7 21 -8 17
-8 24 3 36 16 15 16 15 133 -164 25 -40 48 -73 49 -73 2 0 27 54 56 120 59
136 53 132 164 105 155 -40 244 -79 209 -92 -7 -3 -13 -11 -13 -19 0 -7 -29
-43 -65 -80 -36 -37 -65 -71 -65 -75 0 -12 -38 -49 -50 -49 -5 0 -13 -6 -17
-12 -21 -34 -137 -85 -231 -103 -42 -8 -97 -21 -122 -29 -161 -50 -198 -58
-305 -72 -27 -3 -110 -14 -183 -24 -139 -20 -230 -15 -297 14 -16 8 -46 19
-65 26 -96 34 -117 44 -142 68 -15 15 -28 32 -28 38 0 6 -10 19 -21 30 -12 10
-25 29 -30 42 -5 13 -13 21 -17 18 -5 -3 -48 4 -97 15 -49 10 -94 19 -101 19
-16 0 -74 -147 -87 -220 l-4 -25 -2 26 c0 14 -12 36 -26 49 -33 31 -32 43 6
75 17 14 30 27 28 28 -2 2 -30 11 -61 21 -46 15 -63 17 -82 8 -21 -9 -24 -9
-19 3 4 12 -1 14 -25 9 -17 -4 -32 -1 -36 5 -4 6 -20 11 -36 11 -16 0 -32 5
-35 10 -6 10 15 15 44 10 12 -1 12 0 0 12 -21 20 -87 48 -113 48 -13 0 -39 7
-57 16 l-34 15 30 -4 c17 -3 39 -1 50 3 17 6 14 9 -21 19 -69 19 -99 22 -114
12 -12 -8 -9 -14 15 -36 17 -14 38 -28 48 -31 23 -7 22 -23 -2 -17 -29 7 -88
-25 -120 -66 -16 -20 -41 -43 -55 -50 -14 -8 -23 -18 -20 -23 3 -4 -1 -8 -9
-8 -8 0 -17 9 -20 20 -3 12 -1 18 5 14 5 -3 17 4 26 17 20 27 35 62 24 55 -18
-11 -111 -14 -114 -4 -3 7 -9 8 -19 3 -8 -5 -23 -11 -34 -12 -27 -5 -36 -16
-57 -69 -18 -50 -15 -77 6 -48 9 11 22 15 39 12 15 -3 24 -1 21 3 -3 5 1 9 8
9 7 0 25 7 40 14 26 14 51 5 28 -9 -6 -4 -8 -11 -5 -16 3 -5 -1 -6 -10 -3 -19
7 -68 -23 -60 -37 4 -5 3 -9 -2 -8 -15 2 -53 -13 -53 -22 0 -5 -11 -7 -25 -3
-27 7 -32 -4 -15 -36 15 -27 166 -83 207 -77 20 4 33 2 33 -5 0 -6 9 -8 21 -5
11 3 41 -1 67 -8 71 -21 115 -25 129 -13 32 26 1 -49 -43 -108 -36 -47 -29
-52 9 -6 17 22 43 42 57 45 45 9 420 -40 500 -66 105 -34 160 -45 280 -61 58
-8 141 -24 185 -36 261 -70 583 -107 783 -90 109 10 160 2 255 -39 58 -25 57
-25 57 -6 0 14 97 71 106 62 3 -2 -14 -23 -36 -47 l-41 -43 73 -32 c40 -18
102 -46 138 -62 36 -17 93 -42 126 -57 l61 -28 79 64 c44 35 116 87 162 117
l82 54 0 617 0 617 -27 13 c-16 8 -47 13 -69 11 -50 -3 -114 26 -132 61 -7 13
-17 50 -21 81 -8 59 -24 81 -68 93 -15 4 -23 14 -23 28 0 13 -14 30 -38 46
-47 32 -53 40 -47 66 6 26 -5 35 -68 58 -89 33 -99 60 -67 192 25 102 24 110
-22 166 -22 28 -19 50 5 30 16 -13 97 -33 97 -23 0 3 -35 20 -77 37 l-78 30
-8 50 c-4 27 -15 71 -23 97 -9 27 -14 51 -11 53 10 10 161 -99 220 -158 32
-32 66 -58 75 -58 9 0 28 -16 42 -35 14 -19 30 -35 37 -35 20 0 72 -50 87 -83
8 -18 17 -50 21 -72 3 -22 12 -50 20 -62 8 -12 15 -28 15 -36 0 -12 144 -167
156 -167 2 0 4 371 4 825 l0 825 -24 -10 c-13 -5 -26 -7 -29 -4 -6 7 -72 -57
-86 -84 -7 -12 -16 -20 -20 -18 -4 3 -14 -6 -21 -19 -7 -14 -19 -25 -25 -25
-7 0 -21 -11 -31 -25 -10 -14 -26 -24 -34 -23 -8 1 -37 -19 -63 -45 -27 -26
-51 -45 -56 -43 -4 3 -16 -9 -26 -25 -11 -16 -28 -29 -37 -29 -10 0 -22 -9
-28 -20 -6 -11 -17 -20 -24 -20 -7 0 -21 -9 -31 -20 -19 -22 -55 -27 -55 -9 0
8 -5 8 -15 -1 -8 -7 -15 -17 -15 -22 0 -15 -37 -58 -44 -51 -3 3 -6 0 -6 -8 0
-8 -10 5 -21 29 -12 23 -33 49 -48 57 -14 8 -19 14 -11 15 8 0 29 -8 46 -19
l30 -18 25 36 c25 37 182 201 193 201 13 0 5 -18 -19 -46 -22 -25 -33 -54 -21
-54 2 0 26 22 54 49 36 35 49 55 46 69 -3 10 2 26 10 35 21 21 18 53 -16 177
-29 108 -91 249 -115 263 -7 4 -13 14 -13 21 0 8 -10 21 -22 30 -13 9 -17 14
-9 10 9 -5 12 -3 7 4 -4 7 -12 12 -17 12 -5 0 -19 9 -31 20 -23 21 -41 18 -31
-5 3 -10 -1 -15 -16 -15 -14 0 -23 -8 -27 -25 -3 -13 -13 -30 -22 -37 -13 -11
-15 -10 -9 12 4 14 7 29 7 33 0 5 3 6 8 4 4 -3 17 11 29 29 l22 34 -21 11
c-11 6 -35 8 -52 5 -22 -4 -27 -3 -16 4 12 7 8 10 -16 10 -17 0 -41 9 -54 20
-13 11 -27 20 -32 20 -5 0 -6 9 -3 20 8 24 -20 73 -38 67 -7 -2 -16 2 -22 8
-5 7 -29 19 -52 28 -31 12 -43 13 -47 4 -3 -9 -6 -9 -13 0 -11 15 -155 83
-177 83 -9 0 -16 -5 -16 -11 0 -6 -14 -9 -32 -7 -33 3 -33 4 -32 53 2 62 96
988 184 1820 37 342 60 573 60 593 0 15 -6 22 -20 22 -11 0 -20 -6 -20 -12z
m-95 -4198 c4 -6 11 -8 16 -5 5 4 24 -9 41 -28 35 -36 82 -57 129 -57 16 0 29
-5 29 -11 0 -14 -21 -52 -32 -60 -17 -11 -55 3 -89 32 -19 17 -46 36 -60 44
-28 15 -79 70 -79 86 0 12 37 12 45 -1z m-355 -569 c10 -25 9 -33 -6 -56 -17
-26 -17 -28 1 -61 18 -34 18 -35 -3 -64 -12 -16 -23 -39 -25 -52 -2 -19 5 -24
53 -35 78 -18 113 -14 120 16 5 22 9 17 38 -37 l33 -62 -133 0 c-96 1 -140 5
-158 15 -14 8 -36 14 -50 15 -15 0 -31 5 -37 11 -6 6 -33 10 -61 8 l-50 -4 3
37 c2 20 17 67 33 105 17 37 34 81 38 97 6 25 4 28 -10 23 -9 -4 -23 -10 -31
-13 -8 -3 -15 -2 -15 3 0 16 57 43 92 44 18 0 56 9 83 19 67 25 71 24 85 -9z"/>
<path d="M4713 10144 c-5 -13 -8 -13 -15 -2 -7 9 -8 8 -4 -5 3 -10 6 -28 6
-40 0 -18 2 -19 10 -7 7 11 8 6 4 -16 -8 -42 5 -49 91 -50 41 -1 71 -6 73 -13
2 -7 8 -7 17 2 12 13 11 52 -2 87 -4 8 -7 19 -7 24 -1 12 -90 36 -134 36 -21
0 -35 -6 -39 -16z"/>
<path d="M4190 9508 c0 -178 5 -208 32 -208 5 0 7 87 6 192 -3 174 -5 193 -20
196 -17 3 -18 -11 -18 -180z"/>
<path d="M1237 9673 c-32 -3 -51 -10 -59 -22 -11 -18 -48 -18 -48 1 0 5 -5 6
-11 3 -6 -4 -8 -23 -5 -48 7 -49 15 -59 23 -29 3 12 11 22 19 22 21 0 36 -39
39 -99 2 -31 5 -63 8 -71 6 -17 28 -187 32 -238 1 -19 7 -37 14 -41 6 -4 43
-2 82 3 l71 11 4 65 c3 35 0 107 -5 160 -6 52 -13 139 -17 193 l-6 97 -47 -2
c-25 -1 -67 -3 -94 -5z"/>
<path d="M645 9610 c-60 -4 -111 -8 -113 -9 -2 0 -1 -9 2 -18 6 -20 27 -178
51 -381 8 -74 18 -138 21 -144 4 -7 40 -7 103 -2 131 10 145 11 152 13 3 0 -1
49 -7 109 -7 59 -13 115 -14 125 0 26 -38 59 -60 52 -22 -7 -60 10 -60 26 0 6
9 22 19 35 15 19 20 21 25 9 10 -26 34 -16 41 16 4 17 4 65 0 105 -6 68 -9 74
-28 72 -12 -1 -71 -5 -132 -8z"/>
<path d="M65 9554 c-11 -3 -30 -7 -43 -10 l-23 -5 5 -277 c2 -152 5 -285 7
-295 3 -17 10 -18 84 -12 44 4 81 8 82 9 0 0 -5 60 -13 131 -8 72 -22 204 -32
295 -18 173 -18 174 -67 164z"/>
<path d="M849 8995 c-5 -5 -198 -34 -227 -35 -10 0 -12 -10 -8 -37 4 -21 15
-114 26 -208 11 -98 23 -171 30 -173 8 -3 8 -8 0 -17 -7 -9 -6 -16 5 -25 8 -7
12 -16 9 -21 -3 -5 0 -9 5 -9 6 0 11 21 11 48 0 37 4 49 15 49 8 0 15 -8 15
-18 0 -10 8 -35 17 -55 18 -36 18 -36 68 -30 27 3 61 6 75 6 l25 0 -8 112
c-24 365 -35 437 -58 413z"/>
<path d="M65 8867 c-33 -6 -61 -11 -63 -12 -1 -1 2 -13 7 -26 5 -13 13 -68 16
-122 8 -107 20 -132 63 -124 14 3 40 -1 58 -9 18 -8 43 -14 54 -14 17 0 20 6
20 48 0 26 -7 97 -15 157 -8 61 -15 111 -15 113 0 4 -66 -1 -125 -11z"/>
<path d="M1345 8481 c-69 -7 -95 -18 -74 -32 10 -6 11 -9 2 -9 -7 0 -13 -7
-13 -16 0 -8 4 -13 9 -9 11 6 15 -4 36 -115 20 -100 29 -114 67 -106 28 6 68
38 68 56 0 6 11 10 25 10 14 0 25 3 25 8 0 12 -17 34 -26 33 -4 -1 -10 10 -11
25 -3 20 0 25 10 21 18 -7 25 36 17 97 -5 36 -7 39 -40 41 -19 1 -62 -1 -95
-4z"/>
<path d="M802 8089 c-1 -47 -18 -75 -37 -59 -9 8 -14 6 -19 -6 -11 -28 -7 -34
22 -28 22 4 29 0 40 -23 10 -23 10 -30 -3 -42 -13 -13 -17 -13 -33 2 -10 9
-26 17 -35 17 -15 0 -17 -8 -13 -46 2 -25 6 -47 8 -49 7 -7 48 7 48 16 0 17
30 9 42 -11 17 -26 55 -26 63 0 4 11 0 29 -9 42 -11 15 -12 25 -5 34 13 16 -5
120 -24 143 -8 9 -17 24 -20 34 -11 31 -25 18 -25 -24z"/>
<path d="M106 7845 c-4 -15 -10 -25 -13 -22 -3 4 -18 0 -34 -8 -18 -10 -30
-11 -34 -5 -4 6 -11 8 -16 4 -6 -3 -9 -293 -9 -749 l0 -743 30 -12 c15 -6 37
-9 47 -6 32 10 38 7 40 -21 1 -16 5 -47 9 -71 5 -36 3 -46 -17 -66 -24 -23
-74 -32 -85 -15 -19 31 -24 -10 -24 -191 l0 -200 26 0 c14 0 32 6 40 14 18 19
18 27 -1 20 -9 -4 -15 0 -15 9 0 9 13 18 32 23 18 3 43 13 55 21 12 8 44 15
70 15 26 1 51 6 55 11 4 7 16 6 36 -2 39 -16 163 -22 180 -9 15 13 16 42 1 33
-6 -4 -16 1 -24 11 -12 17 -11 20 8 26 16 4 12 6 -16 7 -21 1 -36 5 -33 10 4
5 7 28 8 50 1 23 5 41 10 41 5 0 7 9 3 20 -5 15 -3 18 10 14 13 -5 15 -2 10
17 -5 20 1 30 33 53 37 28 62 66 62 93 0 37 71 126 122 152 15 8 30 22 34 33
3 10 10 18 15 18 6 0 7 9 4 20 -11 36 12 50 80 50 35 0 71 3 80 6 21 8 48 61
35 69 -6 3 -10 2 -10 -2 0 -9 -53 -43 -67 -43 -4 0 -1 4 6 9 12 8 10 11 -10
16 -14 3 -29 5 -35 4 -5 -1 -26 -1 -47 0 -53 1 -32 20 53 49 36 11 61 21 56
22 -12 0 25 29 38 30 6 0 1 -7 -10 -15 -17 -14 -15 -14 13 0 19 9 43 13 58 9
31 -8 64 28 65 70 0 24 -3 27 -20 22 -11 -3 -30 -9 -41 -13 -13 -3 -20 -2 -18
4 4 10 95 83 103 83 9 0 12 -36 5 -56 -17 -47 8 -43 63 11 68 66 98 125 105
204 7 79 -10 147 -69 266 -56 113 -77 142 -90 123 -6 -8 -7 -5 -3 10 4 13 2
22 -4 22 -6 0 -11 6 -11 13 0 6 -14 28 -30 47 -16 19 -30 41 -30 48 0 6 -6 12
-14 12 -9 0 -12 7 -9 19 3 13 -2 23 -16 31 -20 10 -21 9 -16 -17 8 -36 25 -73
45 -97 8 -11 9 -16 3 -12 -8 4 -11 2 -8 -7 3 -7 2 -24 -3 -38 -9 -23 -10 -23
-18 11 -4 19 -7 38 -6 42 2 9 -42 103 -56 121 -7 8 -23 12 -37 9 -19 -3 -27 1
-34 20 -12 32 -43 58 -48 41 -3 -7 -9 -13 -15 -13 -7 0 -6 5 1 14 8 10 9 16 1
21 -14 9 -23 -20 -16 -51 5 -17 1 -35 -9 -50 -9 -14 -11 -24 -5 -24 14 0 -28
-77 -45 -84 -9 -3 -9 4 0 31 7 19 16 38 21 42 5 3 10 23 10 43 1 20 4 52 8 72
4 22 2 37 -5 42 -8 5 -10 3 -4 -7 6 -11 5 -12 -6 -1 -7 6 -24 12 -37 12 -18 0
-22 4 -17 19 3 12 0 21 -10 25 -9 3 -13 2 -10 -4 8 -13 -5 -80 -15 -80 -5 0
-12 10 -16 22 l-6 21 -12 -21 c-8 -16 -15 -19 -26 -12 -10 7 -11 13 -5 18 6 4
10 28 10 54 0 36 -2 44 -12 36 -7 -5 -17 -7 -23 -3 -7 4 -14 -2 -17 -14 -3
-12 -9 -21 -14 -21 -12 0 -11 14 2 27 12 12 -4 53 -21 53 -4 0 -17 3 -27 7
-12 5 -9 -2 10 -21 16 -16 26 -34 23 -43 -3 -8 -6 -17 -6 -19 0 -16 -20 1 -30
26 -7 17 -18 30 -25 30 -8 0 -15 5 -17 11 -4 11 -24 17 -78 22 -14 1 -31 10
-39 20 -9 12 -22 17 -37 14 -13 -2 -24 0 -24 4 0 18 -28 8 -43 -15 -15 -22
-14 -24 10 -37 21 -11 27 -11 30 -1 10 27 25 11 19 -19 -7 -38 2 -79 18 -79 6
0 13 -11 14 -25 l2 -26 -22 21 c-12 11 -28 20 -35 20 -9 0 -12 9 -8 28 3 15 2
21 -1 15 -7 -16 -34 -17 -34 -2 0 5 -4 8 -9 5 -10 -6 -33 49 -24 57 2 3 8 21
13 41 7 32 6 34 -12 23 -15 -9 -20 -9 -27 1 -6 10 -10 7 -15 -13z"/>
<path d="M4164 7428 c5 -100 -14 -259 -41 -340 -8 -27 -16 -48 -18 -48 -2 0
-2 23 11 288 5 108 4 122 -10 122 -11 0 -16 9 -16 26 0 14 -4 23 -10 19 -5 -3
-10 -1 -10 6 0 9 -3 9 -14 0 -11 -9 -13 -35 -9 -119 4 -104 -12 -377 -24 -409
-4 -11 -2 -14 5 -9 9 5 10 -6 7 -41 l-5 -48 15 50 c8 28 15 69 15 93 0 23 4
42 8 42 5 0 7 15 6 33 -2 23 0 19 7 -13 8 -32 8 -54 0 -75 -6 -16 -20 -79 -31
-139 -12 -59 -30 -130 -41 -157 -21 -54 -25 -84 -9 -74 13 8 13 -8 1 -20 -11
-11 -69 -165 -112 -298 -16 -48 -33 -96 -39 -105 -21 -34 2 72 46 206 24 73
41 138 38 145 -2 7 10 55 27 107 33 103 63 270 50 283 -5 5 -11 -3 -15 -18 -4
-14 -22 -57 -41 -96 -19 -39 -37 -80 -41 -91 -3 -12 -42 -82 -86 -157 -57 -97
-84 -155 -95 -201 -8 -36 -23 -96 -33 -135 l-19 -70 5 85 c3 47 7 148 9 225 5
156 -7 207 -55 240 -35 24 -151 170 -171 215 -22 49 -34 55 -65 35 -14 -9 -44
-23 -66 -31 -48 -17 -53 -13 -63 55 -13 83 -15 96 -19 141 -3 40 -18 109 -32
149 -3 9 -8 10 -17 3 -25 -21 -18 -83 23 -213 31 -95 40 -138 35 -161 -6 -23
0 -45 21 -89 29 -62 44 -69 36 -19 -6 43 7 37 52 -23 l38 -52 -6 100 -7 100
21 -25 c11 -14 22 -40 26 -58 3 -18 10 -35 15 -38 5 -3 9 -20 9 -37 0 -18 5
-39 11 -47 8 -11 9 -5 5 25 -3 22 -8 50 -12 63 -9 31 16 29 40 -3 11 -14 25
-24 32 -21 8 3 11 0 7 -10 -3 -7 0 -14 6 -14 6 0 11 -7 11 -15 0 -8 5 -15 10
-15 6 0 10 5 10 10 0 6 15 -5 33 -23 l32 -34 3 -129 c3 -133 -16 -384 -28
-384 -11 0 -20 38 -21 90 -1 41 -2 42 -9 15 -13 -50 -27 -80 -45 -95 -15 -13
-16 -11 -11 21 3 19 10 80 17 136 6 57 15 101 19 98 4 -3 10 10 13 28 2 17 0
34 -5 36 -5 1 -1 9 9 16 20 15 14 29 -10 19 -11 -4 -17 -26 -22 -80 -4 -41
-10 -73 -12 -70 -3 3 -25 -15 -49 -39 -43 -45 -50 -61 -79 -186 l-14 -64 5 90
c4 70 0 125 -20 246 -15 86 -33 176 -41 200 l-14 44 6 -62 c4 -44 2 -63 -6
-63 -6 0 -11 7 -11 15 0 8 -4 15 -9 15 -5 0 -13 9 -16 20 -9 28 -25 15 -24
-18 1 -38 -9 -144 -15 -149 -7 -7 -18 41 -77 310 -16 78 -28 111 -41 118 -14
7 -18 6 -18 -6 0 -10 -31 15 -77 60 -73 72 -158 134 -169 123 -11 -11 11 -39
60 -77 91 -71 161 -156 190 -233 10 -27 22 -48 27 -48 12 0 43 -111 75 -270
24 -122 31 -140 67 -188 46 -61 62 -74 52 -43 -4 13 -2 21 5 21 6 0 9 8 6 18
-3 9 -2 31 3 47 8 27 10 23 12 -30 2 -33 3 -78 4 -101 1 -44 44 -121 97 -174
25 -25 34 -56 29 -97 -1 -7 11 -20 26 -29 38 -23 132 -123 144 -153 9 -21 13
-23 52 -17 112 19 257 36 305 36 93 0 142 38 142 110 0 33 3 35 31 20 10 -6
19 -7 19 -2 0 17 -45 29 -95 26 -49 -3 -49 -3 -23 12 28 15 52 47 42 57 -6 6
-56 -13 -64 -25 -3 -3 -19 -9 -35 -13 l-30 -7 30 17 c16 9 33 22 37 28 4 7 8
8 8 3 0 -11 29 25 30 37 0 5 -5 5 -12 1 -7 -5 -8 -3 -4 5 5 7 14 10 22 7 12
-4 12 -2 4 14 -6 11 -15 20 -19 20 -5 0 -11 11 -13 25 -4 21 -1 25 17 25 14 0
25 -7 28 -19 2 -10 14 -24 26 -30 17 -9 24 -8 41 9 11 11 20 32 20 46 0 14 4
23 10 19 14 -9 13 8 -2 23 -20 20 4 13 26 -7 l21 -20 1 227 c0 245 13 335 60
435 15 31 18 44 8 37 -20 -18 -19 4 7 76 15 44 21 88 23 174 1 63 1 100 -1 83
-3 -18 -8 -33 -13 -33 -4 0 -11 -16 -15 -36 -11 -61 -14 -33 -5 48 5 42 17 92
26 110 19 36 21 93 4 113 -6 7 -9 28 -8 46 2 26 -1 34 -16 37 -10 2 -16 0 -12
-6 7 -11 -13 -123 -24 -135 -4 -5 -7 8 -7 30 0 21 -3 66 -7 101 -8 60 -18 82
-30 63 -8 -12 -37 -147 -42 -196 -9 -79 -35 -227 -45 -248 -7 -17 -8 -11 -5
23 3 25 10 129 17 231 11 172 10 187 -6 212 -9 15 -24 27 -32 27 -11 0 -13
-17 -9 -92z"/>
<path d="M3121 7346 c-7 -8 -9 -41 -7 -87 l5 -74 -11 58 c-6 31 -15 57 -20 57
-4 0 -8 -4 -8 -10 0 -5 -7 -7 -15 -4 -8 4 -26 3 -40 0 -36 -9 -32 -37 18 -131
44 -82 146 -245 154 -245 4 0 -4 92 -22 251 -8 63 -11 134 -8 157 5 37 3 42
-14 42 -12 0 -26 -6 -32 -14z"/>
<path d="M7440 7231 c-10 -20 -42 -133 -37 -136 1 -1 19 -9 40 -19 40 -18 48
-28 20 -25 -52 5 -61 0 -59 -33 0 -22 -3 -32 -11 -30 -27 5 -11 -27 18 -37 21
-7 29 -16 27 -28 -2 -10 -11 -17 -21 -17 -21 2 -21 4 -1 -34 19 -38 27 -42 14
-7 -6 16 -6 25 0 25 6 0 10 -5 10 -11 0 -8 20 -10 60 -7 41 3 60 1 62 -8 2 -7
10 -2 21 12 17 23 17 24 -27 66 l-45 43 19 40 c23 48 20 76 -22 163 -31 64
-50 76 -68 43z"/>
<path d="M2765 6918 c4 -13 12 -25 16 -26 5 -2 6 -9 2 -15 -9 -14 -11 -87 -2
-81 3 2 7 -16 8 -39 2 -47 6 -75 14 -97 38 -109 57 -172 52 -180 -3 -6 1 -10
9 -10 8 0 18 -5 22 -12 5 -7 2 -9 -7 -4 -8 4 -3 -2 11 -13 28 -23 56 -28 43
-8 -4 6 -8 14 -8 17 -1 3 -9 22 -18 44 -9 21 -17 44 -17 50 0 6 -6 20 -13 31
-41 61 -96 309 -74 331 12 12 67 -18 67 -37 0 -10 5 -21 10 -24 6 -4 8 -11 5
-16 -4 -5 -3 -15 2 -21 4 -7 8 -17 9 -23 12 -69 11 -77 -1 -81 -10 -4 -8 -15
9 -47 13 -23 21 -47 19 -54 -2 -7 1 -22 7 -34 10 -17 9 -23 -1 -30 -11 -6 -10
-11 3 -26 9 -10 18 -24 20 -32 6 -27 32 -51 55 -51 26 0 28 10 9 63 -8 20 -10
40 -5 43 17 10 9 24 -15 24 -29 0 -49 47 -62 145 -1 11 -3 20 -4 20 0 0 -2 31
-4 68 -2 58 0 67 13 61 9 -4 30 -9 46 -11 29 -4 29 -3 -9 16 -21 11 -43 24
-50 29 -18 14 -87 39 -129 46 -37 7 -38 6 -32 -16z"/>
<path d="M957 6561 c-2 -11 -1 -23 3 -28 12 -13 20 -83 9 -83 -5 0 -9 -7 -9
-15 0 -8 -7 -15 -16 -15 -25 0 -66 -102 -59 -144 10 -50 -18 -124 -71 -192
-49 -64 -51 -73 -27 -115 17 -28 63 -42 63 -19 0 6 9 10 19 10 11 0 23 5 26
10 4 6 3 10 -2 9 -4 -1 -21 -1 -36 0 -35 1 -26 21 9 21 14 0 22 4 19 10 -3 6
-1 10 5 10 19 0 66 52 53 57 -20 7 -15 30 8 36 12 3 18 10 15 15 -3 5 2 9 12
8 10 0 16 6 16 17 -1 9 5 17 13 17 8 0 13 6 10 13 -2 6 0 24 4 39 8 30 -6 48
-39 51 -16 1 -19 5 -11 19 5 10 14 18 20 18 19 0 99 63 99 78 0 14 -105 178
-120 187 -4 3 -10 -4 -13 -14z"/>
<path d="M5508 6463 c-9 -38 -25 -99 -36 -138 -11 -38 -22 -95 -26 -125 -6
-55 -3 -58 8 -9 3 14 12 26 21 26 18 0 20 -18 4 -34 -14 -14 -2 -113 14 -113
7 0 5 -5 -3 -10 -12 -8 -19 -2 -32 28 l-17 37 -1 -31 c0 -46 12 -97 20 -85 3
7 7 -3 7 -21 1 -18 4 -56 8 -83 5 -37 3 -61 -9 -89 -22 -52 -20 -61 6 -36 12
11 25 20 30 20 4 0 8 9 8 21 0 11 -4 18 -9 15 -8 -5 -7 54 3 124 2 14 4 40 5
58 1 29 4 32 34 33 17 0 26 3 19 6 -6 2 -9 9 -6 14 3 6 -5 7 -20 3 -23 -5 -25
-4 -23 30 1 20 8 38 14 40 7 3 10 12 7 19 -6 17 42 30 105 27 32 -1 41 2 36
11 -5 7 -4 10 3 5 6 -3 13 -2 17 4 3 5 -5 12 -19 16 -30 7 -44 34 -18 34 19 0
22 30 7 83 -6 22 -10 26 -17 15 -7 -9 -8 -4 -3 15 4 19 2 26 -5 22 -10 -6 -13
7 -13 58 0 16 -5 27 -13 27 -8 0 -14 -7 -14 -15 0 -9 -7 -18 -16 -22 -20 -7
-37 17 -23 33 7 9 4 19 -10 33 -12 12 -22 21 -24 21 -1 0 -10 -30 -19 -67z"/>
<path d="M8450 6351 c-14 -26 -8 -91 8 -91 6 0 12 4 12 10 0 15 29 0 35 -19 4
-12 17 -18 42 -19 43 -2 63 12 63 42 0 63 -133 127 -160 77z"/>
<path d="M832 5899 c-17 -12 -33 -28 -34 -37 0 -10 -2 -22 -2 -29 -2 -23 -24
-37 -38 -25 -8 6 -33 15 -57 21 -34 7 -43 6 -48 -5 -4 -11 -9 -12 -19 -3 -8 6
-11 16 -7 22 4 6 -2 8 -17 4 -16 -4 -28 0 -36 11 -9 11 -13 12 -14 4 0 -8 -8
-10 -25 -6 -15 4 -25 2 -25 -5 0 -6 -7 -11 -15 -11 -8 0 -15 -4 -15 -9 0 -5
-3 -18 -7 -28 -6 -15 -4 -16 9 -5 13 11 17 9 22 -14 8 -32 0 -43 -17 -21 -18
24 -63 32 -70 13 -7 -18 -42 -22 -52 -6 -3 6 -20 10 -37 10 -17 0 -28 3 -24 7
3 4 29 6 56 4 55 -3 65 10 22 28 -37 16 -97 2 -218 -50 -50 -21 -99 -39 -108
-39 -9 0 -16 -4 -16 -9 0 -5 -9 -11 -20 -14 -30 -8 -28 -62 2 -71 l23 -7 -22
-11 -23 -11 2 -1246 c1 -685 4 -1219 7 -1186 6 59 6 60 39 62 44 4 89 -21 196
-106 99 -79 99 -79 127 4 7 22 16 45 20 50 4 6 19 42 34 80 40 101 42 102 84
63 44 -41 79 -61 91 -53 19 12 10 -18 -15 -47 -29 -34 -32 -48 -10 -48 8 0 15
-4 15 -9 0 -15 -47 -75 -109 -140 -69 -70 -73 -91 -28 -124 31 -24 115 -27
209 -8 29 5 73 11 98 13 38 3 47 7 60 32 12 24 23 30 55 33 22 2 76 10 120 18
150 28 190 35 284 45 52 6 98 13 102 15 4 3 67 14 141 25 266 41 435 60 523
60 58 0 95 4 103 12 7 7 12 8 12 2 0 -5 4 -4 8 2 4 6 32 28 62 48 60 41 86 76
67 88 -20 12 5 41 56 66 33 16 53 33 64 57 16 33 16 36 -2 49 -17 13 -17 14 2
33 13 13 19 32 19 59 -1 32 -5 40 -23 42 -29 4 -113 -33 -113 -50 0 -20 35
-38 60 -31 15 4 21 2 16 -5 -3 -6 2 -13 11 -15 12 -3 8 -5 -9 -6 -15 0 -30 -5
-33 -11 -3 -5 -11 -10 -16 -10 -6 0 -8 4 -4 9 3 5 1 12 -5 16 -5 3 -10 1 -10
-6 0 -8 -3 -9 -13 0 -8 6 -16 8 -19 5 -9 -8 -22 56 -19 90 2 16 -3 40 -10 53
-11 20 -10 26 6 41 10 9 15 12 11 5 -3 -7 2 -14 13 -18 11 -3 22 -14 25 -23 4
-12 19 -18 55 -19 26 -2 59 -7 72 -11 17 -7 31 -5 46 6 20 13 35 40 16 29 -5
-3 -8 14 -8 38 0 24 3 47 8 51 4 4 7 15 7 25 0 9 3 19 8 22 4 2 0 2 -8 0 -11
-2 -11 0 2 11 17 12 16 15 -8 41 -24 26 -29 27 -84 21 -64 -7 -160 -33 -173
-46 -5 -4 5 -22 22 -39 17 -18 31 -38 31 -46 0 -25 -36 -17 -48 10 -6 14 -16
25 -21 25 -5 0 -7 8 -4 18 2 10 -3 25 -12 32 -24 20 -158 -4 -199 -35 -17 -12
-40 -25 -52 -29 -11 -3 -30 -19 -42 -35 -25 -34 -98 -64 -193 -80 -76 -13
-137 -30 -164 -47 -17 -10 -226 -74 -384 -118 -40 -11 -45 -16 -63 -64 -15
-41 -31 -61 -66 -87 -26 -19 -50 -35 -54 -35 -4 0 -3 13 2 29 12 41 -1 43
-137 25 -61 -8 -67 2 -19 33 34 22 66 72 66 103 0 14 10 49 52 180 25 78 82
187 113 217 56 53 68 78 61 125 -4 23 -11 47 -15 53 -5 5 -11 23 -15 38 -4 16
-11 25 -17 21 -15 -9 -38 26 -39 59 0 16 -4 26 -9 22 -25 -15 -24 89 1 177 6
21 35 61 69 98 35 36 59 70 59 83 0 12 11 46 25 75 18 38 25 71 25 112 0 32 8
92 17 132 21 91 20 139 -7 234 -34 126 -116 232 -242 316 -84 56 -158 121
-158 138 0 15 -22 12 -42 -7 -16 -15 -20 -15 -35 0 -10 8 -47 23 -83 32 -77
20 -96 35 -112 89 -6 23 -16 47 -21 54 -7 9 0 12 29 13 32 1 35 2 15 8 -14 4
-26 12 -29 19 -4 13 25 10 76 -9 12 -5 22 -5 22 -1 0 13 29 48 30 36 0 -6 -12
-24 -26 -39 l-26 -28 73 5 c41 3 75 11 77 17 2 6 8 11 13 11 4 0 5 -7 2 -17
-5 -11 -3 -14 6 -8 10 6 11 3 1 -16 l-13 -23 34 21 c19 12 42 36 51 55 20 37
24 78 7 78 -5 0 -7 5 -4 10 13 21 -25 9 -39 -12 l-16 -22 0 22 c0 13 6 22 16
22 9 0 12 5 8 12 -5 7 -2 9 8 6 22 -9 42 7 32 25 -8 14 -13 14 -42 -4z m-100
-2107 c19 -59 19 -65 4 -80 -14 -15 -19 -14 -51 1 -20 9 -49 17 -66 17 -25 0
-33 6 -46 38 -9 20 -17 57 -19 82 l-3 45 11 -41 c8 -34 18 -45 49 -60 21 -11
39 -23 39 -27 0 -5 5 -5 10 -2 6 3 8 20 5 36 -4 21 1 38 15 56 11 14 21 33 21
42 1 9 4 3 6 -14 2 -16 13 -59 25 -93z"/>
<path d="M3550 5679 c-19 -11 -60 -46 -92 -76 -48 -47 -60 -55 -82 -49 -30 7
-47 -17 -27 -37 6 -6 11 -18 11 -26 0 -14 -1 -14 -10 -1 -5 8 -10 13 -11 10
-7 -45 -5 -62 9 -77 16 -16 16 -16 0 -10 -10 3 -20 2 -24 -4 -9 -16 17 -40 40
-37 12 1 27 -1 34 -6 21 -13 -4 32 -36 67 -14 15 -21 27 -14 27 6 0 14 -5 17
-11 4 -6 13 -8 21 -5 8 3 13 2 11 -2 -4 -15 47 -112 59 -112 17 0 44 28 44 46
0 9 11 14 35 14 38 0 42 -5 20 -34 -13 -18 -12 -21 15 -38 17 -10 30 -26 30
-38 0 -20 11 -27 134 -76 63 -25 81 -30 56 -14 -8 5 -16 18 -16 30 -1 17 5 20
42 20 23 0 46 -4 49 -10 3 -5 10 -10 16 -10 5 0 9 5 9 10 0 6 -7 10 -15 10 -8
0 -15 4 -15 9 0 5 -35 13 -79 17 -89 7 -104 13 -95 37 8 21 72 22 127 3 43
-16 46 -8 16 40 -23 38 -45 202 -29 218 17 17 11 24 -36 42 -39 15 -47 15 -54
3 -5 -8 -19 -26 -31 -41 l-21 -28 -28 20 c-15 11 -32 20 -38 20 -5 0 -21 9
-34 20 -14 10 -28 16 -32 13 -8 -9 -7 19 2 33 4 6 23 21 42 33 19 11 31 21 25
21 -5 0 -26 -9 -45 -21z"/>
<path d="M5023 5540 c-13 -5 -23 -16 -23 -25 0 -8 -11 -20 -24 -25 -13 -5 -26
-15 -28 -22 -4 -11 -8 -11 -21 0 -9 8 -22 12 -29 10 -7 -3 -19 1 -26 9 -7 7
-20 13 -27 13 -17 0 -50 -46 -59 -83 -6 -24 -9 -27 -22 -16 -23 19 -27 5 -16
-74 10 -79 35 -126 76 -145 13 -6 31 -27 40 -49 9 -21 24 -50 32 -65 7 -14 14
-33 14 -41 0 -9 7 -23 16 -31 8 -9 14 -16 12 -17 -2 -1 -30 -7 -63 -14 l-60
-12 58 -2 c38 -1 56 -5 52 -12 -4 -6 -13 -8 -21 -5 -7 3 -18 -3 -24 -12 -10
-15 -11 -15 -6 -1 4 14 -2 17 -29 16 -29 -1 -31 -3 -17 -13 9 -7 20 -10 24 -8
5 3 8 -2 8 -11 0 -9 5 -13 10 -10 6 3 10 3 10 -2 0 -12 129 -6 144 6 11 9 14
8 12 -6 0 -10 -5 -21 -11 -25 -16 -12 14 -9 37 3 16 9 19 17 14 41 -5 24 -3
29 9 24 8 -3 15 -1 15 4 0 6 7 10 15 10 27 0 5 25 -38 43 -23 9 -48 17 -54 17
-21 0 -3 28 25 39 15 6 45 12 67 13 49 4 73 22 55 43 -8 10 -8 19 -1 34 14 26
14 34 -1 25 -7 -4 -8 -3 -4 4 5 8 21 10 47 6 45 -8 71 9 87 55 9 25 6 29 -34
55 -46 29 -56 56 -30 82 13 12 17 11 30 -8 16 -22 16 -22 16 8 0 46 -19 92
-41 99 -11 4 -38 24 -60 46 -35 35 -45 39 -87 38 -26 0 -57 -4 -69 -9z m-38
-110 c3 -5 13 -6 22 -3 9 3 -5 -19 -31 -51 -25 -31 -46 -59 -46 -62 0 -9 22
-49 37 -66 14 -16 17 -16 44 4 16 12 39 22 51 23 12 1 28 11 36 23 13 20 14
20 32 2 23 -23 28 -103 10 -143 -19 -39 -98 -62 -145 -42 -31 12 -36 21 -59
97 -15 46 -26 89 -26 95 0 16 33 73 43 73 4 0 7 14 7 30 0 29 13 40 25 20z"/>
<path d="M7648 5543 c27 -11 10 -23 -32 -23 -43 0 -44 0 -55 -44 -13 -53 -14
-96 -2 -115 7 -11 18 -5 52 26 24 21 70 57 103 78 l58 40 -42 7 c-45 8 -57 14
-47 24 9 10 108 -7 101 -17 -3 -5 6 -4 21 3 40 18 11 28 -85 27 -47 0 -79 -3
-72 -6z"/>
<path d="M3981 5491 c-8 -6 2 -14 30 -25 34 -14 47 -15 70 -5 27 11 61 9 137
-7 57 -11 34 -23 -34 -17 -64 6 -66 6 -56 -14 13 -23 7 -33 -19 -33 -10 0 -22
-6 -26 -13 -4 -8 -26 -22 -48 -33 -35 -17 -40 -23 -40 -54 -1 -19 -5 -41 -9
-49 -5 -8 -3 -17 5 -22 12 -8 12 -10 0 -18 -19 -12 -7 -27 29 -34 35 -8 42
-42 10 -52 -11 -3 -20 -10 -20 -15 0 -11 96 -23 135 -17 17 3 45 6 64 6 19 1
31 4 28 8 -4 3 -2 12 4 20 9 10 4 13 -25 13 -20 0 -36 5 -36 10 0 6 7 10 15
10 9 0 26 12 38 26 22 25 28 26 131 29 93 2 110 5 130 24 15 14 25 18 32 11 8
-8 15 -6 23 4 9 10 23 13 44 10 l32 -5 -25 20 c-60 48 -77 58 -113 65 -20 4
-45 16 -55 26 -15 16 -24 18 -50 11 -19 -6 -34 -6 -37 0 -4 5 -1 9 4 9 18 0
12 21 -11 41 -52 46 -118 66 -234 72 -61 3 -116 2 -123 -2z"/>
<path d="M5625 5290 c-3 -5 5 -16 17 -24 27 -17 376 -126 404 -126 10 0 44 -9
74 -21 60 -23 357 -113 405 -123 20 -4 55 1 95 14 36 11 73 20 83 20 11 0 17
8 17 22 0 12 10 33 23 46 l22 25 -30 -15 c-16 -8 -66 -28 -110 -43 l-80 -28
-150 43 c-83 24 -179 51 -215 61 -35 11 -75 19 -88 19 -19 0 -22 4 -17 20 7
21 -9 43 -34 48 -12 3 -12 0 -2 -12 36 -43 -41 -27 -320 66 -62 20 -85 22 -94
8z"/>
<path d="M2220 4415 c0 -14 9 -58 21 -98 12 -39 29 -98 38 -130 16 -56 36 -81
53 -71 13 8 9 53 -12 154 -10 52 -21 111 -22 130 -3 33 -6 35 -40 38 -35 3
-38 1 -38 -23z"/>
<path d="M1409 4319 c-19 -23 -38 -49 -43 -58 -5 -9 -13 -18 -17 -21 -5 -3
-26 -39 -49 -79 -33 -61 -39 -81 -34 -108 4 -23 12 -33 25 -33 26 0 24 -12 -6
-40 -58 -54 -10 -67 78 -21 46 24 57 27 61 14 9 -23 168 -15 193 10 30 30 1
39 -109 32 -88 -6 -97 -5 -107 12 -5 11 -6 25 -1 33 5 8 7 17 4 21 -7 12 25
77 56 110 34 37 37 60 15 103 -8 15 -15 37 -15 47 0 29 -14 23 -51 -22z"/>
<path d="M7460 3713 c-25 -2 -67 -7 -95 -13 -27 -5 -81 -15 -120 -21 -103 -17
-125 -31 -125 -77 0 -31 -8 -46 -42 -80 -23 -24 -52 -45 -65 -48 -13 -4 -23
-9 -23 -13 0 -4 -18 -27 -40 -52 -22 -24 -40 -48 -40 -52 0 -5 -4 -5 -10 -2
-5 3 -10 -1 -10 -9 0 -21 -55 -76 -77 -76 -33 0 -63 -12 -63 -25 0 -15 22 -25
57 -25 20 0 24 -3 17 -17 -4 -10 -8 -32 -9 -48 -2 -35 -19 -70 -48 -102 -11
-13 -18 -25 -16 -27 5 -6 89 72 89 83 0 5 8 15 18 22 15 13 16 12 3 -4 -14
-17 -13 -17 15 -5 34 15 74 48 74 61 0 5 -16 0 -35 -12 -28 -16 -35 -17 -35
-6 0 8 16 29 35 46 19 18 35 36 35 40 0 12 -35 3 -65 -17 -14 -9 -28 -15 -30
-12 -7 7 141 158 214 218 36 30 69 67 77 87 l15 34 24 -45 c19 -36 22 -51 15
-71 -5 -14 -7 -31 -4 -38 3 -8 -10 -34 -28 -58 -19 -24 -37 -50 -42 -57 -9
-16 19 -62 38 -62 8 0 40 32 72 72 62 75 99 98 216 132 31 9 85 29 119 46 34
16 66 27 71 24 5 -3 24 0 43 6 28 9 42 9 65 -2 17 -7 30 -17 30 -21 0 -5 4 -6
10 -2 5 3 27 -6 49 -20 23 -14 45 -25 51 -25 6 0 8 -5 4 -12 -5 -7 -2 -9 9 -5
9 3 17 3 19 -1 6 -14 83 -69 138 -99 30 -16 125 -68 210 -115 127 -69 389
-198 485 -238 11 -5 49 -15 85 -23 36 -9 94 -23 130 -32 101 -25 345 -75 369
-75 12 0 24 -6 27 -14 6 -17 -95 -218 -249 -493 -59 -106 -107 -194 -107 -197
0 -4 9 -15 20 -26 11 -11 20 -30 20 -43 0 -21 9 -29 62 -55 4 -1 5 17 2 41 -6
44 15 107 36 107 6 0 10 9 10 20 0 11 7 20 15 20 22 0 135 -49 152 -66 8 -8
24 -14 36 -14 18 0 19 -2 7 -10 -11 -7 -11 -10 -2 -10 7 0 34 -9 60 -21 124
-54 130 -65 79 -147 -19 -32 -39 -71 -43 -87 -4 -16 -20 -54 -36 -84 -25 -48
-30 -52 -35 -32 -6 23 -68 61 -101 61 -16 0 -141 -38 -151 -46 -2 -2 12 -16
30 -31 49 -41 99 -93 99 -104 0 -14 -54 17 -137 78 -41 30 -99 66 -129 80 -34
15 -59 34 -64 48 -5 12 -44 47 -88 78 -44 31 -90 68 -102 84 -12 15 -23 26
-24 23 -1 -3 -15 7 -31 23 -36 33 -63 43 -78 28 -14 -14 -47 -14 -47 -1 0 6
-19 10 -42 10 l-41 0 24 -26 c13 -14 50 -39 81 -55 50 -25 88 -63 76 -75 -3
-2 -30 1 -62 7 -49 9 -63 8 -96 -8 -23 -11 -41 -27 -45 -40 -6 -24 -24 -31
-26 -10 -1 18 -20 -42 -28 -88 l-6 -40 -75 -7 c-124 -11 -199 8 -184 46 3 8 1
17 -5 21 -7 4 -11 -6 -11 -28 0 -44 -9 -48 -137 -55 -107 -5 -104 -6 -107 38
-2 31 -31 15 -36 -20 l-5 -35 -105 -7 c-132 -9 -170 1 -170 43 0 16 -4 29 -10
29 -5 0 -10 -12 -10 -28 0 -39 -27 -51 -113 -53 -85 -2 -117 11 -117 46 0 14
-4 25 -10 25 -5 0 -10 -9 -10 -19 0 -11 -5 -23 -10 -26 -18 -11 -131 -12 -137
-1 -4 5 -12 -6 -18 -25 -10 -28 -17 -35 -43 -37 -26 -3 -35 2 -57 36 -30 45
-37 69 -70 220 -26 116 -47 183 -131 407 l-48 129 -9 -42 c-5 -24 -15 -46 -23
-49 -7 -3 -11 -10 -7 -17 4 -6 0 -5 -9 2 -9 8 -14 21 -11 30 4 13 3 14 -5 4
-6 -9 -24 -13 -50 -11 -23 2 -44 0 -48 -4 -4 -4 -23 -7 -43 -8 -39 0 -91 -17
-58 -18 21 -1 22 -17 1 -25 -8 -3 -12 -11 -9 -17 4 -6 -2 -13 -14 -16 -12 -3
-21 -9 -21 -13 0 -4 -14 -23 -31 -41 -23 -24 -27 -34 -17 -40 9 -6 3 -9 -17
-9 -29 -1 -29 -1 -11 -15 19 -14 18 -15 -9 -15 -27 0 -28 -1 -9 -15 18 -14 18
-14 -6 -16 l-25 -1 25 -8 25 -8 -24 -1 c-20 -1 -21 -3 -11 -16 10 -12 10 -15
-4 -15 -9 0 -16 -4 -16 -8 0 -9 47 -25 104 -37 23 -5 27 -8 15 -16 -7 -5 -27
-9 -42 -9 l-28 0 36 -35 c19 -20 35 -44 35 -53 0 -11 8 -18 21 -19 12 -1 26
-8 32 -16 7 -8 35 -18 62 -22 28 -5 57 -9 65 -10 8 -1 35 -8 60 -14 25 -7 57
-15 72 -19 35 -9 69 -55 123 -169 54 -115 111 -178 175 -192 63 -15 161 -13
255 3 44 8 172 20 285 26 113 6 315 18 450 26 135 9 303 18 374 21 l129 6 -7
-29 c-9 -35 -98 -200 -354 -654 -378 -670 -452 -803 -452 -814 0 -3 163 -5
362 -4 l362 3 12 50 c7 28 18 76 24 107 8 41 16 58 27 58 8 0 47 -30 87 -68
39 -37 94 -86 123 -110 l52 -42 715 0 716 0 0 299 c0 230 -3 300 -12 304 -10
4 -10 6 0 6 8 1 12 25 12 86 0 82 -1 85 -27 100 l-28 15 28 -6 27 -6 0 240 0
239 -67 21 c-38 11 -126 34 -197 51 -79 19 -145 41 -174 58 -25 15 -73 44
-106 64 -53 31 -61 39 -60 65 0 16 4 37 8 47 7 13 3 17 -15 17 -30 0 -100 -55
-145 -113 -28 -35 -39 -43 -59 -40 -13 3 -41 -4 -62 -14 -21 -11 -51 -26 -68
-34 -17 -8 -31 -24 -33 -36 -4 -25 -48 -38 -56 -16 -3 8 -10 11 -16 8 -6 -4
-7 -11 -4 -17 5 -8 1 -9 -12 -3 -10 4 -27 8 -36 9 -27 1 -22 15 7 22 21 5 23
9 13 21 -10 13 -7 20 19 42 17 14 54 46 83 71 59 51 72 58 118 59 17 1 32 6
32 11 0 6 -4 10 -10 10 -18 0 -10 49 12 75 13 15 45 32 80 41 49 14 67 26 108
71 48 53 83 102 63 90 -6 -4 -27 32 -47 79 -36 82 -37 87 -20 105 24 26 36 24
112 -18 37 -21 75 -36 85 -35 23 4 22 -20 -3 -86 -11 -29 -20 -73 -20 -97 0
-40 3 -47 27 -56 62 -23 206 5 296 59 l39 22 45 -20 c25 -11 49 -20 54 -20 5
0 9 153 9 341 0 255 -3 338 -12 333 -8 -5 -9 -1 -2 17 12 33 17 879 5 879 -5
0 -38 -16 -73 -36 -70 -40 -109 -58 -121 -56 -4 1 -35 -9 -69 -23 -34 -14 -69
-25 -78 -25 -9 0 -20 -4 -26 -9 -8 -8 -55 -22 -179 -53 -30 -7 -60 -6 -125 8
-47 9 -90 20 -95 25 -6 4 -30 13 -53 18 -23 6 -61 16 -84 22 -23 5 -92 16
-153 24 -60 8 -121 17 -135 20 -14 3 -38 7 -55 9 -16 2 -37 6 -45 9 -30 9
-156 37 -198 43 -23 4 -45 11 -48 15 -3 5 -17 9 -31 9 -33 0 -185 52 -260 89
-55 27 -96 44 -318 135 -98 40 -211 66 -290 66 -33 0 -60 7 -80 20 -16 11 -44
20 -61 20 -17 0 -37 6 -43 14 -11 13 -41 15 -151 9z m1883 -2468 c27 -24 46
-49 42 -55 -3 -5 -3 -10 2 -11 50 -4 139 -47 169 -80 16 -18 16 -19 -5 -19
-12 0 -19 4 -16 10 4 6 -6 10 -23 10 -16 0 -35 6 -41 13 -11 14 -58 35 -124
57 -55 17 -57 5 -2 -13 25 -9 57 -25 72 -36 32 -26 31 -26 -36 -1 -30 11 -57
18 -59 15 -3 -2 6 -9 20 -14 13 -5 45 -23 70 -40 25 -17 52 -31 59 -31 9 1 8
4 -4 11 -37 22 -4 26 53 7 68 -24 69 -43 1 -35 l-46 5 30 -25 c44 -35 66 -42
179 -54 112 -11 147 -28 112 -55 -11 -8 -31 -14 -44 -14 l-25 0 26 -20 c42
-33 108 -57 182 -65 l69 -7 -27 -20 -28 -21 43 -28 c24 -16 39 -29 35 -29 -5
0 -21 8 -35 18 -15 10 -49 26 -77 36 -27 10 -57 26 -66 37 -9 10 -20 15 -23
11 -4 -3 -10 -2 -14 3 -9 13 -127 75 -142 75 -6 0 -18 7 -26 15 -9 8 -25 15
-37 15 -22 0 -63 22 -82 45 -16 18 -166 115 -179 115 -6 0 -34 15 -61 33 -28
17 -64 39 -80 47 -31 15 -86 63 -70 59 23 -4 35 3 47 28 12 24 61 51 98 52 8
0 37 -19 63 -44z"/>
<path d="M9091 3703 l-235 -3 -43 -34 c-45 -35 -107 -106 -99 -114 16 -15 156
-34 316 -42 137 -6 211 -15 285 -33 55 -13 157 -37 228 -52 124 -28 128 -28
164 -11 37 18 147 99 159 117 9 15 6 17 -87 44 -46 14 -104 35 -128 46 -128
60 -227 90 -286 87 -22 -2 -146 -4 -274 -5z"/>
<path d="M8588 3695 c-2 -3 -31 -10 -64 -16 -87 -15 -134 -29 -134 -38 0 -5
46 -21 103 -36 56 -15 113 -30 126 -34 27 -8 121 34 121 54 0 7 -17 20 -38 28
-21 8 -44 22 -51 31 -13 15 -52 22 -63 11z"/>
<path d="M7035 3584 c-16 -14 -61 -42 -100 -61 -38 -20 -109 -67 -158 -105
-48 -38 -94 -71 -102 -74 -8 -4 -15 -10 -15 -15 0 -10 28 -1 49 15 7 5 19 11
25 12 35 5 197 94 236 130 25 23 58 52 74 66 16 13 27 31 25 41 -4 15 -8 14
-34 -9z"/>
<path d="M7660 3149 c0 -10 14 -56 30 -102 17 -47 30 -88 30 -91 0 -3 -21 6
-47 19 -62 31 -109 37 -105 13 2 -10 1 -18 -1 -18 -5 0 -166 56 -201 69 -28
11 -29 12 -10 34 12 14 13 17 3 9 -9 -6 -18 -10 -20 -7 -3 2 -18 -6 -34 -19
-26 -21 -28 -27 -20 -51 6 -16 22 -37 36 -47 30 -23 692 -246 753 -254 51 -7
82 7 271 123 40 24 42 51 7 98 -25 35 -41 44 -125 73 -53 17 -100 32 -105 32
-6 0 -12 -9 -15 -20 -3 -12 -14 -20 -25 -20 -54 0 -66 -61 -27 -125 33 -54 32
-65 -7 -64 -45 1 -202 63 -206 81 -2 8 13 62 32 119 l35 103 -57 25 c-31 13
-87 27 -124 30 -60 6 -68 5 -68 -10z"/>
<path d="M2080 3124 c-149 -38 -512 -108 -907 -175 -200 -35 -363 -66 -363
-71 0 -15 91 -8 239 17 80 14 178 30 216 36 39 5 129 21 200 34 72 14 171 31
220 39 50 8 142 24 205 34 63 11 137 23 165 27 53 7 81 20 141 60 l37 25 -29
-1 c-16 -1 -72 -12 -124 -25z"/>
<path d="M6270 3077 c0 -9 -5 -16 -11 -14 -6 1 -14 -4 -16 -11 -4 -10 2 -13
18 -10 18 2 24 -2 22 -15 0 -12 4 -16 13 -13 9 4 13 -2 11 -17 -2 -18 2 -22
25 -19 38 4 44 -14 6 -22 -29 -6 -30 -7 -13 -20 10 -7 15 -18 11 -24 -4 -7 -1
-12 8 -12 9 0 16 -9 16 -20 0 -21 15 -27 25 -10 8 13 25 13 25 -1 0 -6 7 -17
15 -26 19 -18 50 -9 41 12 -8 21 3 45 20 45 8 0 13 -3 12 -7 0 -5 3 -19 9 -32
l9 -23 19 28 c11 16 18 35 17 42 -2 6 5 12 15 12 14 0 15 2 4 9 -11 7 -10 11
7 20 25 14 43 14 22 1 -9 -6 -10 -10 -3 -10 12 0 27 18 28 35 2 22 18 45 32
45 8 0 11 5 7 11 -3 6 0 15 7 20 9 6 10 9 2 9 -7 0 -17 -8 -22 -17 -8 -14 -10
-10 -6 17 l5 35 -15 -32 c-17 -36 -26 -43 -18 -14 3 10 -1 22 -8 26 -7 5 -10
4 -6 -2 4 -6 4 -24 1 -40 -7 -36 -34 -40 -34 -5 0 21 -2 22 -15 12 -8 -7 -15
-23 -15 -36 0 -13 -5 -24 -11 -24 -6 0 -8 7 -5 16 3 9 2 12 -5 9 -6 -4 -8 -14
-4 -22 8 -24 -3 -50 -25 -56 -13 -3 -22 3 -31 25 -9 22 -14 26 -21 16 -6 -9
-7 -6 -3 10 4 14 1 28 -10 38 -9 9 -17 15 -19 13 -1 -2 -7 -15 -13 -29 l-12
-25 -7 23 c-4 13 -12 21 -19 18 -16 -6 -29 20 -26 54 2 25 1 25 -14 5 -16 -20
-16 -20 -31 -1 -12 17 -14 18 -14 3z"/>
<path d="M0 2913 l0 -102 32 -25 c41 -30 115 -53 128 -40 6 6 -16 51 -61 124
-102 165 -99 164 -99 43z"/>
<path d="M6510 2782 c0 -6 14 -25 30 -42 20 -20 30 -41 30 -61 0 -18 4 -28 10
-24 6 3 10 -1 10 -10 0 -8 11 -20 25 -25 37 -14 31 -20 -17 -15 -24 2 -43 4
-43 5 0 1 -10 3 -22 4 -13 2 -23 -1 -23 -6 0 -4 5 -8 10 -8 6 0 10 -9 10 -19
0 -14 7 -19 28 -18 15 1 30 6 34 12 5 6 8 4 8 -5 0 -9 -14 -21 -31 -27 -21 -8
-30 -18 -27 -29 5 -28 25 -27 32 1 5 20 11 25 24 20 10 -4 22 2 33 17 14 18
20 20 32 10 8 -7 18 -24 21 -37 4 -14 13 -25 21 -25 19 0 48 56 40 79 -5 15
-13 18 -50 13 -50 -5 -62 13 -25 36 24 15 25 35 4 67 -18 28 -34 33 -34 10 0
-8 -4 -15 -10 -15 -5 0 -10 4 -10 9 0 6 5 13 10 16 17 10 11 25 -10 25 -11 0
-20 -6 -20 -14 0 -8 -5 -18 -12 -22 -8 -5 -9 -2 -5 9 9 23 -2 47 -21 47 -8 0
-24 7 -34 17 -10 9 -18 11 -18 5z"/>
<path d="M3094 2682 c-6 -4 -11 -29 -11 -57 1 -59 -19 -206 -35 -254 -6 -18
-24 -53 -40 -77 -16 -25 -28 -50 -25 -57 2 -6 -2 -20 -11 -29 -14 -17 -17 -17
-48 3 -26 16 -37 18 -54 9 -26 -14 -26 -35 1 -54 19 -13 25 -13 50 0 15 7 35
14 43 14 8 0 20 9 26 20 6 11 16 20 23 20 7 0 41 29 76 65 35 36 67 65 72 65
23 0 16 -27 -22 -83 -24 -34 -42 -70 -42 -79 1 -10 -17 -33 -39 -50 -23 -18
-71 -61 -108 -95 -37 -35 -74 -63 -83 -63 -11 0 -20 -14 -27 -41 -8 -28 -20
-46 -40 -57 -44 -25 -65 -97 -36 -121 11 -10 20 -1 46 44 28 49 33 53 47 40 8
-8 20 -12 26 -8 7 4 27 18 46 30 l35 24 20 -25 c12 -14 34 -26 51 -28 27 -3
31 -8 42 -53 6 -27 12 -74 12 -103 1 -46 4 -54 26 -64 14 -6 25 -16 25 -21 0
-6 18 -28 40 -50 41 -40 71 -87 77 -120 2 -10 -11 -38 -27 -61 -17 -23 -33
-59 -37 -80 -6 -38 -5 -38 114 80 119 119 223 257 223 299 0 11 14 37 30 59
45 59 54 97 35 141 -12 30 -13 46 -4 77 10 40 3 60 -27 80 -6 4 -17 28 -24 53
-7 25 -17 48 -21 51 -5 3 -9 17 -9 32 0 42 -15 55 -67 61 -44 6 -48 9 -53 36
-4 17 -12 52 -20 78 -15 48 -15 49 -50 42 -19 -4 -63 -8 -98 -10 -60 -3 -64
-2 -73 23 -13 33 -12 205 0 250 6 21 6 32 0 32 -6 0 -7 5 -4 10 7 12 -34 13
-51 2z"/>
<path d="M8295 2590 c-88 -4 -179 -8 -202 -9 -77 -2 -45 -19 50 -26 58 -4 114
-15 152 -30 62 -24 181 -52 189 -44 6 6 -16 119 -23 117 -3 -1 -78 -5 -166 -8z"/>
<path d="M5474 2429 c-4 -6 -20 -8 -40 -5 -28 6 -35 3 -45 -16 -15 -28 -30
-39 -46 -33 -7 2 -15 0 -18 -5 -4 -6 1 -10 9 -10 20 0 29 -16 21 -40 -4 -12
-15 -20 -29 -20 -12 0 -27 -5 -34 -12 -8 -8 -12 -9 -12 -1 0 6 6 13 13 16 9 3
9 7 0 19 -7 8 -9 18 -5 23 4 4 -3 2 -15 -4 -13 -6 -23 -15 -23 -19 0 -4 -16
-18 -36 -31 -32 -22 -37 -23 -45 -9 -6 10 -17 14 -29 11 -16 -4 -18 -8 -9 -19
6 -8 15 -11 20 -8 5 3 6 -2 3 -10 -6 -14 -10 -17 -29 -16 -3 1 -12 -6 -20 -13
-7 -8 -32 -17 -54 -21 -24 -3 -55 -19 -75 -36 -50 -45 -82 -38 -56 11 7 12 7
19 1 19 -14 0 -23 -36 -16 -60 7 -21 -10 -28 -18 -7 -4 9 -6 9 -6 -1 -1 -7 -5
-10 -11 -7 -12 7 -50 -12 -50 -26 0 -6 5 -7 10 -4 6 3 10 2 10 -3 0 -6 -7 -13
-16 -16 -10 -4 -14 -15 -12 -33 2 -22 -1 -27 -14 -25 -12 2 -20 -6 -24 -23 -8
-32 1 -42 22 -24 14 11 18 11 28 -4 10 -12 15 -14 24 -5 9 9 12 9 12 -1 0 -7
-9 -15 -20 -18 -25 -7 -28 -44 -2 -40 9 1 23 6 29 10 19 12 92 14 90 3 -5 -27
-22 -34 -44 -21 -19 13 -24 12 -51 -13 -16 -15 -34 -37 -41 -49 -10 -19 -8
-25 9 -40 11 -10 20 -30 20 -45 0 -16 5 -28 10 -28 6 0 10 5 10 12 0 14 47
-29 62 -55 14 -27 5 -30 -20 -7 -25 23 -25 21 -12 -35 12 -54 58 -532 61 -640
2 -88 45 -146 165 -227 29 -19 49 -40 45 -45 -3 -6 -43 -27 -87 -48 l-82 -37
2 -63 c0 -35 4 -67 9 -71 4 -4 7 -18 7 -30 0 -13 5 -26 10 -29 6 -3 10 -13 10
-21 0 -18 24 -44 39 -44 6 0 19 -8 29 -18 9 -9 41 -27 71 -40 42 -17 57 -19
74 -10 41 21 56 51 57 105 0 48 16 87 58 138 4 6 11 17 14 25 4 8 39 53 78
100 40 47 78 97 86 113 8 15 19 27 24 27 6 0 10 7 10 15 0 8 5 15 11 15 8 0 8
4 -1 14 -6 8 -18 12 -26 9 -21 -8 -17 9 11 46 22 30 24 43 24 129 0 94 9 208
35 447 7 66 11 122 9 124 -2 3 -17 -5 -33 -17 -35 -26 -40 -27 -40 -7 0 9 10
20 23 24 12 5 35 23 51 41 20 21 34 29 47 25 24 -8 24 -4 -1 25 -26 31 -25 40
5 40 29 0 48 35 34 62 -17 33 -10 64 22 87 28 21 32 21 48 7 22 -20 41 -20 41
0 0 8 4 13 9 10 5 -4 19 -2 31 2 l21 8 -22 28 c-12 15 -27 25 -35 22 -8 -3
-12 2 -11 15 1 10 5 19 9 19 4 0 8 5 8 11 0 5 -5 7 -10 4 -15 -9 -80 17 -80
33 0 8 -9 13 -22 11 -13 -1 -36 3 -51 9 -16 7 -33 12 -38 12 -6 0 -2 11 8 24
10 13 20 21 23 17 15 -20 59 -40 66 -30 16 27 -83 77 -123 62 -16 -6 -16 -4 1
15 23 26 16 38 -12 21 -21 -13 -57 -5 -47 11 10 17 -4 47 -25 53 -23 6 -26 36
-7 56 10 11 9 12 -2 6 -11 -6 -12 -2 -7 20 8 30 -18 70 -37 58 -6 -3 -7 -1 -3
5 4 7 14 12 22 12 8 0 14 5 14 10 0 14 -37 13 -46 -1z m-222 -298 c12 7 18 4
22 -9 4 -10 20 -29 37 -41 26 -19 35 -21 56 -12 35 16 47 14 58 -11 6 -13 22
-25 38 -28 15 -3 33 -15 40 -26 7 -12 19 -32 28 -45 10 -13 20 -34 23 -46 6
-20 4 -21 -36 -18 -41 3 -59 17 -39 30 6 3 11 11 11 16 0 6 -6 7 -12 2 -7 -4
-20 -8 -28 -8 -8 0 -19 -10 -25 -22 -7 -16 -15 -21 -28 -17 -10 3 -24 1 -30
-5 -7 -5 -18 -6 -25 -2 -20 12 -2 41 29 48 16 3 29 8 29 10 0 9 -25 28 -51 40
-21 9 -27 8 -36 -5 -9 -15 -13 -15 -37 -3 -20 11 -29 12 -38 3 -7 -7 -27 -12
-45 -12 -18 0 -33 -4 -33 -10 0 -5 5 -10 11 -10 7 0 9 -10 4 -27 -9 -37 -25
-53 -25 -26 0 25 -55 50 -64 30 -2 -7 -5 -3 -5 7 -1 11 8 30 20 42 17 18 18
25 8 41 -10 17 -8 24 15 49 64 71 67 73 90 64 12 -4 29 -4 38 1z"/>
<path d="M8390 2275 c0 -7 21 -23 48 -35 86 -40 93 -44 122 -71 16 -15 43 -35
60 -44 18 -9 74 -56 125 -104 83 -78 102 -91 165 -111 62 -20 73 -27 85 -56
16 -38 41 -44 80 -18 30 19 33 36 6 32 -13 -2 -32 10 -53 33 -34 36 -68 56
-68 39 0 -6 7 -10 15 -10 8 0 15 -4 15 -10 0 -23 -29 -8 -39 20 -8 25 -7 32 4
37 26 9 17 21 -62 82 -43 32 -104 81 -136 109 -54 46 -62 50 -129 56 -42 4
-79 13 -89 22 -34 30 -149 53 -149 29z"/>
<path d="M349 2257 c-14 -7 -52 -36 -84 -64 -71 -64 -92 -68 -86 -17 1 6 -5
16 -12 23 -11 9 -21 4 -48 -24 -19 -20 -44 -35 -57 -35 -13 0 -32 -5 -42 -10
-19 -10 -19 -38 -20 -1070 l0 -1060 278 0 278 0 94 150 c92 144 129 189 116
137 -3 -13 -3 -27 1 -31 3 -3 6 -36 5 -74 -3 -110 17 -51 32 96 13 126 15 131
53 183 21 30 51 73 66 97 15 23 32 42 37 42 12 0 138 -69 145 -79 2 -4 -3 -32
-11 -62 -9 -30 -23 -83 -31 -119 -8 -36 -28 -110 -44 -165 -16 -56 -32 -118
-36 -138 l-6 -37 189 0 189 0 72 83 c125 143 161 179 172 172 7 -4 11 -53 11
-131 l0 -124 630 0 c628 0 631 0 620 20 -7 12 -21 20 -38 20 -71 0 -135 40
-168 105 -23 45 -40 276 -24 325 12 37 11 41 -33 117 -25 43 -53 95 -63 116
-34 72 -100 86 -291 63 -173 -21 -231 -13 -368 55 -55 27 -116 59 -135 70 -19
12 -62 38 -95 57 -33 20 -87 58 -120 86 -60 49 -243 236 -349 355 -97 110
-257 353 -243 368 9 9 122 -112 207 -221 136 -176 226 -260 365 -342 101 -59
124 -69 142 -61 17 8 29 5 50 -9 46 -31 57 -33 91 -12 20 12 42 18 55 14 13
-3 32 1 43 9 21 14 73 149 62 161 -4 3 -39 10 -78 14 -51 6 -94 19 -155 48
-160 77 -249 153 -313 265 -16 29 -44 68 -61 87 -46 51 -78 108 -92 165 -16
66 -52 112 -108 139 -25 11 -61 32 -79 45 -30 21 -68 38 -162 72 -56 20 -104
39 -122 49 -25 14 -48 12 -82 -5 -37 -20 -58 -5 -49 36 3 16 2 29 -3 29 -5 0
-57 -12 -115 -27 -124 -31 -141 -29 -133 22 6 38 -2 42 -47 22z"/>
<path d="M1236 2001 c-13 -20 8 -73 45 -115 22 -25 65 -57 104 -76 36 -18 65
-36 65 -41 0 -5 7 -9 15 -9 8 0 15 -4 15 -10 0 -11 43 -14 53 -4 9 10 -62 146
-73 139 -5 -3 -19 3 -31 14 -12 11 -47 32 -78 46 -30 15 -68 36 -83 46 -14 11
-29 15 -32 10z"/>
<path d="M4430 1888 c-25 -39 -52 -82 -60 -97 -30 -51 -55 -86 -70 -98 -8 -7
-12 -13 -8 -13 7 0 -8 -21 -37 -54 -6 -6 -37 -49 -70 -96 -32 -47 -79 -114
-104 -150 -25 -36 -79 -114 -119 -175 -83 -122 -128 -175 -151 -175 -30 0
-416 90 -520 121 -56 17 -110 28 -118 25 -9 -4 -13 -17 -11 -38 3 -29 7 -33
43 -41 22 -5 165 -40 318 -78 271 -67 329 -77 354 -61 7 4 37 44 68 87 163
237 215 320 211 332 -3 8 -2 12 3 9 5 -3 24 18 42 47 34 55 136 207 244 367
36 52 65 99 65 103 0 5 -8 11 -19 14 -13 3 -17 11 -14 24 8 31 0 22 -47 -53z"/>
<path d="M1805 1838 c22 -11 51 -30 65 -43 14 -12 35 -28 48 -34 45 -24 517
-180 590 -196 43 -9 78 14 87 57 5 21 30 55 72 97 41 41 63 71 61 82 -2 14
-22 -3 -78 -66 -41 -47 -78 -85 -83 -85 -5 0 -27 20 -49 45 -55 62 -131 83
-388 105 -69 6 -174 22 -234 36 -131 29 -143 29 -91 2z"/>
<path d="M2600 917 c0 -3 22 -50 49 -104 54 -110 71 -184 71 -314 0 -87 12
-139 44 -199 l19 -34 29 34 c16 19 43 62 59 96 l29 61 -61 119 c-53 102 -149
254 -191 304 -17 20 -48 44 -48 37z"/>
<path d="M2900 885 c0 -4 13 -25 28 -48 49 -72 82 -149 97 -232 9 -44 27 -112
40 -152 14 -39 25 -78 25 -87 0 -8 5 -27 12 -41 11 -24 12 -24 30 -9 17 16 18
16 18 -13 0 -17 -9 -50 -20 -74 -10 -24 -16 -47 -12 -50 4 -3 52 -22 107 -44
55 -21 156 -60 224 -87 l124 -48 294 2 294 3 -153 57 c-84 32 -193 72 -243 89
-49 17 -97 38 -105 46 -16 15 -17 14 81 96 32 27 32 28 4 11 -120 -72 -161
-94 -172 -94 -6 0 -47 13 -90 30 -43 16 -97 34 -120 40 -23 6 -48 16 -55 24
-7 7 -45 23 -83 36 -39 12 -71 24 -72 25 -2 1 -5 26 -8 56 -16 177 -40 244
-125 350 -48 60 -120 128 -120 114z"/>
<path d="M2996 492 c-8 -13 -23 -193 -33 -370 l-6 -122 25 0 c27 0 34 13 79
150 17 53 20 78 15 138 -10 106 -60 235 -80 204z"/>
<path d="M5795 358 c13 -126 22 -307 18 -332 l-5 -26 351 0 351 0 0 28 c0 15
9 81 20 147 26 154 26 149 -7 128 -26 -17 -26 -17 -21 5 7 26 8 26 -39 7 -114
-45 -246 -56 -375 -31 -99 19 -162 44 -237 95 l-63 43 7 -64z"/>
</g>
</svg>
