
<?xml version="1.0" standalone="no"?>
<!DOCTYPE svg PUBLIC "-//W3C//DTD SVG 20010904//EN"
 "http://www.w3.org/TR/2001/REC-SVG-20010904/DTD/svg10.dtd">
<svg version="1.0" xmlns="http://www.w3.org/2000/svg"
 width="1024.000000pt" height="1024.000000pt" viewBox="0 0 1024.000000 1024.000000"
 preserveAspectRatio="xMidYMid meet">
<metadata>
Created by potrace 1.16, written by Peter Selinger 2001-2019
</metadata>
<g transform="translate(0.000000,1024.000000) scale(0.100000,-0.100000)"
fill="#000000" stroke="none">
<path d="M4684 9846 c-27 -72 -29 -74 -56 -69 -22 4 -28 2 -28 -12 0 -15 -107
-228 -218 -435 -19 -36 -59 -112 -89 -170 -30 -58 -63 -118 -73 -135 -9 -16
-37 -76 -60 -132 -24 -56 -46 -100 -51 -98 -7 5 -23 -25 -16 -31 11 -12 70 -7
77 6 5 8 75 141 156 295 80 154 191 363 245 465 77 146 103 206 124 284 14 55
23 101 21 103 -2 3 -17 -29 -32 -71z"/>
<path d="M2058 9736 c-75 -27 -132 -58 -165 -91 -33 -34 -15 -39 19 -6 80 78
236 123 353 102 33 -6 92 -27 130 -46 117 -60 162 -110 200 -226 52 -154 19
-298 -94 -414 -27 -27 -47 -54 -44 -60 2 -5 -3 -1 -11 9 -16 20 -16 20 -16 -1
0 -39 -91 -78 -211 -89 -71 -7 -142 5 -217 37 -41 18 -158 125 -196 179 -9 14
-7 5 6 -19 31 -58 123 -142 195 -178 54 -26 66 -28 183 -28 116 0 130 2 194
29 50 21 86 46 127 87 92 92 129 181 129 311 0 294 -301 503 -582 404z"/>
<path d="M5633 9752 c-31 -3 -33 -6 -33 -40 0 -47 -9 -60 -49 -72 -28 -8 -35
-6 -58 21 -31 34 -53 37 -78 9 -17 -19 -17 -21 13 -54 27 -31 30 -39 21 -68
-5 -18 -9 -34 -9 -35 0 -2 -22 -3 -49 -3 -41 0 -51 -4 -56 -20 -3 -11 -3 -30
0 -41 6 -18 12 -20 45 -15 45 7 60 -6 67 -62 4 -33 2 -41 -21 -55 -31 -20 -33
-38 -8 -60 25 -22 44 -21 60 3 16 25 48 25 90 0 27 -17 32 -25 32 -60 l0 -40
40 0 40 0 0 44 c0 45 9 59 49 71 18 5 30 0 55 -24 l31 -30 32 20 c28 18 31 24
22 40 -5 11 -19 25 -29 32 -22 13 -25 42 -10 81 8 23 15 26 55 26 l45 0 0 40
0 40 -45 0 c-39 0 -46 4 -60 30 -22 42 -19 55 18 85 l32 26 -28 24 c-35 31
-41 31 -61 1 -21 -33 -49 -40 -85 -22 -26 14 -30 22 -33 63 -3 48 -3 48 -35
45z m58 -187 c99 -52 87 -200 -19 -233 -37 -12 -46 -12 -79 5 -43 20 -83 74
-83 110 0 41 28 92 62 113 40 24 78 25 119 5z"/>
<path d="M4850 9736 c0 -7 -6 -19 -14 -25 -12 -10 -20 -9 -40 4 -24 16 -26 16
-26 1 0 -9 -4 -16 -10 -16 -5 0 -10 -8 -11 -17 0 -24 -75 -158 -86 -156 -5 1
-10 -8 -10 -19 -1 -12 -16 -43 -32 -70 -17 -27 -31 -53 -31 -57 0 -13 -27 -33
-32 -24 -3 4 -3 2 -1 -6 3 -12 -32 -79 -48 -91 -3 -3 -17 -29 -29 -57 -12 -29
-38 -74 -56 -100 -19 -27 -34 -52 -34 -56 0 -5 -15 -32 -34 -60 -43 -66 -76
-128 -76 -144 0 -7 -5 -13 -10 -13 -6 0 -15 -10 -20 -22 -8 -22 -9 -22 -9 -3
-1 12 3 25 8 30 5 6 16 30 25 54 20 59 7 42 -48 -60 l-45 -87 39 -6 c21 -3 41
-12 44 -18 3 -7 3 1 -1 17 -5 25 -3 28 8 18 19 -19 33 -16 15 3 -18 18 -20 30
-6 39 5 3 7 0 4 -8 -3 -8 2 -17 10 -20 11 -5 22 6 38 36 12 23 21 49 19 57 -2
8 0 12 4 8 8 -8 55 58 104 147 19 33 40 71 49 85 14 24 14 24 -3 5 -17 -20
-17 -20 -12 3 3 13 1 20 -4 16 -6 -3 -8 -13 -6 -22 3 -17 -19 -72 -29 -72 -2
0 0 9 6 19 14 28 12 35 -6 20 -10 -8 -13 -21 -9 -38 6 -25 6 -25 -9 -6 -8 11
-11 24 -6 30 5 5 25 43 45 83 28 54 40 70 50 62 6 -5 15 -7 19 -3 4 4 4 -1 0
-12 -14 -38 13 -1 64 90 42 74 49 93 40 110 -10 18 -10 19 6 6 14 -12 16 -12
10 3 -3 9 1 32 10 51 20 41 30 47 16 9 -22 -57 -7 -45 37 31 25 44 61 105 80
135 18 30 29 56 24 58 -5 2 -1 12 10 23 17 17 26 49 14 49 -3 0 -5 -6 -5 -14z"/>
<path d="M8241 9665 c-18 -8 -42 -15 -52 -15 -17 0 -24 -11 -20 -32 0 -4 -7
-5 -17 -2 -9 2 -2 -3 16 -12 17 -10 32 -21 32 -26 0 -12 34 -10 47 3 8 8 17 8
31 0 26 -14 62 -14 62 -1 0 18 44 10 95 -16 117 -63 186 -154 178 -237 -11
-118 -26 -170 -60 -207 -34 -39 -37 -78 -5 -65 9 3 14 3 10 0 -3 -4 -2 -20 4
-37 7 -19 13 -26 18 -18 4 6 11 11 16 9 5 -1 14 7 19 17 6 11 20 34 33 51 12
17 22 36 22 42 0 7 8 24 18 38 13 21 17 48 17 123 -1 104 -20 161 -83 247 -79
106 -285 182 -381 138z"/>
<path d="M2307 9536 c-8 -52 1 -76 30 -76 24 0 25 -2 19 -37 -14 -79 -18 -93
-27 -93 -6 0 -8 4 -4 9 3 5 1 12 -5 16 -5 3 -10 -3 -10 -14 0 -10 -6 -22 -12
-25 -7 -4 -4 -5 7 -3 23 4 49 -18 40 -33 -3 -5 -12 -7 -20 -3 -8 3 -15 0 -15
-6 0 -6 7 -11 16 -11 8 0 12 -5 9 -11 -4 -6 -14 -8 -22 -5 -12 5 -14 1 -10
-14 3 -12 0 -20 -8 -20 -10 0 -25 -20 -25 -34 0 -9 65 -4 72 6 5 9 8 10 8 1 0
-7 -11 -24 -24 -38 -23 -25 -49 -99 -38 -110 9 -9 42 -5 42 5 0 6 3 9 8 8 4 0
24 7 45 16 32 14 38 21 35 44 -2 19 -8 27 -20 26 -10 -1 -18 5 -18 13 0 11 9
14 35 11 31 -3 36 -1 41 19 4 13 10 23 15 23 9 0 3 -19 -17 -58 -8 -16 -13
-19 -17 -10 -2 7 -7 11 -9 8 -3 -3 -3 -13 1 -23 6 -16 8 -16 29 -1 26 18 55
70 47 84 -3 6 -15 10 -26 10 -10 0 -19 4 -19 9 0 5 -9 13 -20 16 -26 8 -25 30
0 58 11 12 18 27 16 34 -3 7 -2 12 2 12 21 -3 21 4 2 34 l-22 32 26 -28 c15
-16 24 -33 21 -38 -4 -5 5 -4 19 3 29 13 31 21 14 86 -14 56 -50 124 -69 131
-11 3 -11 0 1 -15 14 -18 14 -18 -5 -3 -11 9 -45 20 -76 23 l-56 7 -6 -35z"/>
<path d="M8248 9535 c-6 -27 -2 -29 70 -40 23 -4 42 -10 42 -14 0 -9 103 -30
126 -26 11 2 23 4 28 4 15 2 -26 42 -73 73 -44 28 -78 37 -66 18 10 -16 14
-70 5 -70 -11 0 -31 60 -24 71 3 5 -19 9 -49 9 -50 0 -55 -2 -59 -25z"/>
<path d="M9417 9520 c-54 -4 -99 -9 -101 -11 -4 -6 19 -237 24 -242 3 -2 25
-2 50 2 40 5 46 9 51 36 l7 30 1 -34 1 -33 68 3 67 4 5 -47 6 -48 -66 -1 c-36
-1 -78 -4 -95 -8 -27 -5 -30 -11 -33 -46 -3 -39 -2 -40 28 -41 21 -1 27 2 18
7 -7 5 27 9 85 9 l97 0 0 55 c0 30 -6 74 -14 97 -8 24 -17 77 -21 118 -3 41
-8 94 -11 118 -6 48 9 45 -167 32z"/>
<path d="M8455 9428 c11 -15 27 -28 36 -28 27 0 43 -26 30 -47 -11 -17 -11
-17 -9 1 2 10 -2 21 -9 23 -8 3 -9 -6 -5 -29 4 -18 7 -59 7 -91 0 -46 3 -56
15 -52 8 4 11 3 7 -1 -4 -4 -2 -13 4 -21 8 -8 8 -13 1 -13 -6 0 -12 6 -15 13
-2 6 -8 8 -13 4 -9 -8 21 -37 38 -37 18 0 41 55 45 113 7 79 -19 177 -47 177
-10 0 -20 -7 -24 -15 -3 -8 -13 -15 -22 -15 -10 0 -14 5 -10 16 3 9 2 12 -5 9
-5 -4 -17 -1 -26 7 -13 10 -12 6 2 -14z"/>
<path d="M7916 9274 c-15 -39 49 -200 102 -256 14 -16 28 -28 31 -28 4 0 12
12 19 28 20 43 43 69 49 54 3 -7 14 -17 26 -23 l22 -11 -20 20 c-41 43 -45 50
-32 55 7 2 26 -2 44 -10 57 -23 57 -17 -2 62 -25 32 -46 63 -48 68 -1 5 -15 5
-30 2 -18 -5 -29 -16 -34 -33 l-6 -27 -13 35 c-7 19 -13 45 -13 58 -1 19 -6
22 -45 22 -30 0 -46 -5 -50 -16z"/>
<path d="M7130 9261 c0 -5 -9 -11 -20 -14 -11 -3 -20 0 -20 6 0 6 -10 0 -22
-13 -28 -30 -36 -100 -12 -100 8 0 13 -4 10 -9 -3 -4 6 -13 20 -20 31 -14 55
-15 34 -1 -12 8 -8 10 15 11 17 1 36 1 42 0 14 -2 11 58 -3 81 -4 7 -3 8 4 4
26 -16 10 22 -18 42 -16 13 -30 18 -30 13z"/>
<path d="M9215 9239 c-55 -4 -121 -7 -147 -8 l-48 -1 0 -54 c0 -30 5 -58 10
-61 6 -4 77 -1 159 6 l149 13 -6 35 c-12 81 -6 77 -117 70z"/>
<path d="M5395 8990 c-418 -3 -748 -8 -734 -12 33 -10 1387 -11 1453 -2 36 5
47 4 42 -4 -5 -8 -2 -10 9 -6 8 4 22 1 30 -6 9 -8 15 -8 15 -2 0 6 8 13 18 15
9 3 2 4 -17 4 -19 -1 -36 4 -39 11 -2 6 -7 11 -10 10 -4 -2 -349 -5 -767 -8z"/>
<path d="M3019 8939 c-11 -6 -25 -181 -35 -421 l-7 -176 57 -7 c31 -4 59 -5
62 -3 6 7 34 436 34 530 l0 76 -51 4 c-28 1 -55 1 -60 -3z"/>
<path d="M3565 8725 c-4 -23 -23 -414 -21 -422 1 0 19 -3 41 -5 l40 -3 3 55
c2 30 7 49 11 42 4 -7 8 1 8 20 0 18 3 93 7 166 l7 132 -36 0 c-19 0 -35 5
-35 10 0 6 14 10 30 10 30 0 40 13 19 26 -6 3 -15 0 -20 -7 -5 -8 -9 -9 -9 -4
0 6 -9 11 -20 11 -14 0 -21 -9 -25 -31z"/>
<path d="M3176 8732 c-14 -3 -16 -20 -16 -116 0 -62 -3 -153 -6 -203 l-7 -90
61 -2 60 -2 6 108 c4 60 9 139 12 177 5 49 3 67 -5 62 -6 -4 -20 -1 -32 7
l-21 15 21 7 c11 3 25 3 31 0 5 -3 10 3 10 13 0 17 -8 21 -49 24 -26 1 -56 2
-65 0z"/>
<path d="M5480 8405 l0 -205 110 0 110 0 0 205 0 205 -110 0 -110 0 0 -205z"/>
<path d="M4960 8375 l0 -175 110 0 110 0 0 175 0 175 -110 0 -110 0 0 -175z"/>
<path d="M2377 8533 c-4 -3 -7 -17 -7 -30 0 -20 -5 -23 -35 -23 -24 0 -37 6
-45 20 -21 39 -76 12 -65 -32 7 -26 7 -26 43 -11 23 10 51 13 78 9 48 -6 124
-36 124 -49 0 -4 5 -5 12 -1 7 4 8 3 4 -4 -4 -7 -2 -20 3 -29 8 -14 11 -15 11
-3 1 28 17 -12 24 -60 12 -87 -30 -167 -106 -200 -26 -11 -59 -20 -75 -20 -16
0 -23 -4 -17 -8 7 -4 13 -16 15 -27 6 -29 39 -32 40 -3 0 21 1 22 8 3 7 -18 9
-17 24 11 9 18 23 34 32 37 18 7 45 -1 45 -14 0 -15 26 -10 43 9 21 23 22 48
1 60 -24 13 -8 52 26 63 38 14 50 69 14 69 -7 0 -21 12 -31 26 -13 21 -14 30
-5 45 16 26 15 64 -3 79 -9 8 -28 9 -56 5 -42 -7 -42 -7 -37 22 2 16 -1 34 -7
40 -16 15 -50 25 -58 16z"/>
<path d="M5738 8320 l-3 -121 100 3 100 3 3 118 4 117 -101 0 -100 0 -3 -120z"/>
<path d="M5220 8310 l0 -110 110 0 110 0 0 110 0 110 -110 0 -110 0 0 -110z"/>
<path d="M7973 8333 c44 -5 40 -23 -6 -23 -18 0 -42 -3 -55 -6 -20 -6 -23 -11
-18 -43 3 -20 5 -44 6 -54 0 -16 8 -18 71 -15 l71 3 -5 63 c-4 35 -9 67 -12
72 -4 6 -25 9 -48 8 l-42 -1 38 -4z"/>
<path d="M125 8305 c-11 -14 -28 -25 -38 -25 -22 0 -34 -29 -16 -40 7 -5 16
-7 21 -4 14 9 28 -35 28 -89 0 -29 -4 -100 -9 -158 -6 -57 -15 -171 -21 -254
-9 -112 -17 -161 -32 -193 -17 -37 -19 -47 -8 -67 8 -16 11 -67 9 -171 -3 -93
0 -151 6 -154 6 -3 11 11 13 30 6 90 13 119 27 114 8 -3 65 -11 127 -18 72 -7
113 -16 113 -23 0 -6 3 -15 8 -19 4 -4 7 0 7 9 0 21 -22 22 209 -8 134 -17
199 -29 211 -40 14 -13 19 -13 23 -3 7 20 187 1 187 -18 0 -16 27 -19 32 -3 2
7 34 7 108 -1 58 -6 107 -13 109 -16 2 -2 10 4 18 14 12 15 12 13 8 -14 -3
-23 0 -34 10 -38 10 -4 15 1 15 14 0 15 7 20 25 20 14 0 25 3 25 8 0 13 -54
30 -100 30 -25 0 -121 10 -214 22 -93 12 -179 20 -192 17 -14 -2 -21 0 -17 6
4 6 0 8 -9 4 -9 -3 -33 -2 -54 3 -22 5 -145 20 -274 35 -129 14 -263 30 -297
35 -33 6 -68 8 -76 4 -17 -6 -17 3 9 321 8 105 16 233 17 286 1 53 5 92 9 85
4 -6 8 12 8 40 0 28 5 76 11 105 17 82 18 99 8 99 -5 0 -9 5 -9 12 0 7 6 6 18
-4 31 -27 37 -27 38 4 1 21 -3 28 -13 24 -8 -3 -11 -1 -8 4 3 6 -1 10 -9 10
-8 0 -18 5 -22 12 -5 7 -3 8 6 3 9 -5 11 -4 6 3 -11 18 -29 13 -51 -13z"/>
<path d="M8053 8253 c3 -32 1 -67 -3 -78 -5 -11 -9 -14 -9 -7 -1 8 -20 12 -63
11 -55 -1 -59 -2 -31 -10 39 -11 61 -59 34 -76 -17 -12 -14 -13 53 -14 21 -1
25 -3 15 -10 -8 -5 -22 -6 -31 -3 -22 7 -24 -12 -2 -20 8 -3 12 -10 9 -16 -4
-6 -11 -8 -16 -5 -5 3 -6 -1 -3 -9 5 -14 9 -13 30 1 13 8 35 13 49 11 14 -3
30 1 37 9 6 8 17 12 23 9 7 -2 19 4 28 15 9 10 14 19 11 19 -3 0 3 16 15 35
21 37 15 50 -7 15 -7 -12 -16 -19 -21 -16 -4 3 -7 -5 -6 -17 3 -29 -5 -48 -16
-41 -5 2 -18 0 -29 -6 -15 -8 -25 -8 -38 0 -16 11 -16 11 0 6 10 -3 28 0 40 7
19 10 23 21 23 57 1 30 -5 50 -17 62 -10 10 -18 31 -18 47 0 20 -6 30 -20 34
-12 3 -20 14 -20 26 0 12 -5 21 -11 21 -8 0 -10 -18 -6 -57z"/>
<path d="M7793 8273 c-32 -4 -33 -6 -33 -47 0 -27 6 -48 15 -56 21 -17 19 -46
-5 -68 l-21 -19 21 -6 c11 -3 20 0 20 6 0 24 18 -10 23 -44 5 -34 3 -37 -26
-47 -30 -9 -30 -10 -7 -12 14 -1 -8 -8 -49 -15 -73 -13 -119 -35 -68 -32 14 1
23 6 20 11 -3 4 4 5 16 1 30 -9 162 5 155 17 -4 6 2 7 15 3 14 -4 21 -2 21 6
0 7 -3 10 -6 7 -3 -3 -16 4 -30 17 -19 18 -23 29 -18 49 3 14 10 26 14 26 4 0
11 20 14 45 5 29 12 45 22 45 8 0 14 4 14 10 0 5 -7 7 -15 4 -12 -5 -15 4 -15
50 0 62 4 59 -77 49z"/>
<path d="M9774 8143 c12 -86 36 -387 36 -440 0 -50 1 -53 26 -53 l26 0 -6 103
c-12 181 -27 371 -32 405 -4 26 -9 32 -30 32 -25 0 -26 -2 -20 -47z"/>
<path d="M5735 8162 c-3 -3 -5 -20 -5 -39 l0 -34 97 3 97 3 4 38 3 38 -95 -2
c-52 -1 -98 -4 -101 -7z"/>
<path d="M9595 8161 c-19 -8 -20 -15 -14 -92 3 -46 12 -162 19 -256 l13 -173
31 0 32 0 -13 173 c-22 294 -28 350 -38 353 -5 1 -19 -1 -30 -5z"/>
<path d="M3940 8113 c3 -59 2 -61 -30 -68 -24 -5 -34 -2 -49 16 -16 20 -23 22
-47 14 -37 -13 -42 -40 -14 -70 35 -37 21 -73 -30 -81 -41 -7 -49 -20 -34 -58
5 -12 14 -15 38 -10 28 5 34 2 44 -21 17 -37 15 -53 -8 -67 -28 -18 -25 -44 6
-65 26 -17 27 -16 51 11 18 21 29 27 48 22 19 -5 24 -14 27 -44 3 -34 6 -37
35 -40 29 -3 32 0 39 33 4 21 15 40 27 47 17 9 23 6 40 -16 30 -42 97 -31 97
16 0 10 -9 23 -20 30 -46 29 -8 93 48 82 31 -6 32 -5 32 29 0 36 -12 47 -50
47 -40 0 -52 62 -19 89 18 15 20 21 10 39 -6 12 -21 27 -33 33 -17 9 -24 7
-42 -15 -18 -22 -25 -25 -51 -18 -26 7 -31 14 -35 53 -5 43 -6 44 -43 47 l-39
3 2 -38z"/>
<path d="M9384 8053 c2 -16 10 -104 16 -198 15 -235 15 -233 45 -227 23 4 25
9 25 59 0 67 -19 340 -25 371 -4 17 -12 22 -36 22 -28 0 -30 -2 -25 -27z"/>
<path d="M9191 8015 c-1 -47 19 -340 25 -372 3 -18 11 -23 34 -23 26 0 30 3
26 23 -3 12 -10 100 -17 195 -11 158 -13 172 -31 172 -10 0 -23 10 -28 23 -7
19 -9 16 -9 -18z"/>
<path d="M8994 7948 c-2 -4 1 -81 7 -172 l12 -166 30 0 30 0 -6 123 c-4 67
-10 145 -13 172 -6 45 -9 50 -31 50 -14 0 -27 -3 -29 -7z"/>
<path d="M3730 7391 c-172 -53 -223 -242 -98 -361 17 -16 45 -35 63 -42 29
-10 33 -15 29 -42 -12 -103 -17 -152 -15 -159 1 -5 -3 -6 -9 -2 -6 3 -8 11 -5
16 4 5 -1 9 -10 9 -9 0 -14 -4 -10 -9 3 -5 1 -12 -5 -16 -5 -3 -14 -15 -20
-25 -9 -17 -7 -18 22 -9 43 12 48 12 48 -5 0 -10 -16 -17 -47 -21 -69 -9 -79
-13 -65 -27 17 -17 172 -23 216 -8 42 13 46 31 13 57 -13 10 -29 32 -35 48 -9
27 -11 27 -11 7 -1 -17 -6 -23 -18 -20 -15 3 -19 16 -21 73 -4 104 0 113 56
121 53 8 109 33 134 61 27 29 48 89 47 130 -1 33 -2 31 -9 -16 -5 -30 -17 -66
-28 -80 -40 -54 -142 -91 -210 -76 -41 9 -117 70 -132 106 -19 45 -17 152 3
183 10 14 18 29 19 33 4 12 61 40 108 53 55 15 110 5 143 -26 15 -14 27 -22
27 -18 0 4 12 -6 26 -22 18 -20 23 -22 15 -8 -36 72 -143 118 -221 95z"/>
<path d="M5832 7243 c-30 -6 -45 -46 -37 -96 6 -32 11 -38 28 -35 12 1 27 0
32 -3 6 -3 29 -11 53 -19 40 -13 70 -35 60 -45 -2 -3 -22 4 -43 15 -22 11 -47
20 -57 20 -10 0 -18 5 -18 12 0 6 -9 3 -20 -7 -20 -18 -27 -45 -12 -45 4 0 7
-24 6 -54 -1 -48 2 -55 23 -65 32 -14 72 -14 103 2 20 10 25 21 27 57 1 25 7
46 12 48 14 5 14 59 1 67 -5 3 -10 14 -10 23 0 9 -7 26 -16 37 -15 20 -15 20
-57 -3 -23 -12 -45 -22 -49 -22 -16 0 4 27 32 44 17 9 30 23 30 30 0 27 -45
47 -88 39z"/>
<path d="M5689 7224 c-32 -10 -49 -21 -52 -35 -3 -11 -14 -23 -24 -25 -10 -3
-26 -16 -35 -29 -21 -28 -49 -105 -38 -105 4 0 10 -10 14 -22 4 -15 9 -19 13
-12 5 6 15 10 25 9 9 -2 18 5 21 16 8 29 37 24 37 -6 0 -18 5 -25 20 -25 26 0
25 -8 -2 -37 -19 -20 -19 -23 -4 -23 9 0 15 4 11 9 -3 5 -1 12 5 16 11 7 53
85 48 90 -2 1 -21 7 -43 13 l-40 10 62 1 c34 1 64 4 66 9 3 4 2 42 0 85 -6 86
-5 85 -84 61z"/>
<path d="M9299 7201 c26 -36 46 -52 68 -55 10 -2 18 -9 18 -17 0 -8 14 -37 31
-64 48 -75 59 -137 40 -219 -17 -73 -36 -115 -60 -136 -13 -10 -14 -16 -4 -28
10 -13 10 -14 1 -8 -9 5 -13 0 -14 -16 0 -13 -3 -17 -6 -10 -8 21 -21 13 -17
-10 4 -22 4 -22 -5 -2 -5 12 -16 24 -25 27 -23 9 -74 93 -93 155 -13 40 -20
51 -32 46 -48 -19 -92 -26 -142 -20 -53 5 -57 4 -63 -17 -3 -12 -26 -35 -51
-51 -26 -16 -52 -37 -58 -46 -6 -10 -17 -16 -24 -13 -7 3 -19 0 -27 -6 -7 -6
-22 -9 -32 -5 -18 5 -18 5 -1 -9 9 -8 17 -21 17 -29 0 -16 116 -98 138 -98 7
0 12 -5 12 -11 0 -6 9 -8 21 -4 16 5 20 3 17 -6 -5 -15 -40 -17 -73 -5 -16 6
-17 5 -4 -3 66 -43 184 -54 287 -27 73 18 163 73 155 93 -3 9 0 11 10 7 8 -3
18 0 23 7 4 8 3 10 -4 5 -19 -11 -14 9 9 38 12 15 27 25 34 22 7 -2 20 3 28
12 16 19 42 91 34 98 -2 3 -11 -16 -18 -41 -16 -53 -39 -81 -39 -46 0 11 3 21
8 21 4 0 13 15 21 33 8 17 21 40 29 50 23 27 21 161 -3 207 -11 19 -20 41 -21
47 -4 23 -76 113 -85 107 -5 -3 -12 2 -15 10 -3 9 -13 16 -21 16 -8 0 -11 5
-7 12 4 6 3 8 -3 5 -6 -4 -24 -2 -42 3 l-31 9 19 -28z"/>
<path d="M8855 7138 c-76 -69 -119 -157 -117 -241 1 -31 6 -65 11 -75 10 -16
10 -15 11 3 0 17 1 18 16 4 9 -9 25 -14 40 -11 28 5 32 18 7 25 -10 3 -3 4 16
4 26 -2 35 3 42 21 6 15 5 21 -1 17 -5 -3 -18 -1 -27 4 -14 8 2 10 61 11 l79
0 -7 69 c-7 78 -46 213 -62 218 -7 2 -38 -20 -69 -49z"/>
<path d="M6622 7034 c4 -35 17 -38 218 -55 93 -8 136 -15 120 -20 -56 -16
-232 -7 -322 16 -21 5 -28 4 -28 -7 0 -35 36 -49 151 -58 63 -5 122 -10 132
-10 9 0 17 -4 17 -10 0 -13 -194 -13 -239 0 -44 12 -58 3 -32 -22 12 -10 26
-16 32 -12 8 5 8 1 0 -14 -10 -18 -5 -23 52 -50 35 -17 64 -26 68 -21 3 5 12
7 20 4 24 -9 144 41 148 61 2 11 8 24 13 31 5 7 7 16 4 21 -3 6 1 28 9 51 9
26 10 43 4 47 -6 3 -8 18 -4 33 l6 26 -73 -5 c-75 -6 -221 2 -271 15 -27 7
-28 6 -25 -21z"/>
<path d="M4284 7002 c19 -22 19 -22 -13 -65 -116 -155 -130 -254 -41 -300 65
-33 189 5 277 86 38 35 45 38 60 26 16 -13 17 -12 4 4 -18 23 -36 19 -77 -20
-51 -48 -139 -85 -202 -87 -47 -1 -57 2 -78 27 -13 15 -24 39 -24 51 0 52 53
156 112 222 l19 21 46 -24 c26 -12 56 -23 67 -22 12 0 1 7 -24 15 -25 8 -54
21 -65 29 -17 14 -18 18 -6 38 14 22 14 22 -8 3 -21 -19 -21 -19 -43 0 l-23
19 19 -23z"/>
<path d="M1207 6808 c-14 -79 -30 -258 -24 -264 5 -6 294 44 306 53 2 1 -4 23
-13 47 -25 66 -91 134 -161 167 -81 39 -101 38 -108 -3z"/>
<path d="M5090 6706 c0 -12 -16 -14 -89 -9 -114 7 -164 -5 -266 -67 -44 -26
-104 -56 -134 -65 -68 -22 -93 -46 -85 -83 3 -15 17 -37 30 -49 l25 -23 -25
-49 c-39 -75 -63 -268 -34 -259 8 3 18 -14 26 -46 7 -28 27 -73 45 -101 46
-71 59 -103 45 -111 -7 -4 -8 -3 -4 4 8 14 -37 27 -60 18 -12 -4 -14 -13 -9
-29 7 -24 15 -65 17 -85 2 -16 46 -7 67 13 11 11 12 20 3 39 -6 13 -8 27 -4
31 4 4 12 -13 19 -37 12 -40 12 -38 6 32 -12 121 -8 193 11 243 10 26 22 45
26 42 5 -3 11 -1 14 4 3 4 46 9 97 9 73 0 95 4 111 19 23 20 17 2 -10 -29 -13
-16 -13 -18 2 -24 9 -3 33 -3 54 1 69 14 87 15 114 4 19 -8 31 -8 45 1 17 11
17 11 0 6 -11 -3 -15 -2 -12 4 3 6 14 10 24 10 10 0 36 13 57 28 63 46 69 47
45 13 -13 -18 -21 -35 -18 -37 9 -9 50 16 92 57 31 30 41 35 41 21 1 -9 4 -26
8 -37 6 -16 6 -17 -3 -5 -6 8 -11 11 -11 5 0 -13 20 -43 20 -30 0 13 20 -17
20 -30 0 -5 -5 -3 -10 5 -8 13 -10 13 -10 -1 0 -9 10 -24 22 -35 12 -10 18
-13 14 -6 -4 6 -5 12 -2 12 2 0 16 -21 31 -47 49 -88 43 -233 -16 -370 -10
-24 -16 -43 -14 -43 2 0 18 20 34 44 22 32 29 52 26 75 -2 17 1 34 7 37 7 5 9
0 6 -14 -4 -12 -2 -22 3 -22 5 0 9 -10 10 -22 0 -13 3 -17 6 -10 2 6 9 10 14
6 5 -3 9 0 9 6 0 8 10 9 29 5 17 -3 32 -2 36 5 3 5 11 7 17 4 7 -4 8 -2 4 4
-4 6 -14 9 -24 6 -15 -5 -15 -5 1 6 9 6 20 9 25 7 14 -9 12 64 -3 87 -9 13
-13 32 -9 42 5 18 5 18 -6 2 -15 -24 -26 -23 -26 2 0 11 5 20 10 20 5 0 6 3 3
7 -4 3 1 16 12 27 26 29 83 200 88 267 3 37 -1 68 -11 93 -14 33 -14 37 -1 32
8 -3 22 -9 30 -12 37 -15 -7 79 -59 124 -37 32 -107 58 -132 48 -12 -5 -13 3
-8 42 4 36 2 51 -9 60 -12 10 -20 6 -46 -23 l-31 -36 0 31 c0 35 -13 64 -43
98 -30 33 -37 28 -37 -29 l0 -52 -52 55 c-41 42 -64 57 -100 66 -62 16 -88 15
-88 -2z"/>
<path d="M6716 6648 c4 -7 16 -25 26 -40 26 -38 23 -39 -29 -15 -41 18 -65 21
-163 21 -218 -1 -364 -69 -465 -214 -31 -44 -95 -80 -144 -80 -31 0 -33 -2
-27 -27 4 -16 14 -33 22 -39 12 -10 12 -16 -1 -47 -8 -20 -15 -56 -15 -79 0
-35 4 -45 23 -53 15 -7 24 -21 27 -45 3 -23 10 -35 21 -35 8 0 27 -8 41 -17
l26 -17 7 37 c8 44 73 112 86 90 7 -10 9 -10 9 2 0 13 1 13 10 0 13 -20 12
-26 -5 -44 -14 -13 -11 -14 22 -9 45 7 218 68 253 91 25 15 25 15 7 -5 -15
-17 -16 -23 -5 -29 7 -4 10 -3 5 1 -10 11 82 58 100 51 8 -3 12 -2 9 2 -6 10
63 37 83 33 8 -1 10 2 5 10 -4 8 -3 10 5 5 8 -5 30 12 61 46 42 45 49 50 50
31 0 -13 -5 -23 -10 -23 -7 0 -7 -7 0 -20 6 -12 11 -49 11 -83 1 -61 15 -134
30 -151 4 -5 2 15 -6 45 -24 88 -16 80 16 -16 16 -49 38 -106 49 -126 10 -19
17 -44 15 -55 -2 -10 -6 -61 -9 -112 -6 -88 -5 -92 13 -83 16 9 17 7 13 -17
-2 -15 -9 -33 -15 -40 -5 -7 -7 -15 -3 -19 3 -3 6 -2 6 4 0 6 23 16 50 23 54
13 85 44 94 93 5 31 -19 61 -41 53 -72 -28 -85 -7 -27 44 31 27 42 31 71 25
l33 -6 40 86 c83 180 107 320 75 430 -32 111 -151 195 -276 195 -51 0 -52 1
-63 52 -8 37 -62 88 -92 88 -17 0 -23 -4 -18 -12z"/>
<path d="M7988 6580 c-130 -22 -224 -71 -306 -159 -72 -77 -112 -180 -112
-286 l0 -50 23 35 22 35 6 -65 c6 -62 47 -176 75 -210 7 -9 15 -32 17 -53 4
-33 2 -37 -14 -32 -13 4 -19 1 -19 -8 0 -8 8 -14 17 -13 29 2 27 -35 -8 -102
-27 -53 -32 -74 -33 -135 -1 -112 46 -173 151 -196 48 -10 62 -7 225 48 14 5
30 5 35 0 12 -12 97 -24 90 -12 -3 5 13 8 38 8 30 -1 42 2 38 9 -3 6 0 5 8 -1
7 -7 28 -13 46 -13 39 0 42 -15 13 -53 -40 -50 -85 -70 -151 -65 -77 6 -115
32 -111 77 4 37 1 37 -89 10 -84 -26 -128 -67 -223 -209 -50 -75 -60 -96 -47
-98 9 -2 20 -8 24 -12 11 -10 -91 -33 -105 -24 -7 5 -8 2 -3 -5 4 -7 18 -11
31 -8 16 3 24 0 24 -9 0 -8 -4 -14 -10 -14 -5 0 -10 -7 -10 -16 0 -14 2 -15
17 -3 15 13 16 11 10 -23 -3 -20 -15 -46 -26 -57 -12 -12 -21 -25 -21 -30 0
-5 -8 -12 -18 -16 -11 -3 -24 -17 -30 -30 -6 -14 -16 -25 -22 -25 -6 0 -26
-16 -44 -35 -19 -19 -38 -35 -45 -35 -6 0 -11 -6 -11 -14 0 -14 -72 -46 -105
-46 -11 0 -26 -9 -33 -20 -14 -22 -37 -17 -28 6 3 8 1 14 -5 14 -20 0 -69 58
-69 81 0 18 -3 20 -12 11 -7 -7 -11 -28 -10 -48 3 -33 -16 -63 -40 -64 -6 0 8
51 23 82 6 12 3 18 -9 21 -14 4 -14 6 5 12 13 4 19 12 16 21 -14 38 -54 -9
-68 -81 -6 -27 -10 -33 -12 -20 -2 11 -10 40 -18 65 -7 25 -21 81 -31 125 -19
91 -34 117 -34 62 0 -20 -4 -37 -9 -37 -21 0 -41 13 -41 26 0 28 -53 179 -67
190 -15 13 -46 159 -39 187 2 9 0 14 -6 11 -9 -6 -8 -54 6 -269 l5 -70 -9 64
c-5 35 -12 66 -16 70 -4 3 -4 -11 0 -33 5 -26 2 -53 -9 -85 -15 -39 -25 -49
-64 -68 -43 -20 -47 -21 -60 -5 -12 15 -13 15 -8 -5 4 -20 2 -22 -20 -17 -28
7 -78 50 -66 56 4 3 2 3 -5 1 -24 -6 -37 10 -16 19 13 5 8 6 -13 2 -21 -3 -33
-1 -33 5 0 6 -7 11 -15 11 -8 0 -15 5 -15 12 0 6 -3 9 -6 6 -13 -13 19 -49 64
-70 26 -13 60 -32 76 -43 28 -19 92 -22 141 -8 17 5 18 4 6 -11 -12 -14 -11
-16 3 -16 9 0 25 -5 36 -12 15 -10 26 -10 53 0 43 15 100 15 115 0 13 -13 16
-66 4 -85 -6 -9 -12 -7 -22 9 -27 38 -61 68 -78 68 -15 0 -15 -2 -2 -10 8 -5
11 -10 7 -10 -4 0 3 -15 16 -32 43 -58 46 -125 3 -83 -13 13 -15 13 -21 -5 -4
-12 -15 -20 -27 -20 -12 0 -18 -3 -14 -7 11 -12 245 -19 251 -8 2 6 4 -1 3
-15 -2 -50 2 -71 13 -64 8 4 9 0 4 -15 -8 -26 14 -59 37 -55 10 1 20 -2 24 -7
14 -23 223 -7 554 41 147 22 177 24 142 9 -47 -19 -223 -49 -457 -79 -132 -17
-323 -42 -425 -56 -174 -23 -186 -24 -197 -7 -12 15 -13 14 -13 -8 0 -13 11
-79 25 -147 14 -68 25 -134 25 -148 0 -14 3 -23 8 -21 4 3 8 -7 8 -21 4 -71
12 -143 22 -188 14 -58 58 -308 68 -379 9 -65 13 -87 17 -91 1 -2 52 -32 113
-67 87 -50 115 -62 128 -55 15 8 1 19 -81 64 -54 30 -109 63 -123 73 l-24 19
49 7 c140 18 560 80 797 117 l197 31 -20 39 c-16 31 -24 37 -42 33 -42 -9
-293 -45 -457 -65 -91 -12 -225 -30 -299 -41 -91 -13 -138 -16 -145 -9 -10 10
-145 703 -146 748 0 12 3 22 6 22 5 0 877 108 914 113 9 1 13 -4 11 -13 -14
-59 -13 -102 5 -121 16 -18 18 -35 16 -131 -1 -61 -7 -120 -13 -132 -9 -20 -8
-19 7 2 9 12 25 22 35 22 18 0 22 -9 34 -67 3 -17 13 -34 21 -37 8 -3 20 -19
25 -36 6 -16 14 -28 18 -26 11 7 67 -21 90 -45 13 -13 28 -35 35 -49 18 -34
28 -93 16 -85 -6 3 -10 0 -10 -6 0 -7 -18 6 -40 30 -22 23 -40 47 -40 52 0 5
-4 9 -10 9 -16 0 -12 -15 20 -61 39 -58 39 -70 -2 -58 -18 5 -34 14 -36 19 -2
6 -9 10 -17 10 -9 0 -9 -8 4 -34 9 -18 21 -31 28 -29 6 2 31 -5 56 -16 51 -24
61 -25 52 -11 -14 22 10 8 37 -22 20 -23 27 -27 22 -13 -3 11 13 -1 36 -28 23
-26 55 -54 71 -63 31 -16 31 -34 -1 -34 -10 0 -22 -9 -25 -20 -3 -11 -11 -20
-17 -20 -6 0 -8 -9 -5 -20 4 -16 -4 -22 -47 -36 -46 -15 -156 -71 -156 -79 0
-2 23 -11 51 -20 63 -21 90 -60 87 -123 -1 -30 -8 -46 -22 -56 -12 -7 -57 -48
-101 -91 -88 -85 -133 -119 -214 -160 -63 -31 -195 -75 -229 -75 -31 0 -62 17
-62 35 0 20 -18 19 -22 -1 -2 -13 -12 -10 -53 18 -27 18 -55 43 -61 56 -19 39
-25 38 -18 -5 6 -40 6 -40 -27 -46 -99 -18 -597 -77 -645 -77 -10 0 -14 13
-14 44 l0 44 48 11 c26 7 58 19 70 27 33 22 62 90 62 150 0 67 -29 110 -101
149 -31 17 -70 41 -88 55 -71 56 -85 69 -73 70 6 0 12 5 12 11 0 6 -9 8 -20 4
-16 -5 -32 4 -66 35 -57 53 -111 76 -194 85 -87 10 -151 41 -161 79 -11 39 -3
47 92 100 106 60 161 108 216 189 33 50 48 65 54 55 6 -8 9 -1 9 22 0 19 8 76
17 125 9 50 16 102 16 118 0 15 2 27 4 27 3 0 23 -14 44 -31 35 -27 55 -29 29
-3 -11 11 -81 286 -75 292 2 3 13 -11 24 -29 22 -37 24 -35 21 26 -2 66 -30
135 -74 183 -42 46 -143 102 -183 102 -28 0 -29 11 -3 28 35 21 24 39 -29 46
-27 3 -55 4 -64 0 -8 -3 -17 -2 -20 3 -3 4 -63 5 -134 2 -99 -5 -133 -3 -150
7 -16 10 -29 11 -48 4 -36 -14 -115 -13 -115 1 0 6 -7 9 -15 5 -8 -3 -15 0
-15 7 0 8 -4 7 -10 -3 -6 -9 -21 -14 -41 -12 l-31 4 7 -70 7 -71 -37 -7 c-20
-3 -38 -4 -41 -1 -3 3 -1 82 5 176 14 224 14 324 -1 339 -9 9 -147 12 -560 12
l-547 0 -17 -31 c-8 -17 -16 -55 -17 -85 -1 -30 -5 -54 -10 -54 -4 0 -6 -4 -2
-9 3 -5 -12 -15 -32 -21 -41 -13 -60 -26 -51 -35 3 -3 18 1 34 10 60 31 70 17
80 -108 5 -79 4 -97 -7 -97 -8 0 -23 -7 -33 -15 -19 -14 -18 -15 10 -15 22 0
26 3 14 10 -12 8 -11 10 6 10 18 0 22 -8 28 -57 4 -32 12 -86 18 -120 10 -57
13 -62 42 -67 17 -4 200 -6 406 -6 206 0 380 0 386 0 7 0 14 -9 17 -20 4 -14
14 -20 35 -20 l30 0 -31 -71 -32 -71 -65 7 c-112 11 -670 65 -795 77 -78 7
-126 16 -137 26 -27 23 -22 27 30 24 86 -6 107 44 49 119 -38 50 -197 153
-299 195 -61 25 -66 28 -50 41 16 14 16 14 -3 8 -50 -16 -72 -16 -88 0 -10 9
-17 11 -17 5 0 -6 -5 -8 -10 -5 -14 9 -238 9 -278 1 -17 -4 -32 -11 -32 -16 0
-5 -8 -11 -17 -13 -11 -3 -5 -5 12 -6 l30 -2 -28 -15 c-15 -8 -31 -12 -36 -9
-15 9 -67 -26 -91 -62 -20 -29 -28 -33 -65 -33 -47 0 -81 24 -51 36 10 4 16
18 16 39 l0 33 124 30 c68 16 161 47 206 67 92 41 116 41 164 -3 16 -15 27
-20 24 -12 -2 8 -24 28 -47 44 -32 21 -39 31 -29 37 21 14 182 11 196 -3 7 -7
12 -8 12 -2 0 15 -112 228 -122 232 -4 2 -8 8 -8 14 0 15 -84 120 -129 161
-68 62 -204 117 -252 102 -17 -6 -17 -8 -5 -21 8 -8 19 -14 25 -14 25 0 8 -46
-32 -85 -42 -42 -109 -71 -131 -57 -6 4 2 10 19 13 17 4 0 5 -37 4 -62 -4 -69
-2 -97 24 -17 16 -33 26 -36 23 -3 -3 -5 2 -5 12 0 9 -4 15 -8 12 -4 -2 -8 4
-9 14 -1 11 4 23 10 26 7 4 9 4 5 -1 -4 -4 7 -21 23 -36 17 -16 25 -29 18 -29
-7 0 -10 -3 -6 -6 3 -3 10 -3 16 1 7 4 2 19 -15 41 -22 29 -24 36 -13 50 11
13 10 15 -6 12 -10 -1 -20 4 -22 12 -3 11 -2 11 4 3 5 -7 14 -9 22 -4 9 6 7
10 -9 14 -12 3 -19 10 -16 16 4 6 -21 -3 -56 -19 -35 -17 -69 -30 -76 -30 -25
0 -97 -43 -125 -74 -41 -46 -93 -152 -127 -256 -16 -50 -30 -93 -30 -94 0 -4
213 34 273 49 32 8 67 15 77 15 10 0 25 7 34 15 8 8 21 12 29 9 8 -3 44 2 81
10 84 20 126 21 126 2 0 -8 -19 -18 -48 -24 l-47 -11 50 4 c28 3 44 2 37 -1
-6 -3 -9 -11 -5 -16 11 -19 4 -89 -13 -116 -9 -15 -37 -43 -62 -62 -85 -63
-193 -166 -217 -207 -15 -26 -24 -30 -65 -32 -60 -2 -92 10 -130 49 -16 16
-32 30 -34 30 -6 0 -76 71 -76 77 0 2 5 1 11 -3 9 -5 10 8 7 46 -3 29 -11 56
-19 61 -11 6 -11 11 -2 20 6 6 9 17 7 24 -3 7 7 17 23 24 24 9 20 10 -27 5
-30 -2 -67 -6 -82 -7 -31 -2 -42 -24 -53 -112 -3 -27 -14 -93 -25 -145 -10
-52 -22 -120 -26 -150 -3 -30 -7 -57 -8 -60 0 -2 35 -10 79 -16 120 -17 195
-34 195 -45 0 -12 0 -12 -137 11 -314 54 -409 73 -416 83 -4 7 -6 22 -4 34 3
14 0 20 -6 16 -6 -4 -8 0 -4 11 4 9 3 15 -2 12 -5 -3 -19 10 -32 29 -13 19
-28 35 -32 35 -5 0 -5 5 -2 10 4 6 0 21 -8 34 -14 21 -14 23 1 23 36 0 40 4
37 36 -2 17 -3 48 -4 67 l-1 34 -53 -52 c-45 -45 -77 -64 -77 -47 0 3 15 26
34 52 49 69 51 85 19 119 -15 16 -31 28 -36 26 -5 -1 -6 1 -3 6 7 12 -38 54
-49 45 -4 -5 -5 -3 -1 4 10 18 -42 49 -57 34 -19 -19 -31 -12 -13 8 16 17 16
19 0 25 -9 4 -19 4 -22 1 -3 -3 1 -5 8 -5 7 0 10 -3 7 -7 -4 -3 -17 3 -30 14
-12 11 -33 23 -47 27 -14 3 -19 3 -13 0 9 -4 10 -11 3 -24 -5 -10 -11 -34 -12
-53 -2 -20 -5 -35 -8 -35 -17 1 -23 -3 -13 -10 6 -4 -21 -7 -60 -7 -40 0 -84
-6 -99 -13 -34 -16 -137 -16 -154 1 -5 4 0 5 11 1 13 -5 4 10 -25 42 -25 28
-59 67 -75 87 l-31 37 -60 -29 c-62 -29 -106 -75 -136 -141 -39 -85 -56 -140
-63 -205 -4 -38 -11 -78 -16 -87 -12 -22 17 -51 43 -44 19 4 19 4 2 -15 -9
-10 -22 -19 -29 -19 -17 0 -62 -51 -74 -83 -13 -33 -14 -87 -3 -87 4 0 14 6
21 13 9 7 8 2 -2 -13 -27 -44 -83 -305 -67 -315 4 -3 11 -22 14 -42 14 -78 18
-93 26 -93 5 0 10 10 12 23 3 17 7 12 17 -23 37 -127 117 -230 244 -313 78
-51 174 -97 203 -97 7 0 25 -5 40 -10 l27 -11 -22 -23 -21 -23 27 -13 c17 -8
83 -16 168 -20 77 -4 122 -8 100 -10 -22 -2 -53 -5 -70 -6 -105 -9 -167 -4
-195 16 -17 12 -30 17 -30 11 0 -6 -9 -11 -20 -11 -11 0 -19 -3 -18 -7 3 -16
-15 -43 -28 -43 -8 0 -14 -3 -14 -6 0 -11 59 -62 65 -56 3 3 11 -1 18 -10 18
-23 58 -29 122 -17 81 15 234 26 237 17 4 -10 102 -13 118 -3 9 5 11 4 6 -3
-5 -8 5 -12 31 -13 32 -1 34 -2 13 -8 -22 -6 -20 -8 23 -25 26 -10 53 -15 60
-13 7 3 5 6 -5 6 -10 1 -15 7 -13 14 6 13 -117 78 -146 77 -24 0 -31 28 -11
39 9 6 12 11 5 11 -6 0 -19 -7 -28 -16 -24 -25 -63 -1 -71 43 -4 23 -12 33
-25 33 -15 0 -17 7 -15 43 1 23 -2 49 -8 57 -9 13 -9 13 5 3 9 -7 18 -11 21
-8 3 3 72 -8 154 -24 203 -40 591 -110 634 -113 33 -3 31 -5 -55 -47 -50 -24
-130 -67 -180 -96 -49 -28 -111 -64 -137 -79 -27 -15 -48 -29 -48 -31 0 -15
278 119 420 202 l64 39 22 184 c24 200 103 752 108 757 2 2 16 6 32 9 16 3 59
14 95 24 36 11 75 20 86 20 10 0 24 5 30 11 6 6 0 -34 -13 -88 -14 -54 -27
-127 -30 -163 l-6 -65 20 31 c37 58 43 52 36 -38 -5 -65 -3 -98 11 -143 19
-67 52 -128 65 -120 5 3 18 -10 29 -29 54 -87 184 -185 315 -237 98 -39 103
-43 82 -64 -9 -9 -16 -20 -16 -24 0 -13 67 -21 180 -21 102 0 151 10 116 23
-8 3 -16 1 -19 -6 -2 -6 -6 -3 -10 7 -4 9 -3 15 2 12 13 -8 22 36 10 50 -6 8
-2 16 15 27 24 16 24 16 16 -13 -8 -28 -7 -30 28 -39 52 -14 337 -58 522 -81
85 -11 247 -33 360 -50 113 -16 220 -30 238 -30 17 0 32 -4 32 -10 0 -5 -6
-10 -14 -10 -8 0 -17 -4 -21 -9 -7 -12 48 -6 74 8 11 7 22 26 25 48 16 97 54
434 74 643 l7 75 22 -45 c12 -25 32 -49 45 -55 14 -6 23 -21 25 -40 2 -16 11
-53 19 -81 8 -28 12 -66 9 -83 -4 -23 -2 -31 9 -31 8 0 16 5 18 12 2 6 22 -10
43 -36 51 -63 103 -97 204 -136 46 -18 97 -45 112 -60 28 -26 39 -48 19 -35
-5 3 -10 -1 -10 -9 0 -20 20 -31 30 -16 4 7 16 9 29 5 37 -11 14 -22 -61 -28
-55 -5 -77 -11 -89 -26 -10 -12 -52 -29 -112 -45 -128 -34 -165 -54 -225 -123
-28 -32 -63 -72 -79 -90 -25 -29 -32 -32 -63 -25 -86 19 -178 -36 -227 -136
-33 -67 -37 -144 -10 -210 l17 -42 -22 14 c-16 10 -57 15 -138 16 -63 0 -115
2 -117 4 -1 1 14 43 34 94 27 66 42 92 54 92 10 0 24 6 31 13 7 8 18 12 25 10
6 -2 26 15 45 38 18 23 59 67 91 99 48 48 57 61 53 86 -2 16 -1 23 1 17 7 -20
19 -15 19 6 0 11 -4 17 -9 14 -5 -3 -8 0 -5 8 3 8 10 14 16 14 17 0 24 12 9
18 -9 3 -29 -14 -53 -46 -75 -100 -206 -256 -220 -261 -8 -3 -12 -2 -9 3 3 5
6 34 6 63 0 76 8 108 26 108 13 0 13 3 3 15 -16 19 -6 45 17 46 16 0 16 1 -2
9 -28 12 -31 12 -33 -2 -6 -52 -38 -148 -49 -148 -2 0 -20 12 -40 27 -39 30
-65 32 -254 24 l-96 -5 -71 79 c-40 43 -72 82 -72 86 0 4 17 10 38 12 24 3 21
4 -10 2 -35 -1 -48 2 -48 11 0 8 -7 14 -15 14 -8 0 -15 4 -15 8 0 5 -44 24
-97 42 -54 18 -103 37 -110 42 -7 6 -22 3 -39 -9 -24 -15 -48 -18 -149 -17
-72 1 -138 7 -165 16 -47 15 -120 6 -120 -14 0 -6 -11 -7 -26 -4 -14 4 -24 3
-21 -1 3 -4 -13 -20 -34 -35 -22 -15 -39 -24 -39 -20 0 4 15 17 33 30 17 12
26 22 19 22 -7 0 -18 -5 -25 -10 -7 -6 -33 -26 -59 -45 -33 -25 -67 -67 -118
-150 -39 -63 -82 -128 -94 -143 -71 -85 -100 -174 -76 -236 12 -32 7 -32 -152
-11 -190 26 -298 50 -298 66 0 10 45 90 86 152 l24 37 -50 50 c-28 28 -59 50
-68 50 -10 0 -23 5 -30 12 -8 8 -15 9 -22 2 -8 -8 2 -16 33 -28 46 -17 91 -58
101 -91 4 -13 -3 -30 -22 -51 -15 -17 -40 -47 -57 -66 -37 -42 -116 -64 -197
-54 -83 10 -240 47 -273 64 -91 46 -124 92 -126 174 l-1 53 -8 -40 c-5 -22 -6
-68 -4 -102 4 -56 3 -62 -12 -56 -13 5 -15 2 -9 -15 4 -14 2 -22 -5 -22 -6 0
-8 -4 -5 -10 12 -20 -31 5 -84 48 -56 45 -140 92 -163 92 -7 0 3 -8 22 -17 63
-30 138 -83 160 -113 30 -42 15 -37 -28 10 -34 36 -170 110 -204 110 -7 0 -20
5 -28 10 -10 6 -2 7 25 3 102 -15 -19 23 -185 59 -115 25 -303 30 -370 9 -28
-8 -59 -28 -82 -52 -33 -34 -38 -37 -38 -19 0 11 11 33 25 48 14 15 23 33 20
40 -2 6 3 12 13 12 16 1 16 1 -1 11 -9 5 -22 7 -29 3 -7 -4 -8 -3 -4 4 4 7 2
12 -4 12 -6 0 -30 9 -52 20 -23 11 -48 20 -57 20 -11 0 -9 6 8 24 13 14 20 29
16 36 -4 6 -1 9 7 8 7 -2 12 5 12 14 -1 10 2 16 6 13 17 -10 27 56 14 89 -3 9
-11 13 -17 9 -6 -3 -7 -1 -3 5 7 13 -23 72 -36 72 -12 0 -9 -13 7 -34 21 -28
19 -99 -2 -118 -27 -23 -110 -51 -133 -45 -11 3 -20 1 -20 -4 0 -5 -15 -9 -32
-9 -30 0 -33 3 -33 33 -1 39 -11 97 -19 105 -3 3 -6 -20 -6 -51 0 -79 -5 -87
-55 -87 -105 0 -358 125 -462 229 -65 64 -85 110 -85 200 0 77 22 158 41 147
5 -4 12 2 16 13 3 10 16 22 29 25 32 8 104 -19 137 -50 14 -13 28 -21 32 -17
4 3 7 -1 7 -11 0 -9 5 -14 10 -11 21 13 7 38 -60 106 l-69 71 -123 25 c-68 13
-147 25 -176 26 l-53 2 -24 -55 c-24 -53 -24 -63 -24 -320 -1 -241 1 -269 19
-307 33 -73 80 -135 169 -221 81 -78 85 -84 67 -97 -27 -20 -98 -29 -182 -21
l-74 6 0 -304 0 -303 76 -6 c42 -3 78 -8 81 -11 9 -9 16 -409 9 -450 -5 -25
-15 -40 -29 -46 -17 -8 -13 -9 18 -5 37 5 36 4 -15 -14 -30 -10 -74 -24 -97
-30 -38 -11 -43 -15 -43 -41 l0 -30 68 26 c37 14 75 28 85 31 16 5 17 -13 17
-271 0 -273 4 -308 34 -328 20 -14 53 -8 70 11 19 21 20 40 10 259 -6 149 -6
153 16 172 20 17 22 27 18 90 -2 44 0 70 7 69 5 0 44 -13 85 -28 l75 -26 -3
-35 c-3 -30 2 -38 26 -52 33 -20 141 -50 152 -43 4 3 11 -11 14 -31 5 -26 14
-38 34 -45 18 -7 124 -9 317 -5 386 9 353 6 357 30 4 20 0 21 -129 21 -128 0
-133 1 -127 20 4 11 13 29 20 40 8 11 14 24 14 30 0 5 -5 3 -11 -5 -9 -12 -10
-11 -6 7 3 14 -3 33 -14 47 -10 13 -19 29 -19 36 0 6 -4 8 -10 5 -5 -3 -10 1
-10 9 0 9 -5 16 -11 16 -8 0 -9 11 -4 33 4 17 7 46 6 63 -1 17 10 62 25 100
14 38 34 94 44 124 16 48 30 86 79 213 10 27 11 27 48 12 21 -8 80 -26 132
-39 51 -14 96 -28 99 -30 2 -3 7 -38 9 -78 4 -50 10 -77 21 -85 9 -8 11 -13 4
-13 -7 0 -12 -6 -12 -14 0 -8 -20 -19 -47 -27 -27 -7 -71 -22 -100 -34 l-51
-20 86 -39 c122 -54 118 -52 214 -81 48 -14 90 -30 94 -36 4 -7 -1 -9 -17 -5
-17 4 -16 2 6 -8 17 -8 54 -18 83 -22 29 -3 51 -9 48 -12 -3 -3 2 -11 12 -19
15 -13 15 -14 -8 -8 -14 3 -56 10 -95 15 -219 28 -431 94 -467 145 -4 5 -8 1
-8 -11 0 -46 67 -92 192 -133 l68 -23 0 -53 c0 -51 1 -53 36 -70 26 -12 50
-16 81 -11 64 9 83 21 83 58 l0 31 91 -8 c51 -4 98 -9 105 -12 17 -6 27 -106
28 -267 l1 -128 -65 -20 c-36 -11 -137 -44 -225 -73 -88 -29 -206 -67 -263
-85 -56 -18 -101 -35 -99 -37 3 -2 40 7 83 21 90 27 158 41 133 26 -9 -5 -62
-26 -118 -46 -75 -26 -106 -33 -114 -25 -20 20 -27 12 -27 -29 0 -35 -4 -41
-34 -55 -75 -36 -42 -176 36 -146 41 16 53 39 52 107 l0 62 70 21 c224 67 361
112 436 143 132 55 130 55 130 19 0 -20 5 -31 14 -31 30 0 37 -29 42 -186 11
-354 21 -404 84 -404 48 0 70 53 51 123 -11 37 -52 507 -45 515 1 2 11 -1 23
-7 11 -6 106 -36 211 -66 106 -30 199 -59 207 -64 9 -5 17 -26 18 -51 4 -49
16 -60 65 -60 39 0 60 14 60 40 0 12 9 15 42 12 24 -2 48 -8 53 -13 6 -6 12
-42 15 -82 5 -65 8 -73 32 -86 20 -12 34 -13 55 -5 25 8 28 14 31 63 3 57 -9
81 -40 81 -19 0 -22 4 -32 53 -4 15 -16 37 -27 48 -18 18 -23 19 -31 8 -7 -11
-9 -9 -5 6 3 11 8 28 12 37 7 17 5 17 -21 3 -30 -15 -66 -20 -77 -9 -3 4 31
30 76 58 236 149 269 177 248 213 -9 16 -10 15 -11 -9 0 -18 -10 -33 -29 -47
-45 -33 -71 -27 -124 27 l-48 48 21 19 c11 10 18 25 15 32 -3 8 0 11 6 7 8 -4
9 6 4 32 -16 93 -16 160 -1 331 24 268 22 366 -8 430 -17 37 -37 60 -67 78
-53 34 -142 65 -185 65 -18 0 -35 4 -38 9 -4 5 4 7 16 5 21 -4 22 -4 3 5 -11
5 -29 10 -40 10 -11 1 -33 8 -48 16 -19 10 -27 11 -25 3 2 -6 20 -17 39 -24
34 -12 34 -12 6 -13 -20 -1 -26 -5 -21 -13 4 -7 -2 -5 -13 4 -11 10 -25 18
-32 18 -7 0 -21 10 -32 22 l-18 23 -1 -32 c0 -56 -79 -163 -120 -163 -5 0 -9
17 -9 38 2 30 3 32 6 9 2 -15 9 -27 14 -27 5 0 8 3 8 7 -1 5 -1 19 1 33 1 23
2 23 9 5 5 -11 6 -24 3 -29 -2 -5 1 -6 9 -4 8 3 13 13 11 23 -2 11 1 14 9 10
9 -6 10 -1 5 18 -3 14 -2 29 4 32 5 3 10 19 10 34 0 15 7 36 15 47 13 18 14
18 9 -6 -3 -20 -3 -21 4 -6 5 11 3 45 -4 80 -21 104 -31 166 -27 169 7 7 104
-10 114 -20 9 -9 28 -120 33 -190 0 -11 5 -18 11 -15 9 6 46 4 86 -3 12 -2 16
1 13 10 -7 16 33 152 46 160 6 3 72 -5 147 -19 112 -21 486 -76 513 -76 4 0
10 -30 14 -68 14 -141 49 -190 150 -213 l56 -12 0 -82 c0 -63 4 -86 16 -96 8
-7 22 -25 29 -40 l15 -27 -66 -33 c-36 -18 -77 -46 -90 -62 -24 -28 -31 -49
-16 -45 4 1 25 -6 46 -15 145 -63 320 -95 581 -106 269 -12 468 10 598 64 26
11 42 12 59 5 21 -10 21 -10 -5 -5 -19 4 -26 2 -22 -5 3 -5 -1 -10 -9 -10 -9
0 -16 -4 -16 -9 0 -4 -11 -6 -24 -4 -31 6 -76 -34 -55 -49 11 -7 10 -8 -4 -4
-10 3 -28 6 -40 7 -19 1 -18 3 8 14 17 8 23 14 15 15 -9 0 -33 -9 -55 -20 -22
-11 -45 -20 -53 -20 -7 0 -21 -8 -30 -17 -16 -16 -16 -16 3 -9 11 4 35 10 53
13 25 4 30 8 20 15 -9 7 -5 8 12 4 14 -3 32 -6 40 -7 34 -3 -103 -31 -215 -44
-154 -19 -281 -18 -474 0 -235 23 -368 60 -434 120 -23 22 -27 23 -27 8 0 -58
68 -109 180 -136 35 -8 50 -17 54 -32 10 -36 6 -143 -5 -169 -10 -20 -9 -30 4
-49 10 -15 15 -44 15 -75 -1 -30 6 -68 16 -91 18 -38 18 -41 -3 -100 -35 -102
-26 -161 26 -161 30 0 153 50 228 92 51 29 59 37 60 63 0 28 3 30 38 31 54 2
54 9 2 24 -25 7 -46 18 -46 24 -6 45 5 165 17 183 11 17 12 43 7 113 l-6 91
64 -7 c35 -4 65 -8 67 -9 7 -6 2 -196 -8 -244 -16 -85 -13 -135 10 -156 11
-10 17 -22 14 -26 -3 -5 7 -9 21 -9 39 0 22 -16 -38 -35 -45 -15 -301 -119
-392 -160 -68 -31 -191 -75 -207 -75 -10 0 -18 5 -18 10 0 6 -4 10 -9 10 -6 0
-13 -20 -17 -45 -4 -28 -11 -45 -20 -45 -27 0 -54 -39 -54 -78 0 -69 53 -101
102 -62 24 18 27 29 30 87 l3 67 197 66 c136 45 206 74 225 92 26 24 65 48 77
48 3 0 3 -8 0 -17 -4 -11 -3 -14 3 -7 13 18 95 74 107 74 7 0 12 -8 12 -17 1
-10 4 -26 9 -35 6 -15 2 -18 -23 -18 -40 0 -50 -16 -14 -24 49 -12 80 -28 87
-44 4 -10 10 -62 15 -117 19 -232 33 -342 46 -372 11 -28 18 -33 47 -33 67 0
73 35 43 250 -9 69 -15 137 -12 152 3 16 0 28 -7 31 -8 2 -13 31 -14 81 0 42
-4 88 -7 101 -3 13 -1 27 4 30 6 4 10 3 9 -2 -1 -4 -1 -17 0 -28 1 -14 4 -16
9 -8 6 9 13 3 26 -18 23 -38 30 -32 18 15 -18 63 33 38 58 -29 9 -23 13 -26
20 -15 6 8 10 26 10 39 0 17 4 22 16 17 9 -3 17 -6 20 -6 11 0 34 -64 34 -98
0 -67 -41 -101 -140 -116 -14 -2 -5 -4 20 -5 50 -1 99 23 124 61 19 30 30 104
16 113 -17 11 -11 35 10 35 26 0 52 -52 54 -107 0 -24 4 -43 8 -43 11 0 28 61
28 101 0 39 5 44 34 33 18 -7 21 -43 7 -92 -5 -17 -8 -32 -6 -32 10 0 35 61
35 85 0 14 3 25 6 25 3 0 46 -7 95 -16 l89 -17 0 -72 c0 -88 18 -118 70 -118
39 0 60 23 60 67 0 50 -11 76 -30 76 -35 0 -50 12 -50 40 0 41 -10 60 -30 60
-40 0 -266 57 -286 72 -6 4 -15 4 -19 0 -5 -4 -5 -1 -1 6 5 8 13 9 26 2 24
-13 30 -13 30 0 0 6 -7 10 -15 10 -8 0 -15 4 -15 8 0 7 -163 118 -312 212 -54
34 -68 48 -68 67 0 13 3 22 8 20 60 -33 184 -112 247 -157 113 -80 119 -81 43
-6 -38 37 -68 71 -68 77 0 19 27 8 48 -21 27 -36 51 -41 28 -5 -9 13 -18 43
-21 65 -5 36 -2 42 20 52 14 6 25 19 25 29 0 9 19 43 43 75 170 231 289 440
329 577 20 69 21 82 9 125 -29 112 -158 182 -338 183 l-93 1 0 34 c0 18 -5 56
-11 84 -6 28 -9 54 -6 57 3 3 27 0 54 -5 84 -18 321 -34 619 -40 l288 -7 14
-88 c13 -81 13 -89 -3 -107 -10 -11 -27 -22 -39 -26 -74 -21 -188 -69 -203
-86 -13 -14 -17 -35 -16 -81 l1 -62 -8 47 c-16 93 15 131 142 169 71 22 91 35
36 24 -64 -13 -164 -65 -181 -95 -21 -34 -22 -115 -3 -186 7 -28 11 -73 9
-100 -5 -46 -2 -53 41 -111 32 -44 60 -70 96 -88 28 -14 58 -39 68 -55 9 -17
37 -66 61 -109 31 -57 51 -83 72 -91 35 -15 35 -17 4 -60 -14 -19 -25 -41 -24
-49 0 -11 2 -12 6 -3 8 21 50 14 57 -10 9 -35 7 -41 -10 -34 -8 3 -12 2 -9 -4
3 -6 1 -10 -5 -10 -6 0 -8 -4 -5 -10 3 -5 -2 -10 -12 -11 -10 0 -13 -3 -6 -6
7 -2 33 10 59 28 33 23 73 38 133 50 114 24 121 24 121 -4 0 -19 -8 -25 -49
-36 -108 -27 -295 -139 -284 -169 5 -11 1 -13 -18 -7 -17 4 -20 4 -10 -4 11
-7 7 -10 -20 -14 -25 -3 -20 -4 19 -5 33 -1 104 11 185 32 164 42 237 54 220
35 -7 -7 -50 -23 -95 -34 -46 -12 -137 -36 -203 -53 -382 -99 -464 -116 -449
-89 6 9 3 8 -9 -1 -9 -8 -17 -30 -19 -50 -2 -31 -7 -38 -28 -40 -39 -6 -50
-21 -50 -67 0 -50 22 -75 67 -75 46 0 63 26 63 99 0 41 4 63 13 65 6 2 71 16
142 31 255 53 373 86 524 144 30 11 56 20 57 18 1 -1 -7 -99 -17 -217 -10
-118 -19 -239 -21 -269 -2 -32 -8 -56 -15 -59 -7 -2 -13 4 -13 13 0 9 5 13 10
10 6 -4 11 23 12 72 0 43 2 111 3 151 2 70 -7 95 -19 49 -6 -26 -29 -246 -29
-294 -1 -17 -5 -29 -9 -27 -4 3 -8 -17 -8 -45 0 -43 4 -53 25 -67 15 -10 34
-14 49 -10 39 10 53 69 66 281 9 151 14 192 27 202 10 8 17 35 20 77 3 36 10
63 14 60 5 -3 9 0 9 5 0 6 7 11 16 11 8 0 13 -4 10 -9 -3 -5 39 -23 93 -40 89
-28 100 -35 110 -61 11 -32 45 -46 81 -35 14 4 72 -9 158 -35 76 -23 143 -44
150 -46 8 -2 12 -24 12 -61 0 -32 3 -68 6 -79 10 -38 89 -59 113 -30 7 8 11
37 9 68 -2 44 -6 53 -23 56 -28 5 -45 30 -45 69 0 30 -8 38 -33 34 -5 -1 -6 3
-3 8 3 5 -9 16 -27 24 -47 23 -220 87 -233 87 -6 0 -18 7 -25 16 -11 14 -10
18 6 31 17 13 17 15 3 10 -30 -11 -20 2 15 18 l32 14 -30 -7 c-71 -17 -273 10
-290 39 -3 4 9 3 27 -2 84 -26 363 3 421 43 62 44 56 89 -8 58 -66 -32 -200
-55 -320 -55 -111 0 -117 1 -217 53 -5 2 -8 -5 -9 -15 0 -16 -1 -16 -9 2 -5
11 -9 111 -9 223 l-1 202 24 0 c19 0 24 -6 30 -38 8 -50 6 -132 -3 -157 -5
-12 -2 -37 6 -62 13 -38 13 -48 0 -88 -15 -43 -15 -46 5 -64 34 -32 110 -45
227 -38 87 6 181 21 181 30 0 1 -4 18 -10 36 -7 25 -6 39 3 50 8 9 8 12 1 8
-7 -4 -14 2 -17 13 -7 26 -24 26 -32 -1 -9 -26 -27 -19 -40 15 -7 20 -5 34 9
57 14 24 17 43 13 80 -5 42 7 167 18 177 1 2 32 9 68 17 145 30 209 95 187
190 -10 45 -37 75 -115 128 -33 22 -61 41 -63 42 -2 2 9 20 23 41 25 36 26 46
23 126 l-3 87 42 16 c57 22 78 52 93 129 l12 64 86 6 c48 4 123 11 167 17 44
5 101 9 126 9 l47 0 7 -67 c4 -38 11 -79 16 -93 8 -22 9 -22 4 8 -4 31 9 45
18 20 2 -7 3 1 1 17 -1 17 0 24 3 17 2 -7 18 -19 34 -27 33 -18 39 -40 8 -32
-16 4 -18 3 -9 -8 9 -10 7 -14 -7 -18 -10 -2 -3 -2 16 0 68 9 73 17 65 119
l-6 90 138 18 c77 10 157 22 180 26 22 5 80 16 129 25 49 8 97 23 107 32 17
15 18 14 18 -34 0 -37 4 -52 16 -57 11 -4 18 1 21 14 3 11 9 17 14 14 5 -3 9
0 9 7 0 26 11 0 29 -71 11 -40 25 -76 32 -81 8 -5 16 -41 20 -95 5 -66 12 -93
29 -116 28 -38 21 -45 -15 -13 -15 15 -29 24 -31 22 -6 -6 7 -37 15 -37 4 0
16 -8 27 -18 11 -11 26 -22 34 -25 8 -3 -7 -3 -35 0 -60 7 -96 24 -123 57 -11
14 -22 22 -26 19 -3 -3 -6 0 -6 9 0 8 -9 23 -21 34 -21 19 -21 19 -15 -16 27
-150 22 -199 -19 -184 -16 7 -16 5 0 -26 l17 -33 -88 6 c-49 4 -125 16 -169
27 -106 27 -107 27 -127 35 -25 10 -22 -2 8 -42 29 -38 24 -41 -22 -12 -63 39
-55 -9 42 -251 64 -158 77 -180 105 -180 18 0 20 -2 8 -16 -7 -8 -25 -22 -41
-30 -26 -14 -40 -54 -19 -54 5 0 12 -8 15 -17 10 -29 57 -51 89 -40 15 5 27
13 27 18 0 5 9 9 21 9 11 0 18 -4 15 -9 -4 -5 2 -7 12 -4 21 5 97 -61 87 -77
-8 -13 -114 -84 -139 -94 -10 -3 -16 -9 -13 -13 4 -3 30 9 59 27 29 19 92 53
141 77 48 23 87 45 87 49 0 3 -5 15 -11 26 -8 15 -8 19 0 14 20 -13 11 3 -29
49 -71 82 -128 235 -82 221 29 -9 202 -34 283 -41 l77 -6 6 -37 c3 -20 6 -117
6 -214 0 -119 4 -178 11 -178 5 0 7 -4 4 -10 -3 -5 -15 -10 -25 -10 -10 0 -23
-6 -27 -13 -4 -8 -80 -38 -168 -67 -88 -29 -172 -59 -187 -66 -15 -8 -36 -14
-48 -14 -11 0 -19 -5 -17 -11 2 -8 -102 -59 -122 -59 -13 0 42 32 76 45 21 7
33 14 26 14 -7 1 -36 -8 -65 -20 -28 -11 -75 -25 -102 -30 -54 -10 -76 -29
-76 -66 0 -17 -6 -23 -23 -23 -35 0 -47 -19 -47 -77 0 -55 14 -73 58 -73 49 0
65 39 71 166 1 6 20 16 42 23 44 13 44 13 69 -31 13 -22 72 -33 98 -19 14 8
23 26 29 63 l8 53 60 18 c33 10 114 38 181 63 129 47 144 51 144 32 0 -7 9 -2
19 11 14 18 20 21 24 10 4 -10 6 -9 6 4 1 16 3 16 15 4 16 -16 32 -192 21
-228 -8 -23 -8 -23 -16 -4 -4 11 -9 49 -10 85 -2 54 -4 46 -9 -45 -4 -60 -8
-160 -9 -220 0 -61 -5 -125 -11 -144 -24 -86 71 -153 112 -78 11 20 18 189 18
436 0 66 2 72 16 60 13 -10 17 -10 25 2 5 8 9 21 9 30 0 28 29 42 88 44 74 2
88 -3 65 -22 -17 -14 -17 -14 2 -8 62 21 102 14 410 -68 l50 -13 5 -78 c4 -66
8 -81 29 -97 31 -25 77 -25 91 0 14 27 13 104 -2 119 -7 7 -20 12 -30 12 -12
0 -20 13 -28 43 -16 63 -23 71 -72 82 l-44 10 23 34 c15 23 23 49 23 77 0 24
-2 44 -4 44 -2 0 -26 -11 -53 -24 -26 -13 -66 -32 -88 -42 -22 -10 -43 -22
-46 -26 -6 -10 -109 13 -109 25 0 8 134 97 147 97 4 0 23 9 42 21 l34 20 -61
62 c-62 64 -87 111 -95 183 -3 22 -16 58 -30 80 -14 21 -29 51 -32 65 -6 23
-2 27 33 37 22 7 44 12 49 12 5 0 15 -36 21 -80 12 -86 32 -120 70 -120 13 0
21 4 18 9 -3 5 -14 7 -25 4 -27 -7 -35 24 -10 38 11 6 48 16 82 23 l62 13 -4
149 c-1 82 -5 152 -7 155 -2 4 -22 -11 -45 -32 -23 -22 -48 -39 -56 -39 -7 0
-13 -4 -13 -9 0 -10 -69 -41 -155 -69 -96 -32 -190 -44 -335 -45 -112 0 -124
-2 -70 -8 41 -5 18 -5 -65 -2 -183 6 -259 14 -340 34 -22 6 -62 15 -90 20 -96
19 -222 69 -175 69 13 0 13 2 0 10 -20 13 -33 12 -24 -2 4 -6 3 -8 -3 -5 -6 4
-8 18 -6 31 l5 25 42 -16 c54 -21 59 -27 16 -19 -19 3 -30 4 -25 1 17 -8 237
-65 315 -81 41 -8 91 -20 109 -26 19 -6 53 -11 75 -11 23 1 46 -4 53 -9 14
-11 75 -1 84 15 4 5 44 13 90 17 88 8 215 41 334 85 78 29 175 90 175 111 0 7
-16 25 -35 40 -33 25 -35 28 -19 45 17 19 43 15 57 -8 4 -7 14 -13 20 -13 7 0
19 -9 27 -20 23 -32 43 -26 37 13 -3 17 -9 78 -13 133 l-6 102 48 22 c27 11
61 33 76 47 15 15 29 25 31 22 2 -2 13 -35 26 -74 30 -89 114 -293 152 -367
16 -31 26 -63 23 -71 -9 -25 34 -106 68 -127 18 -11 28 -20 23 -20 -6 0 -27
11 -47 25 -20 14 -40 25 -43 25 -8 0 2 -33 27 -89 24 -54 9 -82 -17 -31 -24
47 -45 120 -33 120 5 0 7 4 3 9 -5 9 -45 8 -136 -3 -20 -2 -29 1 -29 11 0 8
-5 11 -10 8 -6 -4 -8 -10 -5 -15 3 -4 -5 -10 -16 -13 -14 -4 -18 -10 -13 -18
5 -9 2 -10 -9 -6 -13 5 -17 0 -19 -21 -2 -41 -3 -46 -12 -60 -4 -7 -10 -37
-13 -68 -6 -53 -19 -76 -32 -57 -3 5 -17 6 -31 3 -21 -6 -17 -8 28 -18 70 -16
145 -15 321 3 80 8 211 19 291 24 131 10 147 13 163 33 13 15 16 30 12 48 -4
14 -9 44 -12 68 -4 34 -2 42 11 42 9 0 16 5 16 10 0 6 4 10 9 10 6 0 6 -11 0
-29 -16 -47 -8 -94 19 -106 23 -10 23 -13 16 -95 -3 -47 -12 -123 -20 -170 -8
-53 -10 -86 -4 -88 6 -2 10 -8 10 -14 0 -6 -7 -8 -15 -4 -12 4 -15 -3 -15 -34
0 -70 64 -105 105 -60 15 17 20 46 26 153 4 73 11 156 14 184 6 50 8 53 34 53
32 0 54 20 50 47 -1 10 1 26 6 36 4 9 4 30 1 45 -8 29 -9 62 -3 68 1 2 52 -12
113 -31 60 -19 110 -35 112 -35 9 0 -1 61 -10 64 -7 2 -59 18 -116 35 l-102
32 2 257 3 257 50 2 c28 2 78 5 113 9 l62 6 0 244 0 245 -52 -8 c-85 -13 -261
-9 -266 5 -2 7 -8 9 -13 6 -22 -13 -145 48 -180 90 -23 27 -26 36 -19 71 4 22
8 33 9 25 1 -12 4 -11 12 3 6 9 15 14 21 11 7 -5 9 -2 6 7 -3 8 7 27 24 44 48
47 91 124 117 205 13 41 28 85 32 98 5 13 9 31 9 42 0 10 11 31 23 47 29 34
41 74 21 66 -8 -3 -14 -13 -14 -22 0 -9 -9 -22 -20 -29 -23 -14 -25 -5 -5 22
8 11 15 25 15 32 0 7 -25 -14 -56 -46 -31 -33 -65 -62 -75 -65 -11 -4 -17 -11
-14 -16 4 -5 -1 -9 -10 -9 -9 0 -13 -4 -10 -10 3 -5 -6 -12 -20 -16 -20 -5
-23 -9 -14 -20 6 -8 18 -14 25 -14 16 0 19 -26 4 -35 -6 -3 -13 0 -15 8 -4 9
-16 12 -36 9 -28 -4 -29 -6 -14 -22 24 -27 24 -66 -2 -161 -13 -48 -24 -104
-25 -126 -1 -28 -6 -39 -17 -40 -27 -2 -413 -120 -466 -143 -27 -12 -62 -33
-77 -48 l-28 -26 0 68 c0 51 3 65 13 60 10 -6 10 -4 0 7 -7 7 -13 24 -12 39 0
23 1 23 9 5 7 -17 9 -15 9 12 1 25 5 31 16 27 10 -4 15 -19 14 -48 l-2 -41 -7
40 -7 40 -2 -47 c0 -27 -5 -48 -10 -48 -5 0 -8 -16 -8 -35 1 -19 4 -35 8 -35
13 0 39 37 38 56 0 14 -3 12 -11 -8 -5 -16 -14 -28 -20 -28 -6 0 -6 6 2 15 7
8 9 15 5 15 -4 0 0 11 9 25 9 14 16 45 16 75 0 47 3 52 31 68 49 27 109 71
109 80 0 9 -71 47 -107 57 -14 4 -47 -8 -102 -36 -79 -42 -81 -42 -132 -31
-33 8 -57 9 -68 2 -10 -5 -20 -7 -23 -5 -3 3 -47 -4 -99 -15 -52 -11 -104 -20
-117 -20 -15 0 -21 -4 -16 -12 4 -7 3 -8 -5 -4 -13 8 -323 -63 -317 -73 2 -3
-12 -7 -33 -8 -64 -2 -180 -80 -181 -121 0 -8 -5 -10 -12 -6 -8 5 -9 2 -5 -10
4 -9 3 -14 -2 -11 -5 3 -12 -3 -14 -12 -3 -10 -5 -2 -6 17 -1 37 24 86 68 134
40 43 135 82 252 101 57 9 167 30 244 46 77 16 152 29 168 29 15 0 27 2 27 5
0 17 -55 116 -79 142 -34 38 -168 84 -181 63 -5 -8 -13 -5 -26 13 -11 13 -26
26 -33 28 -8 3 20 10 61 17 42 6 101 21 131 32 119 45 318 223 376 337 37 75
63 227 52 316 -7 58 0 76 14 35 7 -21 8 -20 12 9 6 48 -33 127 -85 173 -25 22
-52 40 -60 40 -12 0 -11 5 6 20 24 23 30 78 10 98 -22 22 -53 13 -72 -19 l-19
-32 -12 37 c-7 21 -20 45 -29 55 -11 12 -16 37 -16 84 0 109 -16 161 -61 202
-22 20 -50 41 -63 46 -19 9 -25 23 -35 92 -16 105 -54 222 -89 272 -15 23 -45
49 -69 60 -23 11 -42 23 -43 26 0 3 18 11 41 18 54 16 119 78 151 143 45 92
62 202 62 393 0 183 -13 262 -59 362 -24 53 -108 153 -129 153 -6 0 -11 18
-12 41 0 34 -6 46 -29 65 -36 28 -41 25 -21 -15 25 -47 19 -56 -14 -24 -42 41
-128 81 -208 99 -72 15 -236 17 -314 4z m370 -518 c13 -42 26 -92 29 -110 3
-18 10 -35 16 -39 6 -4 7 -1 2 8 -6 10 -5 11 4 3 6 -5 13 -29 15 -53 2 -23 8
-46 12 -49 4 -4 4 7 0 23 -4 21 -4 25 3 14 10 -16 11 -100 1 -94 -3 2 -6 -13
-7 -33 -6 -86 -24 -129 -74 -181 -57 -59 -135 -101 -234 -126 -85 -21 -132
-16 -222 25 -129 59 -176 134 -172 273 1 45 -1 130 -6 189 -4 59 -5 114 -2
122 7 18 37 11 37 -9 0 -25 316 8 345 36 12 12 28 12 20 -1 -12 -20 -85 -50
-122 -51 -36 -1 -36 -2 12 -10 28 -5 66 -6 85 -2 55 9 133 51 181 97 24 24 46
44 49 44 3 1 15 -33 28 -76z m239 -206 c25 -22 28 -30 28 -91 0 -65 -1 -67
-43 -106 -28 -27 -50 -39 -65 -37 -27 4 -27 19 2 34 12 6 25 15 29 19 4 5 1 5
-7 0 -10 -6 -12 -4 -7 4 5 7 15 10 23 7 8 -3 12 -2 8 3 -7 12 5 42 14 37 13
-9 28 29 20 51 -19 51 -87 33 -106 -29 l-11 -33 -1 38 c-2 67 33 122 81 126 4
1 20 -10 35 -23z m-3317 -791 c0 -11 -12 -15 -42 -17 l-43 -1 38 -4 c36 -4 37
-5 37 -44 0 -21 -3 -38 -7 -38 -20 3 -23 -2 -10 -15 8 -9 12 -26 10 -40 -3
-14 -1 -26 5 -26 15 0 21 -62 8 -84 -17 -29 -58 -70 -93 -94 -35 -25 -76 -28
-137 -10 -46 13 -126 73 -126 94 0 8 -4 14 -9 14 -14 0 -31 59 -31 108 0 41 5
50 40 83 22 21 40 44 40 52 0 18 96 29 180 20 42 -4 60 -2 60 6 0 6 17 11 40
11 29 0 40 -4 40 -15z m2621 -359 c46 -14 128 -35 182 -47 89 -21 125 -39 78
-39 -11 0 -51 -11 -88 -25 -86 -30 -209 -53 -223 -39 -16 16 -61 197 -46 185
8 -7 51 -22 97 -35z m-5479 -434 c17 -46 32 -34 36 26 2 29 8 52 13 52 6 0 70
-9 142 -21 108 -16 342 -49 354 -49 8 0 -1 -80 -41 -370 -24 -173 -47 -343
-51 -377 -6 -58 -9 -63 -31 -63 -13 0 -144 20 -291 45 -148 24 -279 46 -293
48 -23 3 -24 4 -5 12 11 4 45 19 75 33 54 24 54 25 28 32 -27 8 -105 63 -120
85 -4 5 1 13 12 17 24 9 53 64 52 99 -1 26 -27 89 -37 89 -3 0 -4 -3 -3 -7 0
-5 -6 -25 -15 -45 -10 -21 -17 -42 -17 -48 0 -6 -7 -18 -15 -26 -13 -14 -15
-14 -15 0 0 8 5 38 11 66 14 65 6 85 -15 36 -10 -21 -19 -36 -22 -33 -3 3 4
23 15 45 22 43 65 77 86 68 8 -3 29 -33 47 -68 l32 -63 10 115 c5 63 10 175
10 247 1 128 2 132 18 110 10 -12 23 -37 30 -55z m2329 -32 c101 -11 280 -29
398 -40 118 -11 217 -22 219 -25 3 -3 -5 -89 -17 -192 -45 -384 -71 -586 -75
-590 -2 -2 -89 7 -192 21 -104 14 -232 30 -284 36 -117 14 -575 78 -613 86
l-29 6 33 20 c18 11 41 31 52 45 15 19 22 22 28 11 7 -10 9 -10 9 0 0 6 5 12
11 12 6 0 9 -6 6 -14 -4 -10 4 -13 34 -11 41 2 57 10 45 22 -4 4 -11 1 -16 -7
-5 -8 -12 -12 -15 -8 -3 3 6 15 20 26 28 23 23 30 -23 34 l-32 2 3 86 c4 100
17 131 82 188 27 24 45 48 45 61 0 12 4 20 9 17 14 -9 35 84 36 161 l0 73 41
0 c23 0 124 -9 225 -20z m-4041 -1070 c66 -24 97 -30 138 -27 43 3 60 -1 86
-18 18 -12 64 -39 102 -60 83 -46 106 -64 97 -78 -4 -6 0 -8 10 -4 12 4 17 1
18 -11 0 -9 1 -47 2 -83 l2 -67 -38 19 c-60 31 -272 108 -396 145 -63 19 -115
34 -117 34 -1 0 -4 26 -6 58 -2 31 -12 74 -22 96 l-17 38 28 -5 c15 -3 66 -20
113 -37z m5879 -23 c39 -26 81 -79 81 -102 -1 -5 -7 2 -15 16 -23 43 -97 72
-197 77 -108 5 -311 -7 -283 -18 16 -6 12 -9 -20 -14 -22 -4 -59 -12 -81 -18
-23 -5 -53 -7 -65 -3 -16 4 -19 3 -11 -3 9 -6 -6 -15 -50 -29 -95 -31 -117
-35 -73 -14 22 11 34 20 27 20 -28 2 -169 -81 -221 -129 -30 -28 -58 -50 -62
-50 -4 0 -11 -9 -14 -21 -12 -36 -17 -12 -6 27 25 91 125 174 261 218 180 58
304 75 521 73 163 -2 166 -2 208 -30z m-2729 -32 c271 -31 396 -69 485 -147
51 -45 111 -146 74 -122 -9 5 -10 -1 -5 -20 4 -18 3 -25 -4 -21 -5 3 -10 12
-10 19 0 8 -8 13 -17 12 -9 0 -22 9 -28 22 -7 12 -16 26 -20 30 -5 4 -5 1 0
-7 5 -9 4 -12 -3 -7 -6 4 -9 13 -6 20 5 14 -50 62 -101 88 -35 18 -190 68
-208 67 -10 0 120 -49 132 -49 2 0 2 -2 -1 -5 -3 -3 -18 0 -34 6 -16 6 -67 19
-114 29 -79 16 -82 18 -40 20 43 2 42 3 -27 15 -175 32 -393 22 -474 -21 -56
-31 -93 -64 -120 -109 -23 -36 -26 -13 -5 36 17 40 77 100 126 124 70 36 207
42 400 20z m5731 -675 c67 -16 160 -35 206 -41 l83 -12 0 -234 c0 -233 0 -234
-22 -243 -22 -8 -21 -9 7 -10 37 0 73 -20 38 -20 -12 0 -53 -11 -91 -25 -38
-14 -77 -25 -86 -25 -9 0 -16 -7 -16 -15 0 -57 -82 -99 -141 -72 -19 8 -41 17
-49 19 -17 5 39 38 64 38 8 0 23 11 34 25 11 13 23 21 27 17 5 -4 5 -1 0 7 -5
9 -2 18 8 26 14 10 15 20 6 76 -6 35 -21 82 -34 104 -12 22 -41 87 -63 145
-22 58 -56 142 -75 188 -20 45 -32 82 -27 82 5 0 64 -13 131 -30z m-8998 -132
c-19 -62 -43 -134 -54 -160 -21 -52 -25 -118 -8 -135 9 -9 5 -28 -16 -77 l-28
-66 41 -39 c23 -21 42 -46 42 -57 0 -15 -5 -13 -26 14 -14 18 -29 30 -33 27
-9 -5 -111 23 -176 49 l-40 16 40 -6 40 -5 -36 16 c-48 21 -49 29 -49 285 l0
208 78 7 c42 3 113 12 157 19 44 7 85 14 91 15 7 0 -2 -44 -23 -111z m4706
-302 c33 -30 137 -76 225 -100 212 -59 380 -82 694 -93 100 -3 182 -10 182
-15 0 -4 28 -9 63 -10 41 -1 50 -3 25 -5 -21 -2 -38 -8 -38 -12 0 -5 -51 -14
-114 -21 -207 -23 -566 -2 -771 45 -42 10 -162 53 -188 67 -12 7 -24 12 -27
13 -13 1 -71 49 -81 66 -10 19 -4 79 9 79 3 0 13 -6 21 -14z m-2789 -309 c0
-34 -4 -77 -10 -95 -13 -49 2 -159 25 -176 16 -11 19 -28 19 -114 1 -55 -2
-104 -6 -108 -4 -4 -69 12 -145 34 -76 23 -171 49 -210 58 -99 22 -99 42 -2
80 93 37 102 51 89 141 -5 38 -18 89 -30 114 -35 79 -31 85 58 93 42 4 104 13
137 20 33 8 63 14 68 15 4 1 7 -27 7 -62z m5883 -14 c15 -32 38 -77 52 -99 21
-36 23 -43 10 -54 -8 -6 -20 -8 -27 -4 -10 5 -11 4 0 -7 24 -26 11 -32 -32
-14 -11 5 -26 4 -37 -3 -16 -10 -18 -5 -24 54 -9 76 5 103 25 52 8 -18 17 -35
20 -38 4 -3 12 -14 19 -25 l13 -20 -8 20 c-4 11 -7 28 -8 37 0 9 -2 15 -5 12
-4 -3 -51 130 -51 144 0 1 6 2 14 2 7 0 25 -26 39 -57z m67 -216 c0 -8 16 -28
36 -46 32 -30 38 -32 66 -22 53 19 82 14 148 -24 14 -8 21 -15 16 -15 -5 0 -2
-8 5 -17 12 -15 12 -16 -1 -8 -13 8 -13 7 -1 -8 9 -11 10 -17 2 -17 -6 0 -10
-5 -8 -11 1 -6 -13 -17 -31 -23 -18 -6 -30 -15 -26 -19 4 -4 2 -7 -4 -7 -6 0
-13 4 -16 9 -3 5 -14 7 -24 4 -10 -2 -31 1 -47 8 -17 7 -41 14 -55 16 -14 2
-53 11 -87 19 -34 9 -67 13 -73 9 -5 -3 -10 -2 -10 3 0 4 16 16 36 25 39 19
69 74 61 114 -2 13 0 23 4 23 5 0 9 -6 9 -13z"/>
<path d="M2 6495 c-3 -52 -2 -55 25 -61 48 -10 49 -12 11 -13 -31 -1 -38 -5
-38 -21 0 -16 5 -19 23 -15 13 4 74 -1 136 -9 116 -17 209 -21 162 -7 -30 8
-35 45 -13 80 15 22 20 23 76 17 75 -8 70 0 -9 13 -33 6 -123 24 -199 41 -77
16 -146 30 -155 30 -12 0 -17 -13 -19 -55z"/>
<path d="M993 6485 c-40 -8 -77 -16 -82 -19 -5 -3 -26 -8 -47 -12 -22 -3 -40
-7 -40 -7 -7 -9 32 -100 54 -127 l30 -35 81 83 c45 46 79 88 76 93 -3 5 1 6 9
3 8 -3 19 3 26 15 13 25 3 26 -107 6z"/>
<path d="M2320 6350 l0 -80 63 -1 c34 0 110 -1 169 -2 l108 -2 0 83 0 82 -170
0 -170 0 0 -80z"/>
<path d="M3160 6099 c0 -52 -2 -60 -14 -50 -10 9 -13 24 -9 49 5 31 3 35 -8
24 -10 -10 -13 -37 -11 -108 l3 -95 -43 3 c-30 2 -43 8 -43 18 -1 27 -31 74
-39 61 -5 -8 -18 2 -37 29 -16 22 -32 40 -37 40 -20 -1 -42 -29 -36 -46 4 -14
3 -15 -4 -5 -7 9 -12 10 -16 2 -4 -6 -4 -11 -1 -11 4 0 -1 -7 -9 -16 -32 -32
-14 -94 43 -149 28 -26 30 -30 14 -37 -17 -6 -17 -7 1 -7 15 -1 16 -4 6 -16
-7 -8 -9 -15 -4 -15 5 0 9 -54 9 -120 0 -65 -3 -112 -7 -102 -6 15 -7 14 -7
-3 0 -11 6 -31 13 -45 l14 -25 7 38 c4 20 5 48 3 62 -3 14 -2 25 2 25 4 0 11
44 15 98 7 94 8 100 35 115 48 29 98 18 121 -25 17 -32 29 -79 18 -73 -5 4 -9
15 -9 26 0 15 -7 19 -32 19 -33 -1 -68 -19 -68 -36 0 -19 88 -103 115 -110 26
-6 27 -5 22 17 -18 67 -19 75 -7 59 10 -13 11 -12 5 5 -13 36 -18 204 -7 217
15 19 28 248 13 248 -7 0 -11 -22 -11 -61z"/>
<path d="M0 5761 l0 -181 38 0 c51 0 80 9 86 27 4 9 6 74 7 146 0 96 -3 132
-13 138 -7 5 -34 9 -60 9 -36 0 -46 3 -42 14 3 8 1 17 -5 21 -8 4 -11 -49 -11
-174z"/>
<path d="M754 5869 l1 -47 -60 -5 c-103 -10 -128 -5 -132 23 -5 33 -17 43 -41
36 -23 -8 -32 -43 -32 -128 l0 -60 33 5 c17 4 99 7 180 9 82 1 151 6 153 10 3
4 14 3 25 -3 11 -6 28 -7 37 -3 9 4 26 6 37 5 15 -2 17 0 9 9 -9 9 -9 18 1 37
8 14 11 32 8 40 -5 13 2 14 38 9 37 -5 40 -4 19 5 -14 5 -27 10 -29 9 -2 -1
-7 3 -10 8 -8 13 -51 25 -51 15 0 -5 -16 -7 -35 -5 -19 2 -41 0 -48 -5 -12 -9
-58 -9 -83 1 -7 3 -15 22 -17 43 -3 32 -4 30 -3 -8z"/>
<path d="M1393 5669 c-6 -6 -9 -19 -6 -28 3 -9 1 -12 -4 -6 -24 29 -42 36 -62
25 -12 -6 -21 -16 -21 -22 0 -9 3 -9 12 0 7 7 17 12 23 12 5 -1 -1 -10 -14
-21 -22 -18 -23 -23 -12 -41 7 -11 10 -23 6 -26 -3 -4 -10 0 -15 8 -6 8 -10
10 -10 4 0 -16 25 -35 35 -26 5 4 5 -1 1 -12 -5 -14 -2 -17 9 -12 11 4 15 -2
15 -26 0 -18 7 -36 18 -44 24 -19 32 -17 32 6 0 31 40 100 59 100 9 0 36 -11
60 -25 l43 -25 -6 22 c-3 13 -6 35 -6 51 l0 27 -36 -15 c-44 -18 -103 -20
-105 -2 -1 6 -1 29 0 50 3 40 1 43 -16 26z"/>
<path d="M5165 5477 c-53 -14 -90 -17 -152 -12 l-81 6 2 -26 c4 -33 5 -34 67
-51 56 -14 166 -18 208 -7 20 5 22 10 17 42 -3 21 -2 30 3 22 11 -18 19 -1 12
24 -6 20 -7 20 -76 2z"/>
<path d="M5259 5417 c7 -9 17 -14 22 -11 5 3 9 -2 9 -11 0 -27 -79 -104 -119
-115 -64 -18 -152 -12 -201 13 -37 18 -49 31 -65 72 l-20 50 -50 -11 c-27 -7
-40 -13 -27 -13 13 -1 21 -5 17 -10 -3 -5 -1 -12 5 -16 5 -3 10 -19 10 -36 0
-16 4 -29 9 -29 5 0 12 -17 17 -37 4 -23 9 -31 11 -20 3 9 9 17 15 17 5 0 8 6
5 13 -7 17 9 44 20 34 4 -5 2 -12 -6 -16 -10 -6 -9 -10 4 -14 9 -4 13 -3 10 3
-3 6 -1 10 4 10 6 0 11 -4 11 -9 0 -8 17 -16 70 -31 19 -6 16 -7 -13 -5 -20 2
-35 -1 -32 -5 3 -4 -5 -6 -17 -3 -19 5 -21 3 -10 -8 16 -17 15 -29 -2 -29 -8
0 -16 -5 -18 -10 -2 -6 -30 -14 -63 -19 -44 -6 12 -9 209 -10 229 -1 267 1
263 13 -9 24 -18 78 -21 129 -2 39 1 50 17 59 14 7 22 7 27 -2 5 -7 20 -11 37
-8 l29 4 0 -96 -1 -95 108 -2 c59 -1 107 2 107 7 0 4 -15 6 -34 3 -19 -2 -44
0 -55 7 -18 9 -20 17 -14 55 4 31 2 45 -6 45 -6 0 -11 5 -11 11 0 8 5 8 15 -1
8 -7 15 -19 15 -26 0 -8 5 -14 10 -14 6 0 10 5 10 12 0 7 12 -7 27 -30 36 -56
42 -45 8 14 -44 76 -107 130 -165 144 -28 7 -57 9 -66 6 -8 -3 -12 -2 -9 4 6
9 -4 12 -60 15 -11 1 -27 5 -35 10 -13 8 -13 6 -1 -8z"/>
<path d="M6607 5392 c-31 -12 -88 -26 -126 -31 -38 -5 -75 -12 -81 -16 -7 -4
-16 -1 -21 6 -7 11 -9 9 -9 -7 0 -24 24 -34 80 -33 l35 1 -45 13 -45 13 45 0
c100 -2 152 5 168 21 33 32 52 44 52 32 0 -6 -10 -15 -22 -20 l-22 -8 22 -5
c14 -4 20 -2 16 4 -4 6 -1 9 7 6 13 -4 15 -59 3 -100 -8 -27 -89 -58 -149 -58
-65 0 -112 15 -148 48 -22 21 -30 23 -40 13 -10 -10 -8 -11 6 -6 19 8 24 -10
5 -19 -7 -3 -2 -3 12 1 23 5 24 5 10 -12 -13 -17 -13 -18 2 -13 10 4 19 1 22
-8 4 -9 11 -12 18 -8 10 6 10 5 1 -7 -11 -13 -8 -15 19 -11 21 3 29 1 24 -7
-4 -6 -16 -11 -26 -11 -10 0 -22 -5 -26 -12 -4 -6 -3 -8 3 -5 17 11 76 -4 65
-15 -7 -7 -29 -6 -62 1 -65 14 -76 7 -25 -15 29 -12 64 -15 146 -12 59 1 105
6 102 11 -2 4 1 7 6 7 6 0 11 -4 11 -10 0 -5 5 -10 11 -10 5 0 7 5 4 10 -4 6
7 24 24 40 16 16 32 43 36 60 4 16 11 30 16 30 5 0 9 7 9 15 0 8 4 15 9 15 5
0 11 10 14 23 2 12 8 29 11 38 6 13 0 18 -28 21 -32 3 -36 1 -36 -18 0 -13 -4
-25 -9 -28 -5 -4 -7 3 -4 14 3 13 -1 26 -10 33 -9 7 -17 21 -19 32 -3 20 -4
20 -61 -3z"/>
<path d="M177 5380 c-32 -10 -63 -22 -70 -28 -6 -5 -28 -15 -48 -21 -22 -7
-41 -21 -48 -37 -8 -18 -11 -182 -11 -574 l0 -549 55 -6 c77 -10 116 0 153 38
34 35 52 81 52 132 0 83 63 180 109 168 25 -6 64 -54 79 -98 9 -27 10 -24 11
31 1 45 7 73 25 105 13 24 27 59 31 77 5 24 11 32 23 28 23 -7 81 85 106 167
8 26 24 12 37 -33 12 -38 29 -54 29 -27 0 7 8 24 18 37 l17 25 5 -33 c3 -18
10 -33 15 -34 6 -1 24 21 40 49 17 27 35 48 42 46 13 -5 25 40 16 63 -5 14 -2
16 16 11 12 -3 21 -2 19 1 -41 86 -123 240 -147 275 -60 88 -136 135 -262 161
-41 8 -100 22 -132 31 -74 19 -108 18 -180 -5z"/>
<path d="M4725 5382 c-49 -16 -136 -106 -135 -138 1 -5 6 1 13 14 13 22 13 21
33 -22 18 -37 18 -43 5 -39 -11 4 -8 -1 6 -16 26 -24 71 -27 99 -6 10 8 14 15
9 15 -6 0 -17 -6 -24 -12 -10 -11 -11 -8 -7 15 2 15 8 37 11 48 5 15 4 19 -4
14 -9 -5 -11 9 -9 52 3 51 6 58 26 61 12 2 22 8 22 13 0 10 -15 10 -45 1z"/>
<path d="M10035 5383 c-76 -9 -218 -49 -319 -90 -101 -40 -227 -69 -249 -56
-5 3 -4 -4 2 -16 6 -11 20 -25 31 -31 30 -16 25 -25 -35 -56 -30 -16 -55 -32
-55 -36 0 -4 12 -16 27 -27 25 -21 26 -22 7 -36 -10 -9 -27 -20 -36 -26 -10
-5 -18 -16 -18 -24 0 -16 60 -55 84 -55 9 0 16 -7 16 -15 0 -18 57 -46 77 -38
20 8 16 -7 -12 -43 l-25 -33 22 -21 c23 -22 51 -23 132 -4 25 6 28 4 23 -10
-4 -10 -1 -16 8 -16 8 0 15 5 15 12 0 6 11 -2 25 -18 16 -18 25 -41 25 -62 0
-18 11 -54 25 -81 13 -27 29 -69 36 -95 15 -59 26 -66 35 -20 8 43 58 104 86
104 29 0 84 -60 97 -105 6 -22 11 -65 11 -95 0 -30 5 -73 11 -95 6 -22 11 -48
12 -57 1 -9 4 -15 8 -12 4 2 12 -3 19 -10 6 -8 23 -14 38 -12 15 1 39 -4 55
-11 l27 -14 0 599 0 599 -46 7 c-48 6 -105 6 -159 -1z"/>
<path d="M10145 4097 c-33 -22 -91 -53 -130 -69 -75 -29 -72 -31 46 -28 68 1
79 -1 98 -21 45 -49 62 -171 70 -524 l7 -290 2 451 c2 384 0 457 -13 488 -8
20 -16 36 -18 35 -1 0 -29 -19 -62 -42z"/>
<path d="M9334 3561 c-42 -25 -47 -36 -33 -63 14 -27 50 -68 59 -68 4 0 13 20
20 45 7 24 18 49 25 55 11 9 13 1 13 -35 -1 -25 -5 -48 -11 -52 -5 -3 -6 4 -2
17 5 16 4 20 -5 15 -6 -4 -10 -16 -7 -26 3 -10 0 -20 -6 -22 -8 -2 -7 -6 1
-11 7 -4 12 -2 12 3 0 6 7 11 15 11 8 0 15 6 15 13 0 8 3 7 10 -3 6 -9 5 -17
-3 -22 -8 -5 -6 -8 6 -8 39 0 41 65 3 138 -13 26 -23 32 -49 32 -17 0 -46 -9
-63 -19z"/>
<path d="M7911 3391 c-10 -6 -5 -12 18 -22 17 -8 31 -17 31 -20 0 -3 18 -14
40 -24 22 -10 38 -20 36 -22 -11 -11 -121 -30 -157 -28 -68 5 -69 22 -2 28 22
2 45 7 52 11 7 5 15 5 18 2 4 -3 0 -6 -8 -6 -10 -1 -8 -4 4 -11 24 -14 30 -7
13 16 -13 18 -18 18 -67 6 -30 -8 -95 -15 -146 -17 -50 -1 -101 -5 -113 -9
-20 -6 -20 -7 6 -27 18 -14 43 -22 78 -23 28 -2 45 -1 38 2 -6 3 -9 10 -6 15
5 8 -3 9 -24 5 -18 -4 -42 -1 -57 7 l-26 13 23 6 c12 4 25 2 28 -3 3 -5 28
-10 55 -12 38 -2 51 -7 53 -20 3 -14 -6 -19 -38 -24 -23 -4 -37 -11 -33 -15 5
-5 63 4 128 20 66 16 136 32 155 35 19 3 49 16 65 27 29 20 29 21 4 15 -17 -4
-36 2 -60 17 -19 13 -50 30 -69 37 -34 14 -34 14 -10 21 20 6 21 7 5 8 -11 0
-26 -3 -34 -8z"/>
<path d="M9725 1583 c-28 -15 -105 -23 -510 -52 -120 -8 -230 -2 -301 18 -21
6 -44 7 -53 2 -11 -7 -6 -12 25 -20 135 -38 229 -38 594 -3 210 21 246 28 269
56 16 20 14 20 -24 -1z"/>
<path d="M7815 1359 c-240 -136 -366 -201 -381 -195 -8 3 -11 0 -7 -10 5 -13
17 -14 66 -9 48 6 59 5 55 -6 -3 -8 -22 -15 -47 -17 -43 -3 -48 -22 -5 -22 24
0 71 14 299 87 114 37 185 68 197 87 13 19 9 29 -7 16 -10 -8 -15 -9 -15 -1 0
6 9 16 20 23 15 10 20 24 20 59 0 25 -3 48 -6 52 -3 3 -24 -5 -46 -19 -59 -37
-256 -144 -265 -144 -10 1 39 39 50 40 5 0 21 8 35 19 15 10 63 37 107 60 77
41 120 71 100 71 -6 0 -82 -41 -170 -91z"/>
</g>
</svg>
